G04*
G04 #@! TF.GenerationSoftware,Altium Limited,Altium Designer,22.10.1 (41)*
G04*
G04 Layer_Color=16711935*
%FSLAX25Y25*%
%MOIN*%
G70*
G04*
G04 #@! TF.SameCoordinates,C65821A1-17F7-41E3-85A7-462E8C27BB40*
G04*
G04*
G04 #@! TF.FilePolarity,Positive*
G04*
G01*
G75*
%ADD96C,0.01000*%
D96*
X5000Y393701D02*
X4025Y393605D01*
X3087Y393320D01*
X2222Y392858D01*
X1464Y392236D01*
X843Y391479D01*
X381Y390614D01*
X96Y389676D01*
X0Y388701D01*
X592520D02*
X592424Y389676D01*
X592139Y390614D01*
X591677Y391479D01*
X591055Y392236D01*
X590298Y392858D01*
X589433Y393320D01*
X588495Y393605D01*
X587520Y393701D01*
Y0D02*
X588495Y96D01*
X589433Y381D01*
X590298Y843D01*
X591055Y1464D01*
X591677Y2222D01*
X592139Y3087D01*
X592424Y4025D01*
X592520Y5000D01*
X0D02*
X96Y4025D01*
X381Y3087D01*
X843Y2222D01*
X1464Y1464D01*
X2222Y843D01*
X3087Y381D01*
X4025Y96D01*
X5000Y0D01*
X592520Y5000D02*
Y388701D01*
X0Y388189D02*
Y388701D01*
X5000Y393701D02*
X587520D01*
X579528Y0D02*
X587520D01*
X5000D02*
X579528D01*
X0Y5000D02*
Y388189D01*
M02*
