G04*
G04 #@! TF.GenerationSoftware,Altium Limited,Altium Designer,22.10.1 (41)*
G04*
G04 Layer_Physical_Order=2*
G04 Layer_Color=36540*
%FSLAX25Y25*%
%MOIN*%
G70*
G04*
G04 #@! TF.SameCoordinates,C65821A1-17F7-41E3-85A7-462E8C27BB40*
G04*
G04*
G04 #@! TF.FilePolarity,Positive*
G04*
G01*
G75*
%ADD37C,0.07284*%
%ADD49C,0.01181*%
%ADD51C,0.01575*%
%ADD55C,0.12720*%
%ADD56C,0.17717*%
%ADD58C,0.13583*%
%ADD59C,0.05591*%
%ADD60C,0.02756*%
%ADD61C,0.05906*%
%ADD62C,0.21654*%
%ADD63C,0.05000*%
%ADD64C,0.39370*%
%ADD65C,0.01968*%
G36*
X588476Y392269D02*
X589367Y391900D01*
X590132Y391313D01*
X590719Y390548D01*
X591088Y389657D01*
X591211Y388721D01*
X591207Y388701D01*
Y5000D01*
X591211Y4979D01*
X591088Y4044D01*
X590719Y3153D01*
X590132Y2388D01*
X589367Y1801D01*
X588476Y1432D01*
X587540Y1309D01*
X587520Y1313D01*
X5000D01*
X4979Y1309D01*
X4044Y1432D01*
X3153Y1801D01*
X2388Y2388D01*
X1801Y3153D01*
X1432Y4044D01*
X1309Y4979D01*
X1313Y5000D01*
Y388189D01*
Y388701D01*
X1309Y388721D01*
X1432Y389657D01*
X1801Y390548D01*
X2388Y391313D01*
X3153Y391900D01*
X4044Y392269D01*
X4979Y392392D01*
X5000Y392388D01*
X255028D01*
X255161Y391888D01*
X254674Y391607D01*
X254062Y390995D01*
X253629Y390245D01*
X253405Y389409D01*
Y388544D01*
X253629Y387707D01*
X254062Y386958D01*
X254674Y386346D01*
X255424Y385913D01*
X256260Y385689D01*
X257126D01*
X257962Y385913D01*
X258711Y386346D01*
X259324Y386958D01*
X259756Y387707D01*
X259980Y388544D01*
Y389409D01*
X259756Y390245D01*
X259324Y390995D01*
X258711Y391607D01*
X258224Y391888D01*
X258358Y392388D01*
X587520D01*
X587540Y392392D01*
X588476Y392269D01*
D02*
G37*
%LPC*%
G36*
X492952Y391870D02*
X492087D01*
X491251Y391646D01*
X490501Y391213D01*
X489889Y390601D01*
X489456Y389852D01*
X489232Y389016D01*
Y388150D01*
X489456Y387314D01*
X489889Y386564D01*
X490501Y385952D01*
X491251Y385519D01*
X492087Y385295D01*
X492952D01*
X493789Y385519D01*
X494538Y385952D01*
X495150Y386564D01*
X495583Y387314D01*
X495807Y388150D01*
Y389016D01*
X495583Y389852D01*
X495150Y390601D01*
X494538Y391213D01*
X493789Y391646D01*
X492952Y391870D01*
D02*
G37*
G36*
X414212D02*
X413347D01*
X412511Y391646D01*
X411761Y391213D01*
X411149Y390601D01*
X410716Y389852D01*
X410492Y389016D01*
Y388150D01*
X410716Y387314D01*
X411149Y386564D01*
X411761Y385952D01*
X412511Y385519D01*
X413347Y385295D01*
X414212D01*
X415048Y385519D01*
X415798Y385952D01*
X416410Y386564D01*
X416843Y387314D01*
X417067Y388150D01*
Y389016D01*
X416843Y389852D01*
X416410Y390601D01*
X415798Y391213D01*
X415048Y391646D01*
X414212Y391870D01*
D02*
G37*
G36*
X335472D02*
X334607D01*
X333770Y391646D01*
X333021Y391213D01*
X332409Y390601D01*
X331976Y389852D01*
X331752Y389016D01*
Y388150D01*
X331976Y387314D01*
X332409Y386564D01*
X333021Y385952D01*
X333770Y385519D01*
X334607Y385295D01*
X335472D01*
X336308Y385519D01*
X337058Y385952D01*
X337670Y386564D01*
X338103Y387314D01*
X338327Y388150D01*
Y389016D01*
X338103Y389852D01*
X337670Y390601D01*
X337058Y391213D01*
X336308Y391646D01*
X335472Y391870D01*
D02*
G37*
G36*
X177992D02*
X177126D01*
X176290Y391646D01*
X175540Y391213D01*
X174928Y390601D01*
X174496Y389852D01*
X174272Y389016D01*
Y388150D01*
X174496Y387314D01*
X174928Y386564D01*
X175540Y385952D01*
X176290Y385519D01*
X177126Y385295D01*
X177992D01*
X178828Y385519D01*
X179578Y385952D01*
X180190Y386564D01*
X180622Y387314D01*
X180847Y388150D01*
Y389016D01*
X180622Y389852D01*
X180190Y390601D01*
X179578Y391213D01*
X178828Y391646D01*
X177992Y391870D01*
D02*
G37*
G36*
X41551Y390376D02*
Y384071D01*
X47857D01*
X47629Y385218D01*
X47074Y386557D01*
X46268Y387763D01*
X45243Y388788D01*
X44038Y389593D01*
X42698Y390148D01*
X41551Y390376D01*
D02*
G37*
G36*
X39551D02*
X38404Y390148D01*
X37065Y389593D01*
X35859Y388788D01*
X34834Y387763D01*
X34029Y386557D01*
X33474Y385218D01*
X33246Y384071D01*
X39551D01*
Y390376D01*
D02*
G37*
G36*
X23047Y390376D02*
Y384071D01*
X29353D01*
X29125Y385218D01*
X28570Y386557D01*
X27764Y387763D01*
X26739Y388788D01*
X25534Y389593D01*
X24194Y390148D01*
X23047Y390376D01*
D02*
G37*
G36*
X21047D02*
X19900Y390148D01*
X18561Y389593D01*
X17355Y388788D01*
X16330Y387763D01*
X15525Y386557D01*
X14970Y385218D01*
X14742Y384071D01*
X21047D01*
Y390376D01*
D02*
G37*
G36*
X87045Y386417D02*
X86184D01*
X85388Y386088D01*
X84778Y385478D01*
X84449Y384683D01*
Y383821D01*
X84778Y383025D01*
X85388Y382416D01*
X86184Y382087D01*
X87045D01*
X87841Y382416D01*
X88450Y383025D01*
X88779Y383821D01*
Y384683D01*
X88450Y385478D01*
X87841Y386088D01*
X87045Y386417D01*
D02*
G37*
G36*
X440380Y388242D02*
X431522D01*
Y379383D01*
X440380D01*
Y388242D01*
D02*
G37*
G36*
X204160D02*
X195301D01*
Y379383D01*
X204160D01*
Y388242D01*
D02*
G37*
G36*
X164789D02*
X155931D01*
Y379383D01*
X164789D01*
Y388242D01*
D02*
G37*
G36*
X519120Y388242D02*
X510262D01*
Y379383D01*
X519120D01*
Y388242D01*
D02*
G37*
G36*
X479750D02*
X470892D01*
Y379383D01*
X479750D01*
Y388242D01*
D02*
G37*
G36*
X401010D02*
X392152D01*
Y379383D01*
X401010D01*
Y388242D01*
D02*
G37*
G36*
X361640D02*
X352782D01*
Y379383D01*
X361640D01*
Y388242D01*
D02*
G37*
G36*
X322270D02*
X313411D01*
Y379383D01*
X322270D01*
Y388242D01*
D02*
G37*
G36*
X282900D02*
X274042D01*
Y379383D01*
X282900D01*
Y388242D01*
D02*
G37*
G36*
X243530D02*
X234671D01*
Y379383D01*
X243530D01*
Y388242D01*
D02*
G37*
G36*
X62638Y385571D02*
X61772D01*
X60936Y385347D01*
X60186Y384914D01*
X59574Y384302D01*
X59141Y383552D01*
X58917Y382716D01*
Y381851D01*
X59141Y381015D01*
X59574Y380265D01*
X60186Y379653D01*
X60936Y379220D01*
X61772Y378996D01*
X62638D01*
X63474Y379220D01*
X64223Y379653D01*
X64835Y380265D01*
X65268Y381015D01*
X65492Y381851D01*
Y382716D01*
X65268Y383552D01*
X64835Y384302D01*
X64223Y384914D01*
X63474Y385347D01*
X62638Y385571D01*
D02*
G37*
G36*
X47857Y382071D02*
X41551D01*
Y375765D01*
X42698Y375993D01*
X44038Y376548D01*
X45243Y377354D01*
X46268Y378379D01*
X47074Y379585D01*
X47629Y380924D01*
X47857Y382071D01*
D02*
G37*
G36*
X39551D02*
X33246D01*
X33474Y380924D01*
X34029Y379585D01*
X34834Y378379D01*
X35859Y377354D01*
X37065Y376548D01*
X38404Y375993D01*
X39551Y375765D01*
Y382071D01*
D02*
G37*
G36*
X29353Y382071D02*
X23047D01*
Y375765D01*
X24194Y375993D01*
X25534Y376548D01*
X26739Y377354D01*
X27764Y378379D01*
X28570Y379585D01*
X29125Y380924D01*
X29353Y382071D01*
D02*
G37*
G36*
X21047D02*
X14742D01*
X14970Y380924D01*
X15525Y379585D01*
X16330Y378379D01*
X17355Y377354D01*
X18561Y376548D01*
X19900Y375993D01*
X21047Y375765D01*
Y382071D01*
D02*
G37*
G36*
X61848Y377756D02*
X60987D01*
X60191Y377426D01*
X59582Y376817D01*
X59252Y376021D01*
Y375160D01*
X59582Y374364D01*
X60191Y373755D01*
X60987Y373425D01*
X61848D01*
X62644Y373755D01*
X63253Y374364D01*
X63583Y375160D01*
Y376021D01*
X63253Y376817D01*
X62644Y377426D01*
X61848Y377756D01*
D02*
G37*
G36*
X54761Y375394D02*
X53900D01*
X53104Y375064D01*
X52495Y374455D01*
X52165Y373659D01*
Y372798D01*
X52495Y372002D01*
X53104Y371393D01*
X53900Y371063D01*
X54761D01*
X55557Y371393D01*
X56166Y372002D01*
X56496Y372798D01*
Y373659D01*
X56166Y374455D01*
X55557Y375064D01*
X54761Y375394D01*
D02*
G37*
G36*
X44527Y374153D02*
X43662D01*
X42826Y373930D01*
X42076Y373497D01*
X41464Y372885D01*
X41031Y372135D01*
X40807Y371299D01*
Y370433D01*
X41031Y369597D01*
X41464Y368848D01*
X42076Y368236D01*
X42257Y368131D01*
X42272Y367786D01*
X41839Y367443D01*
X41771Y367461D01*
X40906D01*
X40070Y367237D01*
X39320Y366804D01*
X38708Y366192D01*
X38275Y365442D01*
X38051Y364606D01*
Y363740D01*
X38275Y362904D01*
X38708Y362155D01*
X39320Y361543D01*
X40070Y361110D01*
X40906Y360886D01*
X41750D01*
X41797Y360835D01*
X42001Y360430D01*
X41858Y360286D01*
X41425Y359537D01*
X41201Y358700D01*
Y357835D01*
X41425Y356999D01*
X41858Y356249D01*
X42470Y355637D01*
X43219Y355204D01*
X44055Y354980D01*
X44921D01*
X45757Y355204D01*
X46507Y355637D01*
X47119Y356249D01*
X47552Y356999D01*
X47776Y357835D01*
Y358700D01*
X47760Y358757D01*
X48065Y359154D01*
X52854D01*
Y369587D01*
X47673D01*
X47289Y370087D01*
X47382Y370433D01*
Y371299D01*
X47158Y372135D01*
X46725Y372885D01*
X46113Y373497D01*
X45363Y373930D01*
X44527Y374153D01*
D02*
G37*
G36*
X25016Y374223D02*
Y365370D01*
X33868D01*
X33495Y367246D01*
X32752Y369040D01*
X31673Y370654D01*
X30300Y372027D01*
X28685Y373106D01*
X26891Y373850D01*
X25016Y374223D01*
D02*
G37*
G36*
X23016D02*
X21140Y373850D01*
X19346Y373106D01*
X17731Y372027D01*
X16358Y370654D01*
X15279Y369040D01*
X14536Y367246D01*
X14163Y365370D01*
X23016D01*
Y374223D01*
D02*
G37*
G36*
X436951Y368665D02*
Y365127D01*
X440488D01*
X440276Y365919D01*
X439665Y366978D01*
X438801Y367842D01*
X437743Y368453D01*
X436951Y368665D01*
D02*
G37*
G36*
X358211D02*
Y365127D01*
X361748D01*
X361536Y365919D01*
X360925Y366978D01*
X360061Y367842D01*
X359002Y368453D01*
X358211Y368665D01*
D02*
G37*
G36*
X515691D02*
Y365127D01*
X519229D01*
X519017Y365919D01*
X518405Y366978D01*
X517541Y367842D01*
X516483Y368453D01*
X515691Y368665D01*
D02*
G37*
G36*
X434951D02*
X434159Y368453D01*
X433101Y367842D01*
X432237Y366978D01*
X431626Y365919D01*
X431413Y365127D01*
X434951D01*
Y368665D01*
D02*
G37*
G36*
X356211D02*
X355419Y368453D01*
X354361Y367842D01*
X353497Y366978D01*
X352885Y365919D01*
X352673Y365127D01*
X356211D01*
Y368665D01*
D02*
G37*
G36*
X513691D02*
X512899Y368453D01*
X511841Y367842D01*
X510977Y366978D01*
X510366Y365919D01*
X510154Y365127D01*
X513691D01*
Y368665D01*
D02*
G37*
G36*
X200730Y368665D02*
Y365127D01*
X204268D01*
X204056Y365919D01*
X203445Y366978D01*
X202580Y367842D01*
X201522Y368453D01*
X200730Y368665D01*
D02*
G37*
G36*
X279471Y368665D02*
Y365127D01*
X283008D01*
X282796Y365919D01*
X282185Y366978D01*
X281321Y367842D01*
X280262Y368453D01*
X279471Y368665D01*
D02*
G37*
G36*
X277471D02*
X276679Y368453D01*
X275621Y367842D01*
X274756Y366978D01*
X274145Y365919D01*
X273933Y365127D01*
X277471D01*
Y368665D01*
D02*
G37*
G36*
X198730Y368665D02*
X197939Y368453D01*
X196880Y367842D01*
X196016Y366978D01*
X195405Y365919D01*
X195193Y365127D01*
X198730D01*
Y368665D01*
D02*
G37*
G36*
X474321Y368665D02*
X473529Y368453D01*
X472471Y367842D01*
X471607Y366978D01*
X470996Y365919D01*
X470784Y365127D01*
X474321D01*
Y368665D01*
D02*
G37*
G36*
X395581D02*
X394789Y368453D01*
X393731Y367842D01*
X392866Y366978D01*
X392255Y365919D01*
X392043Y365127D01*
X395581D01*
Y368665D01*
D02*
G37*
G36*
X316841D02*
X316049Y368453D01*
X314991Y367842D01*
X314126Y366978D01*
X313515Y365919D01*
X313303Y365127D01*
X316841D01*
Y368665D01*
D02*
G37*
G36*
X238101Y368665D02*
X237309Y368453D01*
X236250Y367842D01*
X235386Y366978D01*
X234775Y365919D01*
X234563Y365127D01*
X238101D01*
Y368665D01*
D02*
G37*
G36*
X159360Y368665D02*
X158569Y368453D01*
X157510Y367842D01*
X156646Y366978D01*
X156035Y365919D01*
X155823Y365127D01*
X159360D01*
Y368665D01*
D02*
G37*
G36*
X57911Y365551D02*
X57050D01*
X56254Y365222D01*
X55645Y364612D01*
X55315Y363816D01*
Y362955D01*
X55645Y362159D01*
X56254Y361550D01*
X57050Y361221D01*
X57911D01*
X58707Y361550D01*
X59316Y362159D01*
X59646Y362955D01*
Y363816D01*
X59316Y364612D01*
X58707Y365222D01*
X57911Y365551D01*
D02*
G37*
G36*
X476321Y368665D02*
Y364127D01*
Y359590D01*
X477113Y359802D01*
X478171Y360413D01*
X479035Y361277D01*
X479646Y362336D01*
X479963Y363516D01*
Y363906D01*
X480463Y364113D01*
X480663Y363912D01*
X481459Y363583D01*
X482320D01*
X482612Y363703D01*
X482995Y363321D01*
X482874Y363029D01*
Y362168D01*
X483204Y361372D01*
X483813Y360763D01*
X484609Y360433D01*
X485470D01*
X486266Y360763D01*
X486875Y361372D01*
X487205Y362168D01*
Y363029D01*
X486875Y363825D01*
X486266Y364434D01*
X485470Y364764D01*
X484609D01*
X484317Y364643D01*
X483934Y365026D01*
X484055Y365317D01*
Y366179D01*
X483725Y366975D01*
X483116Y367584D01*
X482320Y367913D01*
X481459D01*
X480663Y367584D01*
X480054Y366975D01*
X479870Y366531D01*
X479314Y366495D01*
X479035Y366978D01*
X478171Y367842D01*
X477113Y368453D01*
X476321Y368665D01*
D02*
G37*
G36*
X397581D02*
Y364127D01*
Y359590D01*
X398373Y359802D01*
X399431Y360413D01*
X400295Y361277D01*
X400906Y362336D01*
X401223Y363516D01*
Y363906D01*
X401723Y364113D01*
X401923Y363912D01*
X402719Y363583D01*
X403580D01*
X403872Y363703D01*
X404255Y363321D01*
X404134Y363029D01*
Y362168D01*
X404463Y361372D01*
X405073Y360763D01*
X405868Y360433D01*
X406730D01*
X407526Y360763D01*
X408135Y361372D01*
X408465Y362168D01*
Y363029D01*
X408135Y363825D01*
X407526Y364434D01*
X406730Y364764D01*
X405868D01*
X405577Y364643D01*
X405194Y365026D01*
X405315Y365317D01*
Y366179D01*
X404985Y366975D01*
X404376Y367584D01*
X403580Y367913D01*
X402719D01*
X401923Y367584D01*
X401314Y366975D01*
X401130Y366531D01*
X400574Y366495D01*
X400295Y366978D01*
X399431Y367842D01*
X398373Y368453D01*
X397581Y368665D01*
D02*
G37*
G36*
X318841D02*
Y364127D01*
Y359590D01*
X319632Y359802D01*
X320691Y360413D01*
X321555Y361277D01*
X322166Y362336D01*
X322482Y363516D01*
Y363906D01*
X322982Y364113D01*
X323183Y363912D01*
X323979Y363583D01*
X324840D01*
X325132Y363703D01*
X325515Y363321D01*
X325394Y363029D01*
Y362168D01*
X325723Y361372D01*
X326332Y360763D01*
X327128Y360433D01*
X327990D01*
X328786Y360763D01*
X329395Y361372D01*
X329724Y362168D01*
Y363029D01*
X329395Y363825D01*
X328786Y364434D01*
X327990Y364764D01*
X327128D01*
X326837Y364643D01*
X326454Y365026D01*
X326575Y365317D01*
Y366179D01*
X326245Y366975D01*
X325636Y367584D01*
X324840Y367913D01*
X323979D01*
X323183Y367584D01*
X322574Y366975D01*
X322390Y366531D01*
X321834Y366495D01*
X321555Y366978D01*
X320691Y367842D01*
X319632Y368453D01*
X318841Y368665D01*
D02*
G37*
G36*
X240101D02*
Y364127D01*
Y359590D01*
X240892Y359802D01*
X241951Y360413D01*
X242815Y361277D01*
X243426Y362336D01*
X243742Y363516D01*
Y363906D01*
X244242Y364113D01*
X244443Y363912D01*
X245239Y363583D01*
X246100D01*
X246392Y363703D01*
X246774Y363321D01*
X246654Y363029D01*
Y362168D01*
X246983Y361372D01*
X247592Y360763D01*
X248388Y360433D01*
X249250D01*
X250045Y360763D01*
X250655Y361372D01*
X250984Y362168D01*
Y363029D01*
X250655Y363825D01*
X250045Y364434D01*
X249250Y364764D01*
X248388D01*
X248096Y364643D01*
X247714Y365026D01*
X247835Y365317D01*
Y366179D01*
X247505Y366975D01*
X246896Y367584D01*
X246100Y367913D01*
X245239D01*
X244443Y367584D01*
X243834Y366975D01*
X243650Y366531D01*
X243094Y366495D01*
X242815Y366978D01*
X241951Y367842D01*
X240892Y368453D01*
X240101Y368665D01*
D02*
G37*
G36*
X161360Y368665D02*
Y364127D01*
Y359590D01*
X162152Y359802D01*
X163210Y360413D01*
X164075Y361277D01*
X164686Y362336D01*
X165002Y363516D01*
Y363906D01*
X165502Y364113D01*
X165702Y363912D01*
X166498Y363583D01*
X167360D01*
X167651Y363703D01*
X168034Y363321D01*
X167913Y363029D01*
Y362168D01*
X168243Y361372D01*
X168852Y360763D01*
X169648Y360433D01*
X170509D01*
X171305Y360763D01*
X171914Y361372D01*
X172244Y362168D01*
Y363029D01*
X171914Y363825D01*
X171305Y364434D01*
X170509Y364764D01*
X169648D01*
X169356Y364643D01*
X168974Y365026D01*
X169095Y365317D01*
Y366179D01*
X168765Y366975D01*
X168156Y367584D01*
X167360Y367913D01*
X166498D01*
X165702Y367584D01*
X165093Y366975D01*
X164910Y366531D01*
X164353Y366495D01*
X164075Y366978D01*
X163210Y367842D01*
X162152Y368453D01*
X161360Y368665D01*
D02*
G37*
G36*
X159360Y363127D02*
X155823D01*
X156035Y362336D01*
X156646Y361277D01*
X157510Y360413D01*
X158569Y359802D01*
X159360Y359590D01*
Y363127D01*
D02*
G37*
G36*
X204268Y363127D02*
X200730D01*
Y359590D01*
X201522Y359802D01*
X202580Y360413D01*
X203445Y361277D01*
X204056Y362336D01*
X204268Y363127D01*
D02*
G37*
G36*
X198730D02*
X195193D01*
X195405Y362336D01*
X196016Y361277D01*
X196880Y360413D01*
X197939Y359802D01*
X198730Y359590D01*
Y363127D01*
D02*
G37*
G36*
X238101Y363127D02*
X234563D01*
X234775Y362336D01*
X235386Y361277D01*
X236250Y360413D01*
X237309Y359802D01*
X238101Y359590D01*
Y363127D01*
D02*
G37*
G36*
X474321Y363127D02*
X470783D01*
X470996Y362336D01*
X471607Y361277D01*
X472471Y360413D01*
X473529Y359802D01*
X474321Y359590D01*
Y363127D01*
D02*
G37*
G36*
X395581D02*
X392043D01*
X392255Y362336D01*
X392866Y361277D01*
X393731Y360413D01*
X394789Y359802D01*
X395581Y359590D01*
Y363127D01*
D02*
G37*
G36*
X316841D02*
X313303D01*
X313515Y362336D01*
X314126Y361277D01*
X314991Y360413D01*
X316049Y359802D01*
X316841Y359590D01*
Y363127D01*
D02*
G37*
G36*
X277471Y363127D02*
X273933D01*
X274145Y362336D01*
X274756Y361277D01*
X275621Y360413D01*
X276679Y359802D01*
X277471Y359590D01*
Y363127D01*
D02*
G37*
G36*
X519229Y363127D02*
X515691D01*
Y359590D01*
X516483Y359802D01*
X517541Y360413D01*
X518405Y361277D01*
X519017Y362336D01*
X519229Y363127D01*
D02*
G37*
G36*
X440488D02*
X436951D01*
Y359590D01*
X437743Y359802D01*
X438801Y360413D01*
X439665Y361277D01*
X440276Y362336D01*
X440488Y363127D01*
D02*
G37*
G36*
X361748D02*
X358211D01*
Y359590D01*
X359002Y359802D01*
X360061Y360413D01*
X360925Y361277D01*
X361536Y362336D01*
X361748Y363127D01*
D02*
G37*
G36*
X513691D02*
X510153D01*
X510366Y362336D01*
X510977Y361277D01*
X511841Y360413D01*
X512899Y359802D01*
X513691Y359590D01*
Y363127D01*
D02*
G37*
G36*
X434951D02*
X431413D01*
X431626Y362336D01*
X432237Y361277D01*
X433101Y360413D01*
X434159Y359802D01*
X434951Y359590D01*
Y363127D01*
D02*
G37*
G36*
X356211D02*
X352673D01*
X352885Y362336D01*
X353497Y361277D01*
X354361Y360413D01*
X355419Y359802D01*
X356211Y359590D01*
Y363127D01*
D02*
G37*
G36*
X283008Y363127D02*
X279471D01*
Y359590D01*
X280262Y359802D01*
X281321Y360413D01*
X282185Y361277D01*
X282796Y362336D01*
X283008Y363127D01*
D02*
G37*
G36*
X33868Y363370D02*
X25016D01*
Y354518D01*
X26891Y354891D01*
X28685Y355634D01*
X30300Y356713D01*
X31673Y358086D01*
X32752Y359700D01*
X33495Y361494D01*
X33868Y363370D01*
D02*
G37*
G36*
X23016D02*
X14163D01*
X14536Y361494D01*
X15279Y359700D01*
X16358Y358086D01*
X17731Y356713D01*
X19346Y355634D01*
X21140Y354891D01*
X23016Y354518D01*
Y363370D01*
D02*
G37*
G36*
X257126Y356043D02*
X256260D01*
X255424Y355819D01*
X254674Y355386D01*
X254062Y354774D01*
X253629Y354025D01*
X253405Y353189D01*
Y352323D01*
X253629Y351487D01*
X254062Y350737D01*
X254674Y350125D01*
X255424Y349693D01*
X256260Y349468D01*
X257126D01*
X257962Y349693D01*
X258711Y350125D01*
X259324Y350737D01*
X259756Y351487D01*
X259980Y352323D01*
Y353189D01*
X259756Y354025D01*
X259324Y354774D01*
X258711Y355386D01*
X257962Y355819D01*
X257126Y356043D01*
D02*
G37*
G36*
X178116Y354423D02*
X177250D01*
X176414Y354199D01*
X175665Y353766D01*
X175053Y353154D01*
X174620Y352404D01*
X174396Y351568D01*
Y350703D01*
X174620Y349867D01*
X175053Y349117D01*
X175665Y348505D01*
X176414Y348072D01*
X177250Y347848D01*
X178116D01*
X178952Y348072D01*
X179702Y348505D01*
X180314Y349117D01*
X180747Y349867D01*
X180971Y350703D01*
Y351568D01*
X180747Y352404D01*
X180314Y353154D01*
X179702Y353766D01*
X178952Y354199D01*
X178116Y354423D01*
D02*
G37*
G36*
X493077Y354423D02*
X492211D01*
X491375Y354199D01*
X490625Y353766D01*
X490013Y353154D01*
X489580Y352404D01*
X489356Y351568D01*
Y350703D01*
X489580Y349866D01*
X490013Y349117D01*
X490625Y348505D01*
X491375Y348072D01*
X492211Y347848D01*
X493077D01*
X493913Y348072D01*
X494662Y348505D01*
X495274Y349117D01*
X495707Y349866D01*
X495931Y350703D01*
Y351568D01*
X495707Y352404D01*
X495274Y353154D01*
X494662Y353766D01*
X493913Y354199D01*
X493077Y354423D01*
D02*
G37*
G36*
X414336D02*
X413471D01*
X412635Y354199D01*
X411885Y353766D01*
X411273Y353154D01*
X410840Y352404D01*
X410616Y351568D01*
Y350703D01*
X410840Y349866D01*
X411273Y349117D01*
X411885Y348505D01*
X412635Y348072D01*
X413471Y347848D01*
X414336D01*
X415172Y348072D01*
X415922Y348505D01*
X416534Y349117D01*
X416967Y349866D01*
X417191Y350703D01*
Y351568D01*
X416967Y352404D01*
X416534Y353154D01*
X415922Y353766D01*
X415172Y354199D01*
X414336Y354423D01*
D02*
G37*
G36*
X335596D02*
X334731D01*
X333895Y354199D01*
X333145Y353766D01*
X332533Y353154D01*
X332100Y352404D01*
X331876Y351568D01*
Y350703D01*
X332100Y349866D01*
X332533Y349117D01*
X333145Y348505D01*
X333895Y348072D01*
X334731Y347848D01*
X335596D01*
X336432Y348072D01*
X337182Y348505D01*
X337794Y349117D01*
X338227Y349866D01*
X338451Y350703D01*
Y351568D01*
X338227Y352404D01*
X337794Y353154D01*
X337182Y353766D01*
X336432Y354199D01*
X335596Y354423D01*
D02*
G37*
G36*
X23047Y352975D02*
Y346669D01*
X29353D01*
X29125Y347816D01*
X28570Y349156D01*
X27764Y350361D01*
X26739Y351386D01*
X25534Y352192D01*
X24194Y352747D01*
X23047Y352975D01*
D02*
G37*
G36*
X21047D02*
X19900Y352747D01*
X18561Y352192D01*
X17355Y351386D01*
X16330Y350361D01*
X15525Y349156D01*
X14970Y347816D01*
X14742Y346669D01*
X21047D01*
Y352975D01*
D02*
G37*
G36*
X41551Y352975D02*
Y346669D01*
X47857D01*
X47629Y347816D01*
X47074Y349156D01*
X46268Y350361D01*
X45243Y351386D01*
X44038Y352192D01*
X42698Y352747D01*
X41551Y352975D01*
D02*
G37*
G36*
X39551D02*
X38404Y352747D01*
X37065Y352192D01*
X35859Y351386D01*
X34834Y350361D01*
X34029Y349156D01*
X33474Y347816D01*
X33246Y346669D01*
X39551D01*
Y352975D01*
D02*
G37*
G36*
X204160Y348872D02*
X195301D01*
Y340013D01*
X204160D01*
Y348872D01*
D02*
G37*
G36*
X164789D02*
X155931D01*
Y340013D01*
X164789D01*
Y348872D01*
D02*
G37*
G36*
X519120Y348872D02*
X510262D01*
Y340013D01*
X519120D01*
Y348872D01*
D02*
G37*
G36*
X479750D02*
X470892D01*
Y340013D01*
X479750D01*
Y348872D01*
D02*
G37*
G36*
X440380D02*
X431522D01*
Y340013D01*
X440380D01*
Y348872D01*
D02*
G37*
G36*
X401010D02*
X392152D01*
Y340013D01*
X401010D01*
Y348872D01*
D02*
G37*
G36*
X361640D02*
X352782D01*
Y340013D01*
X361640D01*
Y348872D01*
D02*
G37*
G36*
X322270D02*
X313411D01*
Y340013D01*
X322270D01*
Y348872D01*
D02*
G37*
G36*
X282900D02*
X274042D01*
Y340013D01*
X282900D01*
Y348872D01*
D02*
G37*
G36*
X243530D02*
X234671D01*
Y340013D01*
X243530D01*
Y348872D01*
D02*
G37*
G36*
X29353Y344669D02*
X23047D01*
Y338364D01*
X24194Y338592D01*
X25534Y339147D01*
X26739Y339952D01*
X27764Y340977D01*
X28570Y342183D01*
X29125Y343522D01*
X29353Y344669D01*
D02*
G37*
G36*
X21047D02*
X14742D01*
X14970Y343522D01*
X15525Y342183D01*
X16330Y340977D01*
X17355Y339952D01*
X18561Y339147D01*
X19900Y338592D01*
X21047Y338364D01*
Y344669D01*
D02*
G37*
G36*
X47857Y344669D02*
X41551D01*
Y338364D01*
X42698Y338592D01*
X44038Y339147D01*
X45243Y339952D01*
X46268Y340977D01*
X47074Y342183D01*
X47629Y343522D01*
X47857Y344669D01*
D02*
G37*
G36*
X39551D02*
X33246D01*
X33474Y343522D01*
X34029Y342183D01*
X34834Y340977D01*
X35859Y339952D01*
X37065Y339147D01*
X38404Y338592D01*
X39551Y338364D01*
Y344669D01*
D02*
G37*
G36*
X83110Y339508D02*
X82244D01*
X81408Y339284D01*
X80659Y338851D01*
X80047Y338239D01*
X79614Y337489D01*
X79390Y336653D01*
Y335788D01*
X79502Y335369D01*
X79404Y335224D01*
X79086Y334990D01*
X78386Y335177D01*
X77520D01*
X76684Y334953D01*
X75934Y334520D01*
X75322Y333908D01*
X74889Y333159D01*
X74665Y332323D01*
Y331457D01*
X74889Y330621D01*
X75322Y329871D01*
X75934Y329259D01*
X76684Y328826D01*
X77520Y328602D01*
X78386D01*
X79222Y328826D01*
X79971Y329259D01*
X80583Y329871D01*
X81016Y330621D01*
X81240Y331457D01*
Y332323D01*
X81128Y332742D01*
X81226Y332887D01*
X81544Y333121D01*
X82244Y332933D01*
X83110D01*
X83946Y333157D01*
X84696Y333590D01*
X85308Y334202D01*
X85741Y334952D01*
X85965Y335788D01*
Y336653D01*
X85741Y337489D01*
X85308Y338239D01*
X84696Y338851D01*
X83946Y339284D01*
X83110Y339508D01*
D02*
G37*
G36*
X48462Y331594D02*
X47601D01*
X46805Y331265D01*
X46196Y330656D01*
X45866Y329860D01*
Y328998D01*
X46196Y328203D01*
X46805Y327593D01*
X47601Y327264D01*
X48462D01*
X49258Y327593D01*
X49867Y328203D01*
X50197Y328998D01*
Y329860D01*
X49867Y330656D01*
X49258Y331265D01*
X48462Y331594D01*
D02*
G37*
G36*
X436951Y329295D02*
Y325757D01*
X440488D01*
X440276Y326549D01*
X439665Y327607D01*
X438801Y328472D01*
X437743Y329083D01*
X436951Y329295D01*
D02*
G37*
G36*
X358211D02*
Y325757D01*
X361748D01*
X361536Y326549D01*
X360925Y327607D01*
X360061Y328472D01*
X359002Y329083D01*
X358211Y329295D01*
D02*
G37*
G36*
X515691D02*
Y325757D01*
X519229D01*
X519017Y326549D01*
X518405Y327607D01*
X517541Y328472D01*
X516483Y329083D01*
X515691Y329295D01*
D02*
G37*
G36*
X513691D02*
X512899Y329083D01*
X511841Y328472D01*
X510977Y327607D01*
X510366Y326549D01*
X510154Y325757D01*
X513691D01*
Y329295D01*
D02*
G37*
G36*
X434951D02*
X434159Y329083D01*
X433101Y328472D01*
X432237Y327607D01*
X431626Y326549D01*
X431413Y325757D01*
X434951D01*
Y329295D01*
D02*
G37*
G36*
X356211D02*
X355419Y329083D01*
X354361Y328472D01*
X353497Y327607D01*
X352885Y326549D01*
X352673Y325757D01*
X356211D01*
Y329295D01*
D02*
G37*
G36*
X200730Y329295D02*
Y325757D01*
X204268D01*
X204056Y326549D01*
X203445Y327607D01*
X202580Y328472D01*
X201522Y329083D01*
X200730Y329295D01*
D02*
G37*
G36*
X279471Y329295D02*
Y325757D01*
X283008D01*
X282796Y326549D01*
X282185Y327607D01*
X281321Y328472D01*
X280262Y329083D01*
X279471Y329295D01*
D02*
G37*
G36*
X277471D02*
X276679Y329083D01*
X275621Y328472D01*
X274756Y327607D01*
X274145Y326549D01*
X273933Y325757D01*
X277471D01*
Y329295D01*
D02*
G37*
G36*
X198730Y329295D02*
X197939Y329083D01*
X196880Y328472D01*
X196016Y327607D01*
X195405Y326549D01*
X195193Y325757D01*
X198730D01*
Y329295D01*
D02*
G37*
G36*
X474321Y329295D02*
X473529Y329083D01*
X472471Y328472D01*
X471607Y327607D01*
X470996Y326549D01*
X470784Y325757D01*
X474321D01*
Y329295D01*
D02*
G37*
G36*
X395581D02*
X394789Y329083D01*
X393731Y328472D01*
X392866Y327607D01*
X392255Y326549D01*
X392043Y325757D01*
X395581D01*
Y329295D01*
D02*
G37*
G36*
X316841D02*
X316049Y329083D01*
X314991Y328472D01*
X314126Y327607D01*
X313515Y326549D01*
X313303Y325757D01*
X316841D01*
Y329295D01*
D02*
G37*
G36*
X238101Y329295D02*
X237309Y329083D01*
X236250Y328472D01*
X235386Y327607D01*
X234775Y326549D01*
X234563Y325757D01*
X238101D01*
Y329295D01*
D02*
G37*
G36*
X159360Y329295D02*
X158569Y329083D01*
X157510Y328472D01*
X156646Y327607D01*
X156035Y326549D01*
X155823Y325757D01*
X159360D01*
Y329295D01*
D02*
G37*
G36*
X73267Y330059D02*
X72402D01*
X71566Y329835D01*
X70816Y329402D01*
X70204Y328790D01*
X69771Y328041D01*
X69547Y327204D01*
Y326339D01*
X69771Y325503D01*
X70204Y324753D01*
X70816Y324141D01*
X71566Y323708D01*
X72402Y323484D01*
X73267D01*
X74103Y323708D01*
X74853Y324141D01*
X75465Y324753D01*
X75898Y325503D01*
X76122Y326339D01*
Y327204D01*
X75898Y328041D01*
X75465Y328790D01*
X74853Y329402D01*
X74103Y329835D01*
X73267Y330059D01*
D02*
G37*
G36*
X12244Y329665D02*
X11378D01*
X10542Y329441D01*
X9792Y329009D01*
X9180Y328397D01*
X8748Y327647D01*
X8524Y326811D01*
Y325945D01*
X8748Y325109D01*
X9180Y324359D01*
X9792Y323747D01*
X10542Y323315D01*
X11378Y323091D01*
X12244D01*
X13080Y323315D01*
X13829Y323747D01*
X14442Y324359D01*
X14874Y325109D01*
X15098Y325945D01*
Y326811D01*
X14874Y327647D01*
X14442Y328397D01*
X13829Y329009D01*
X13080Y329441D01*
X12244Y329665D01*
D02*
G37*
G36*
X476321Y329295D02*
Y324757D01*
Y320220D01*
X477113Y320432D01*
X478171Y321043D01*
X479035Y321907D01*
X479646Y322966D01*
X479963Y324146D01*
Y324536D01*
X480463Y324743D01*
X480663Y324542D01*
X481459Y324213D01*
X482320D01*
X482612Y324333D01*
X482995Y323951D01*
X482874Y323659D01*
Y322798D01*
X483204Y322002D01*
X483813Y321393D01*
X484609Y321063D01*
X485470D01*
X486266Y321393D01*
X486875Y322002D01*
X487205Y322798D01*
Y323659D01*
X486875Y324455D01*
X486266Y325064D01*
X485470Y325394D01*
X484609D01*
X484317Y325273D01*
X483934Y325656D01*
X484055Y325947D01*
Y326809D01*
X483725Y327605D01*
X483116Y328214D01*
X482320Y328543D01*
X481459D01*
X480663Y328214D01*
X480054Y327605D01*
X479870Y327161D01*
X479314Y327125D01*
X479035Y327607D01*
X478171Y328472D01*
X477113Y329083D01*
X476321Y329295D01*
D02*
G37*
G36*
X397581D02*
Y324757D01*
Y320220D01*
X398373Y320432D01*
X399431Y321043D01*
X400295Y321907D01*
X400906Y322966D01*
X401223Y324146D01*
Y324536D01*
X401723Y324743D01*
X401923Y324542D01*
X402719Y324213D01*
X403580D01*
X403872Y324333D01*
X404255Y323951D01*
X404134Y323659D01*
Y322798D01*
X404463Y322002D01*
X405073Y321393D01*
X405868Y321063D01*
X406730D01*
X407526Y321393D01*
X408135Y322002D01*
X408465Y322798D01*
Y323659D01*
X408135Y324455D01*
X407526Y325064D01*
X406730Y325394D01*
X405868D01*
X405577Y325273D01*
X405194Y325656D01*
X405315Y325947D01*
Y326809D01*
X404985Y327605D01*
X404376Y328214D01*
X403580Y328543D01*
X402719D01*
X401923Y328214D01*
X401314Y327605D01*
X401130Y327161D01*
X400574Y327125D01*
X400295Y327607D01*
X399431Y328472D01*
X398373Y329083D01*
X397581Y329295D01*
D02*
G37*
G36*
X318841D02*
Y324757D01*
Y320220D01*
X319632Y320432D01*
X320691Y321043D01*
X321555Y321907D01*
X322166Y322966D01*
X322482Y324146D01*
Y324536D01*
X322982Y324743D01*
X323183Y324542D01*
X323979Y324213D01*
X324840D01*
X325132Y324333D01*
X325515Y323951D01*
X325394Y323659D01*
Y322798D01*
X325723Y322002D01*
X326332Y321393D01*
X327128Y321063D01*
X327990D01*
X328786Y321393D01*
X329395Y322002D01*
X329724Y322798D01*
Y323659D01*
X329395Y324455D01*
X328786Y325064D01*
X327990Y325394D01*
X327128D01*
X326837Y325273D01*
X326454Y325656D01*
X326575Y325947D01*
Y326809D01*
X326245Y327605D01*
X325636Y328214D01*
X324840Y328543D01*
X323979D01*
X323183Y328214D01*
X322574Y327605D01*
X322390Y327161D01*
X321834Y327125D01*
X321555Y327607D01*
X320691Y328472D01*
X319632Y329083D01*
X318841Y329295D01*
D02*
G37*
G36*
X240101D02*
Y324757D01*
Y320220D01*
X240892Y320432D01*
X241951Y321043D01*
X242815Y321907D01*
X243426Y322966D01*
X243742Y324146D01*
Y324536D01*
X244242Y324743D01*
X244443Y324542D01*
X245239Y324213D01*
X246100D01*
X246392Y324333D01*
X246774Y323951D01*
X246654Y323659D01*
Y322798D01*
X246983Y322002D01*
X247592Y321393D01*
X248388Y321063D01*
X249250D01*
X250045Y321393D01*
X250655Y322002D01*
X250984Y322798D01*
Y323659D01*
X250655Y324455D01*
X250045Y325064D01*
X249250Y325394D01*
X248388D01*
X248096Y325273D01*
X247714Y325656D01*
X247835Y325947D01*
Y326809D01*
X247505Y327605D01*
X246896Y328214D01*
X246100Y328543D01*
X245239D01*
X244443Y328214D01*
X243834Y327605D01*
X243650Y327161D01*
X243094Y327125D01*
X242815Y327607D01*
X241951Y328472D01*
X240892Y329083D01*
X240101Y329295D01*
D02*
G37*
G36*
X161360Y329295D02*
Y324757D01*
Y320220D01*
X162152Y320432D01*
X163210Y321043D01*
X164075Y321907D01*
X164686Y322966D01*
X165002Y324146D01*
Y324536D01*
X165502Y324743D01*
X165702Y324542D01*
X166498Y324213D01*
X167360D01*
X167651Y324333D01*
X168034Y323951D01*
X167913Y323659D01*
Y322798D01*
X168243Y322002D01*
X168852Y321393D01*
X169648Y321063D01*
X170509D01*
X171305Y321393D01*
X171914Y322002D01*
X172244Y322798D01*
Y323659D01*
X171914Y324455D01*
X171305Y325064D01*
X170509Y325394D01*
X169648D01*
X169356Y325273D01*
X168974Y325656D01*
X169095Y325947D01*
Y326809D01*
X168765Y327605D01*
X168156Y328214D01*
X167360Y328543D01*
X166498D01*
X165702Y328214D01*
X165093Y327605D01*
X164910Y327161D01*
X164353Y327125D01*
X164075Y327607D01*
X163210Y328472D01*
X162152Y329083D01*
X161360Y329295D01*
D02*
G37*
G36*
X159360Y323757D02*
X155823D01*
X156035Y322966D01*
X156646Y321907D01*
X157510Y321043D01*
X158569Y320432D01*
X159360Y320220D01*
Y323757D01*
D02*
G37*
G36*
X204268Y323757D02*
X200730D01*
Y320220D01*
X201522Y320432D01*
X202580Y321043D01*
X203445Y321907D01*
X204056Y322966D01*
X204268Y323757D01*
D02*
G37*
G36*
X198730D02*
X195193D01*
X195405Y322966D01*
X196016Y321907D01*
X196880Y321043D01*
X197939Y320432D01*
X198730Y320220D01*
Y323757D01*
D02*
G37*
G36*
X238101Y323757D02*
X234563D01*
X234775Y322966D01*
X235386Y321907D01*
X236250Y321043D01*
X237309Y320432D01*
X238101Y320220D01*
Y323757D01*
D02*
G37*
G36*
X316841Y323757D02*
X313303D01*
X313515Y322966D01*
X314126Y321907D01*
X314991Y321043D01*
X316049Y320432D01*
X316841Y320220D01*
Y323757D01*
D02*
G37*
G36*
X474321D02*
X470783D01*
X470996Y322966D01*
X471607Y321907D01*
X472471Y321043D01*
X473529Y320432D01*
X474321Y320220D01*
Y323757D01*
D02*
G37*
G36*
X395581D02*
X392043D01*
X392255Y322966D01*
X392866Y321907D01*
X393731Y321043D01*
X394789Y320432D01*
X395581Y320220D01*
Y323757D01*
D02*
G37*
G36*
X277471Y323757D02*
X273933D01*
X274145Y322966D01*
X274756Y321907D01*
X275621Y321043D01*
X276679Y320432D01*
X277471Y320220D01*
Y323757D01*
D02*
G37*
G36*
X519229Y323757D02*
X515691D01*
Y320220D01*
X516483Y320432D01*
X517541Y321043D01*
X518405Y321907D01*
X519017Y322966D01*
X519229Y323757D01*
D02*
G37*
G36*
X440488D02*
X436951D01*
Y320220D01*
X437743Y320432D01*
X438801Y321043D01*
X439665Y321907D01*
X440276Y322966D01*
X440488Y323757D01*
D02*
G37*
G36*
X361748D02*
X358211D01*
Y320220D01*
X359002Y320432D01*
X360061Y321043D01*
X360925Y321907D01*
X361536Y322966D01*
X361748Y323757D01*
D02*
G37*
G36*
X513691D02*
X510153D01*
X510366Y322966D01*
X510977Y321907D01*
X511841Y321043D01*
X512899Y320432D01*
X513691Y320220D01*
Y323757D01*
D02*
G37*
G36*
X434951D02*
X431413D01*
X431626Y322966D01*
X432237Y321907D01*
X433101Y321043D01*
X434159Y320432D01*
X434951Y320220D01*
Y323757D01*
D02*
G37*
G36*
X356211D02*
X352673D01*
X352885Y322966D01*
X353497Y321907D01*
X354361Y321043D01*
X355419Y320432D01*
X356211Y320220D01*
Y323757D01*
D02*
G37*
G36*
X283008Y323757D02*
X279471D01*
Y320220D01*
X280262Y320432D01*
X281321Y321043D01*
X282185Y321907D01*
X282796Y322966D01*
X283008Y323757D01*
D02*
G37*
G36*
X70313Y323425D02*
X69451D01*
X68655Y323095D01*
X68046Y322486D01*
X67716Y321691D01*
Y320829D01*
X68046Y320033D01*
X68655Y319424D01*
X69451Y319094D01*
X70313D01*
X71109Y319424D01*
X71718Y320033D01*
X72047Y320829D01*
Y321691D01*
X71718Y322486D01*
X71109Y323095D01*
X70313Y323425D01*
D02*
G37*
G36*
X7519Y322579D02*
X6654D01*
X5818Y322355D01*
X5068Y321922D01*
X4456Y321310D01*
X4023Y320560D01*
X3799Y319724D01*
Y318859D01*
X4023Y318022D01*
X4456Y317273D01*
X5068Y316661D01*
X5818Y316228D01*
X6654Y316004D01*
X7519D01*
X8355Y316228D01*
X9105Y316661D01*
X9717Y317273D01*
X10150Y318022D01*
X10374Y318859D01*
Y319724D01*
X10150Y320560D01*
X9717Y321310D01*
X9105Y321922D01*
X8355Y322355D01*
X7519Y322579D01*
D02*
G37*
G36*
X45708Y322185D02*
X44843D01*
X44007Y321961D01*
X43257Y321528D01*
X42645Y320916D01*
X42212Y320166D01*
X41988Y319330D01*
Y318465D01*
X42212Y317629D01*
X42645Y316879D01*
X43257Y316267D01*
X44007Y315834D01*
X44843Y315610D01*
X45708D01*
X46545Y315834D01*
X47294Y316267D01*
X47906Y316879D01*
X48339Y317629D01*
X48563Y318465D01*
Y319330D01*
X48339Y320166D01*
X47906Y320916D01*
X47294Y321528D01*
X46545Y321961D01*
X45708Y322185D01*
D02*
G37*
G36*
X75234Y318504D02*
X74372D01*
X73577Y318174D01*
X72967Y317565D01*
X72638Y316769D01*
Y315908D01*
X72967Y315112D01*
X73577Y314503D01*
X74372Y314173D01*
X75234D01*
X76030Y314503D01*
X76639Y315112D01*
X76968Y315908D01*
Y316769D01*
X76639Y317565D01*
X76030Y318174D01*
X75234Y318504D01*
D02*
G37*
G36*
X256732Y316280D02*
X255866D01*
X255030Y316055D01*
X254281Y315623D01*
X253669Y315011D01*
X253236Y314261D01*
X253012Y313425D01*
Y312559D01*
X253236Y311723D01*
X253669Y310974D01*
X254281Y310362D01*
X255030Y309929D01*
X255866Y309705D01*
X256732D01*
X257568Y309929D01*
X258318Y310362D01*
X258930Y310974D01*
X259363Y311723D01*
X259587Y312559D01*
Y313425D01*
X259363Y314261D01*
X258930Y315011D01*
X258318Y315623D01*
X257568Y316055D01*
X256732Y316280D01*
D02*
G37*
G36*
X178116Y315053D02*
X177250D01*
X176414Y314829D01*
X175665Y314396D01*
X175053Y313784D01*
X174620Y313034D01*
X174396Y312198D01*
Y311333D01*
X174620Y310496D01*
X175053Y309747D01*
X175665Y309135D01*
X176414Y308702D01*
X177250Y308478D01*
X178116D01*
X178952Y308702D01*
X179702Y309135D01*
X180314Y309747D01*
X180747Y310496D01*
X180971Y311333D01*
Y312198D01*
X180747Y313034D01*
X180314Y313784D01*
X179702Y314396D01*
X178952Y314829D01*
X178116Y315053D01*
D02*
G37*
G36*
X493077Y315053D02*
X492211D01*
X491375Y314829D01*
X490625Y314396D01*
X490013Y313784D01*
X489580Y313034D01*
X489356Y312198D01*
Y311333D01*
X489580Y310496D01*
X490013Y309747D01*
X490625Y309135D01*
X491375Y308702D01*
X492211Y308478D01*
X493077D01*
X493913Y308702D01*
X494662Y309135D01*
X495274Y309747D01*
X495707Y310496D01*
X495931Y311333D01*
Y312198D01*
X495707Y313034D01*
X495274Y313784D01*
X494662Y314396D01*
X493913Y314829D01*
X493077Y315053D01*
D02*
G37*
G36*
X414336D02*
X413471D01*
X412635Y314829D01*
X411885Y314396D01*
X411273Y313784D01*
X410840Y313034D01*
X410616Y312198D01*
Y311333D01*
X410840Y310496D01*
X411273Y309747D01*
X411885Y309135D01*
X412635Y308702D01*
X413471Y308478D01*
X414336D01*
X415172Y308702D01*
X415922Y309135D01*
X416534Y309747D01*
X416967Y310496D01*
X417191Y311333D01*
Y312198D01*
X416967Y313034D01*
X416534Y313784D01*
X415922Y314396D01*
X415172Y314829D01*
X414336Y315053D01*
D02*
G37*
G36*
X335596D02*
X334731D01*
X333895Y314829D01*
X333145Y314396D01*
X332533Y313784D01*
X332100Y313034D01*
X331876Y312198D01*
Y311333D01*
X332100Y310496D01*
X332533Y309747D01*
X333145Y309135D01*
X333895Y308702D01*
X334731Y308478D01*
X335596D01*
X336432Y308702D01*
X337182Y309135D01*
X337794Y309747D01*
X338227Y310496D01*
X338451Y311333D01*
Y312198D01*
X338227Y313034D01*
X337794Y313784D01*
X337182Y314396D01*
X336432Y314829D01*
X335596Y315053D01*
D02*
G37*
G36*
X45792Y309781D02*
X44931D01*
X44135Y309452D01*
X43526Y308842D01*
X43196Y308047D01*
Y307185D01*
X43209Y307156D01*
X42855Y306802D01*
X42826Y306815D01*
X41964D01*
X41168Y306485D01*
X40559Y305876D01*
X40230Y305080D01*
Y304219D01*
X40559Y303423D01*
X41168Y302814D01*
X41964Y302484D01*
X42826D01*
X43622Y302814D01*
X44231Y303423D01*
X44560Y304219D01*
Y305080D01*
X44548Y305109D01*
X44902Y305463D01*
X44931Y305451D01*
X45792D01*
X46588Y305780D01*
X47197Y306389D01*
X47527Y307185D01*
Y308047D01*
X47197Y308842D01*
X46588Y309452D01*
X45792Y309781D01*
D02*
G37*
G36*
X80472Y313209D02*
X79611D01*
X78815Y312879D01*
X78206Y312270D01*
X77876Y311474D01*
Y310613D01*
X78206Y309817D01*
X78815Y309208D01*
X79611Y308878D01*
X80472D01*
X80618Y308939D01*
X80971Y308585D01*
X80908Y308432D01*
Y307571D01*
X81238Y306775D01*
X81847Y306166D01*
X82643Y305836D01*
X83146D01*
X83531Y305716D01*
X83608Y305374D01*
Y304831D01*
X83938Y304035D01*
X84547Y303426D01*
X85343Y303096D01*
X86204D01*
X87000Y303426D01*
X87609Y304035D01*
X87938Y304831D01*
Y305692D01*
X87609Y306488D01*
X87000Y307097D01*
X86204Y307427D01*
X85701D01*
X85316Y307547D01*
X85239Y307889D01*
Y308432D01*
X84909Y309228D01*
X84300Y309837D01*
X83504Y310167D01*
X82643D01*
X82497Y310107D01*
X82144Y310460D01*
X82207Y310613D01*
Y311474D01*
X81877Y312270D01*
X81268Y312879D01*
X80472Y313209D01*
D02*
G37*
G36*
X55549Y305709D02*
X54687D01*
X53891Y305379D01*
X53282Y304770D01*
X52953Y303974D01*
Y303113D01*
X52955Y303107D01*
X52601Y302754D01*
X52596Y302756D01*
X51735D01*
X50939Y302426D01*
X50330Y301817D01*
X50000Y301021D01*
Y300160D01*
X50226Y299615D01*
X49843Y299232D01*
X49415Y299410D01*
X48554D01*
X47758Y299080D01*
X47149Y298471D01*
X46819Y297675D01*
Y296813D01*
X47149Y296018D01*
X47758Y295408D01*
X48554Y295079D01*
X49415D01*
X50211Y295408D01*
X50820Y296018D01*
X51150Y296813D01*
Y297675D01*
X50924Y298220D01*
X51307Y298602D01*
X51735Y298425D01*
X52596D01*
X53392Y298755D01*
X54001Y299364D01*
X54331Y300160D01*
Y301021D01*
X54329Y301027D01*
X54682Y301380D01*
X54687Y301378D01*
X55549D01*
X56345Y301708D01*
X56954Y302317D01*
X57284Y303113D01*
Y303974D01*
X56954Y304770D01*
X56345Y305379D01*
X55549Y305709D01*
D02*
G37*
G36*
X29330Y305156D02*
X28468D01*
X27673Y304826D01*
X27063Y304217D01*
X26734Y303421D01*
Y302560D01*
X27063Y301764D01*
X27673Y301155D01*
X28468Y300825D01*
X29330D01*
X30126Y301155D01*
X30735Y301764D01*
X31065Y302560D01*
Y303421D01*
X30735Y304217D01*
X30126Y304826D01*
X29330Y305156D01*
D02*
G37*
G36*
X204160Y309502D02*
X195301D01*
Y300643D01*
X204160D01*
Y309502D01*
D02*
G37*
G36*
X164789D02*
X155931D01*
Y300643D01*
X164789D01*
Y309502D01*
D02*
G37*
G36*
X519120Y309502D02*
X510262D01*
Y300643D01*
X519120D01*
Y309502D01*
D02*
G37*
G36*
X479750D02*
X470892D01*
Y300643D01*
X479750D01*
Y309502D01*
D02*
G37*
G36*
X440380D02*
X431522D01*
Y300643D01*
X440380D01*
Y309502D01*
D02*
G37*
G36*
X401010D02*
X392152D01*
Y300643D01*
X401010D01*
Y309502D01*
D02*
G37*
G36*
X361640D02*
X352782D01*
Y300643D01*
X361640D01*
Y309502D01*
D02*
G37*
G36*
X322270D02*
X313411D01*
Y300643D01*
X322270D01*
Y309502D01*
D02*
G37*
G36*
X282900D02*
X274042D01*
Y300643D01*
X282900D01*
Y309502D01*
D02*
G37*
G36*
X243530D02*
X234671D01*
Y300643D01*
X243530D01*
Y309502D01*
D02*
G37*
G36*
X42753Y292913D02*
X41892D01*
X41096Y292584D01*
X40487Y291975D01*
X40157Y291179D01*
Y290317D01*
X40160Y290312D01*
X39806Y289958D01*
X39801Y289961D01*
X38939D01*
X38144Y289631D01*
X37534Y289022D01*
X37205Y288226D01*
Y287365D01*
X37534Y286569D01*
X38144Y285960D01*
X38939Y285630D01*
X39801D01*
X40597Y285960D01*
X41206Y286569D01*
X41535Y287365D01*
Y288226D01*
X41533Y288231D01*
X41887Y288585D01*
X41892Y288583D01*
X42753D01*
X43549Y288912D01*
X44159Y289522D01*
X44488Y290317D01*
Y291179D01*
X44159Y291975D01*
X43549Y292584D01*
X42753Y292913D01*
D02*
G37*
G36*
X99840Y293898D02*
X98979D01*
X98183Y293568D01*
X97574Y292959D01*
X97244Y292163D01*
Y291302D01*
X97574Y290506D01*
X98183Y289897D01*
X98979Y289567D01*
X99840D01*
X100636Y289897D01*
X101245Y290506D01*
X101575Y291302D01*
Y292163D01*
X101245Y292959D01*
X100636Y293568D01*
X99840Y293898D01*
D02*
G37*
G36*
X515691Y289925D02*
Y286387D01*
X519229D01*
X519017Y287179D01*
X518405Y288237D01*
X517541Y289102D01*
X516483Y289713D01*
X515691Y289925D01*
D02*
G37*
G36*
X436951D02*
Y286387D01*
X440488D01*
X440276Y287179D01*
X439665Y288237D01*
X438801Y289102D01*
X437743Y289713D01*
X436951Y289925D01*
D02*
G37*
G36*
X358211D02*
Y286387D01*
X361748D01*
X361536Y287179D01*
X360925Y288237D01*
X360061Y289102D01*
X359002Y289713D01*
X358211Y289925D01*
D02*
G37*
G36*
X513691D02*
X512899Y289713D01*
X511841Y289102D01*
X510977Y288237D01*
X510366Y287179D01*
X510154Y286387D01*
X513691D01*
Y289925D01*
D02*
G37*
G36*
X434951D02*
X434159Y289713D01*
X433101Y289102D01*
X432237Y288237D01*
X431626Y287179D01*
X431413Y286387D01*
X434951D01*
Y289925D01*
D02*
G37*
G36*
X356211D02*
X355419Y289713D01*
X354361Y289102D01*
X353497Y288237D01*
X352885Y287179D01*
X352673Y286387D01*
X356211D01*
Y289925D01*
D02*
G37*
G36*
X200730Y289925D02*
Y286387D01*
X204268D01*
X204056Y287179D01*
X203445Y288237D01*
X202580Y289102D01*
X201522Y289713D01*
X200730Y289925D01*
D02*
G37*
G36*
X279471Y289925D02*
Y286387D01*
X283008D01*
X282796Y287179D01*
X282185Y288237D01*
X281321Y289102D01*
X280262Y289713D01*
X279471Y289925D01*
D02*
G37*
G36*
X277471D02*
X276679Y289713D01*
X275621Y289102D01*
X274756Y288237D01*
X274145Y287179D01*
X273933Y286387D01*
X277471D01*
Y289925D01*
D02*
G37*
G36*
X198730Y289925D02*
X197939Y289713D01*
X196880Y289102D01*
X196016Y288237D01*
X195405Y287179D01*
X195193Y286387D01*
X198730D01*
Y289925D01*
D02*
G37*
G36*
X474321Y289925D02*
X473529Y289713D01*
X472471Y289102D01*
X471607Y288237D01*
X470996Y287179D01*
X470784Y286387D01*
X474321D01*
Y289925D01*
D02*
G37*
G36*
X395581D02*
X394789Y289713D01*
X393731Y289102D01*
X392866Y288237D01*
X392255Y287179D01*
X392043Y286387D01*
X395581D01*
Y289925D01*
D02*
G37*
G36*
X316841D02*
X316049Y289713D01*
X314991Y289102D01*
X314126Y288237D01*
X313515Y287179D01*
X313303Y286387D01*
X316841D01*
Y289925D01*
D02*
G37*
G36*
X238101Y289925D02*
X237309Y289713D01*
X236250Y289102D01*
X235386Y288237D01*
X234775Y287179D01*
X234563Y286387D01*
X238101D01*
Y289925D01*
D02*
G37*
G36*
X159360Y289925D02*
X158569Y289713D01*
X157510Y289102D01*
X156646Y288237D01*
X156035Y287179D01*
X155823Y286387D01*
X159360D01*
Y289925D01*
D02*
G37*
G36*
X103777Y289961D02*
X102916D01*
X102120Y289631D01*
X101511Y289022D01*
X101181Y288226D01*
Y287365D01*
X101511Y286569D01*
X102120Y285960D01*
X102916Y285630D01*
X103777D01*
X104573Y285960D01*
X105182Y286569D01*
X105512Y287365D01*
Y288226D01*
X105182Y289022D01*
X104573Y289631D01*
X103777Y289961D01*
D02*
G37*
G36*
X74059Y288984D02*
X73193D01*
X72357Y288760D01*
X71608Y288327D01*
X70995Y287715D01*
X70563Y286965D01*
X70339Y286129D01*
Y285264D01*
X70563Y284428D01*
X70995Y283678D01*
X71608Y283066D01*
X72357Y282633D01*
X73193Y282409D01*
X74059D01*
X74895Y282633D01*
X75645Y283066D01*
X76257Y283678D01*
X76689Y284428D01*
X76913Y285264D01*
Y286129D01*
X76689Y286965D01*
X76257Y287715D01*
X75645Y288327D01*
X74895Y288760D01*
X74059Y288984D01*
D02*
G37*
G36*
X476321Y289925D02*
Y285387D01*
Y280850D01*
X477113Y281062D01*
X478171Y281673D01*
X479035Y282537D01*
X479646Y283596D01*
X479963Y284776D01*
Y285166D01*
X480463Y285373D01*
X480663Y285172D01*
X481459Y284842D01*
X482320D01*
X482612Y284963D01*
X482995Y284581D01*
X482874Y284289D01*
Y283428D01*
X483204Y282632D01*
X483813Y282023D01*
X484609Y281693D01*
X485470D01*
X486266Y282023D01*
X486875Y282632D01*
X487205Y283428D01*
Y284289D01*
X486875Y285085D01*
X486266Y285694D01*
X485470Y286024D01*
X484609D01*
X484317Y285903D01*
X483934Y286285D01*
X484055Y286577D01*
Y287439D01*
X483725Y288234D01*
X483116Y288844D01*
X482320Y289173D01*
X481459D01*
X480663Y288844D01*
X480054Y288234D01*
X479870Y287791D01*
X479314Y287755D01*
X479035Y288237D01*
X478171Y289102D01*
X477113Y289713D01*
X476321Y289925D01*
D02*
G37*
G36*
X397581D02*
Y285387D01*
Y280850D01*
X398373Y281062D01*
X399431Y281673D01*
X400295Y282537D01*
X400906Y283596D01*
X401223Y284776D01*
Y285166D01*
X401723Y285373D01*
X401923Y285172D01*
X402719Y284842D01*
X403580D01*
X403872Y284963D01*
X404255Y284581D01*
X404134Y284289D01*
Y283428D01*
X404463Y282632D01*
X405073Y282023D01*
X405868Y281693D01*
X406730D01*
X407526Y282023D01*
X408135Y282632D01*
X408465Y283428D01*
Y284289D01*
X408135Y285085D01*
X407526Y285694D01*
X406730Y286024D01*
X405868D01*
X405577Y285903D01*
X405194Y286285D01*
X405315Y286577D01*
Y287439D01*
X404985Y288234D01*
X404376Y288844D01*
X403580Y289173D01*
X402719D01*
X401923Y288844D01*
X401314Y288234D01*
X401130Y287791D01*
X400574Y287755D01*
X400295Y288237D01*
X399431Y289102D01*
X398373Y289713D01*
X397581Y289925D01*
D02*
G37*
G36*
X318841D02*
Y285387D01*
Y280850D01*
X319632Y281062D01*
X320691Y281673D01*
X321555Y282537D01*
X322166Y283596D01*
X322482Y284776D01*
Y285166D01*
X322982Y285373D01*
X323183Y285172D01*
X323979Y284842D01*
X324840D01*
X325132Y284963D01*
X325515Y284581D01*
X325394Y284289D01*
Y283428D01*
X325723Y282632D01*
X326332Y282023D01*
X327128Y281693D01*
X327990D01*
X328786Y282023D01*
X329395Y282632D01*
X329724Y283428D01*
Y284289D01*
X329395Y285085D01*
X328786Y285694D01*
X327990Y286024D01*
X327128D01*
X326837Y285903D01*
X326454Y286285D01*
X326575Y286577D01*
Y287439D01*
X326245Y288234D01*
X325636Y288844D01*
X324840Y289173D01*
X323979D01*
X323183Y288844D01*
X322574Y288234D01*
X322390Y287791D01*
X321834Y287755D01*
X321555Y288237D01*
X320691Y289102D01*
X319632Y289713D01*
X318841Y289925D01*
D02*
G37*
G36*
X240101D02*
Y285387D01*
Y280850D01*
X240892Y281062D01*
X241951Y281673D01*
X242815Y282537D01*
X243426Y283596D01*
X243742Y284776D01*
Y285166D01*
X244242Y285373D01*
X244443Y285172D01*
X245239Y284842D01*
X246100D01*
X246392Y284963D01*
X246774Y284581D01*
X246654Y284289D01*
Y283428D01*
X246983Y282632D01*
X247592Y282023D01*
X248388Y281693D01*
X249250D01*
X250045Y282023D01*
X250655Y282632D01*
X250984Y283428D01*
Y284289D01*
X250655Y285085D01*
X250045Y285694D01*
X249250Y286024D01*
X248388D01*
X248096Y285903D01*
X247714Y286285D01*
X247835Y286577D01*
Y287439D01*
X247505Y288234D01*
X246896Y288844D01*
X246100Y289173D01*
X245239D01*
X244443Y288844D01*
X243834Y288234D01*
X243650Y287791D01*
X243094Y287755D01*
X242815Y288237D01*
X241951Y289102D01*
X240892Y289713D01*
X240101Y289925D01*
D02*
G37*
G36*
X161360Y289925D02*
Y285387D01*
Y280850D01*
X162152Y281062D01*
X163210Y281673D01*
X164075Y282537D01*
X164686Y283596D01*
X165002Y284776D01*
Y285166D01*
X165502Y285373D01*
X165702Y285172D01*
X166498Y284842D01*
X167360D01*
X167651Y284963D01*
X168034Y284581D01*
X167913Y284289D01*
Y283428D01*
X168243Y282632D01*
X168852Y282023D01*
X169648Y281693D01*
X170509D01*
X171305Y282023D01*
X171914Y282632D01*
X172244Y283428D01*
Y284289D01*
X171914Y285085D01*
X171305Y285694D01*
X170509Y286024D01*
X169648D01*
X169356Y285903D01*
X168974Y286285D01*
X169095Y286577D01*
Y287439D01*
X168765Y288234D01*
X168156Y288844D01*
X167360Y289173D01*
X166498D01*
X165702Y288844D01*
X165093Y288234D01*
X164910Y287791D01*
X164353Y287755D01*
X164075Y288237D01*
X163210Y289102D01*
X162152Y289713D01*
X161360Y289925D01*
D02*
G37*
G36*
X159360Y284387D02*
X155823D01*
X156035Y283596D01*
X156646Y282537D01*
X157510Y281673D01*
X158569Y281062D01*
X159360Y280850D01*
Y284387D01*
D02*
G37*
G36*
X204268Y284387D02*
X200730D01*
Y280850D01*
X201522Y281062D01*
X202580Y281673D01*
X203445Y282537D01*
X204056Y283596D01*
X204268Y284387D01*
D02*
G37*
G36*
X198730D02*
X195193D01*
X195405Y283596D01*
X196016Y282537D01*
X196880Y281673D01*
X197939Y281062D01*
X198730Y280850D01*
Y284387D01*
D02*
G37*
G36*
X238101Y284387D02*
X234563D01*
X234775Y283596D01*
X235386Y282537D01*
X236250Y281673D01*
X237309Y281062D01*
X238101Y280850D01*
Y284387D01*
D02*
G37*
G36*
X474321Y284387D02*
X470783D01*
X470996Y283596D01*
X471607Y282537D01*
X472471Y281673D01*
X473529Y281062D01*
X474321Y280850D01*
Y284387D01*
D02*
G37*
G36*
X395581D02*
X392043D01*
X392255Y283596D01*
X392866Y282537D01*
X393731Y281673D01*
X394789Y281062D01*
X395581Y280850D01*
Y284387D01*
D02*
G37*
G36*
X316841D02*
X313303D01*
X313515Y283596D01*
X314126Y282537D01*
X314991Y281673D01*
X316049Y281062D01*
X316841Y280850D01*
Y284387D01*
D02*
G37*
G36*
X277471Y284387D02*
X273933D01*
X274145Y283596D01*
X274756Y282537D01*
X275621Y281673D01*
X276679Y281062D01*
X277471Y280850D01*
Y284387D01*
D02*
G37*
G36*
X519229Y284387D02*
X515691D01*
Y280850D01*
X516483Y281062D01*
X517541Y281673D01*
X518405Y282537D01*
X519017Y283596D01*
X519229Y284387D01*
D02*
G37*
G36*
X440488D02*
X436951D01*
Y280850D01*
X437743Y281062D01*
X438801Y281673D01*
X439665Y282537D01*
X440276Y283596D01*
X440488Y284387D01*
D02*
G37*
G36*
X361748D02*
X358211D01*
Y280850D01*
X359002Y281062D01*
X360061Y281673D01*
X360925Y282537D01*
X361536Y283596D01*
X361748Y284387D01*
D02*
G37*
G36*
X434951D02*
X431413D01*
X431626Y283596D01*
X432237Y282537D01*
X433101Y281673D01*
X434159Y281062D01*
X434951Y280850D01*
Y284387D01*
D02*
G37*
G36*
X356211D02*
X352673D01*
X352885Y283596D01*
X353497Y282537D01*
X354361Y281673D01*
X355419Y281062D01*
X356211Y280850D01*
Y284387D01*
D02*
G37*
G36*
X513691D02*
X510153D01*
X510366Y283596D01*
X510977Y282537D01*
X511841Y281673D01*
X512899Y281062D01*
X513691Y280850D01*
Y284387D01*
D02*
G37*
G36*
X283008Y284387D02*
X279471D01*
Y280850D01*
X280262Y281062D01*
X281321Y281673D01*
X282185Y282537D01*
X282796Y283596D01*
X283008Y284387D01*
D02*
G37*
G36*
X63689Y278475D02*
X62823D01*
X61987Y278251D01*
X61238Y277818D01*
X60626Y277206D01*
X60193Y276456D01*
X59969Y275620D01*
Y274755D01*
X60193Y273918D01*
X60626Y273169D01*
X61238Y272557D01*
X61987Y272124D01*
X62823Y271900D01*
X63689D01*
X64525Y272124D01*
X65275Y272557D01*
X65887Y273169D01*
X66320Y273918D01*
X66544Y274755D01*
Y275620D01*
X66320Y276456D01*
X65887Y277206D01*
X65275Y277818D01*
X64525Y278251D01*
X63689Y278475D01*
D02*
G37*
G36*
X111456Y277303D02*
X110591D01*
X109755Y277079D01*
X109005Y276646D01*
X108393Y276034D01*
X107960Y275285D01*
X107736Y274448D01*
Y273583D01*
X107960Y272747D01*
X108393Y271997D01*
X109005Y271385D01*
X109755Y270952D01*
X110591Y270728D01*
X111456D01*
X112293Y270952D01*
X113042Y271385D01*
X113654Y271997D01*
X114087Y272747D01*
X114311Y273583D01*
Y274448D01*
X114087Y275285D01*
X113654Y276034D01*
X113042Y276646D01*
X112293Y277079D01*
X111456Y277303D01*
D02*
G37*
G36*
X257126Y276516D02*
X256260D01*
X255424Y276292D01*
X254674Y275859D01*
X254062Y275247D01*
X253629Y274497D01*
X253405Y273661D01*
Y272796D01*
X253629Y271959D01*
X254062Y271210D01*
X254674Y270598D01*
X255424Y270165D01*
X256260Y269941D01*
X257126D01*
X257962Y270165D01*
X258711Y270598D01*
X259324Y271210D01*
X259756Y271959D01*
X259980Y272796D01*
Y273661D01*
X259756Y274497D01*
X259324Y275247D01*
X258711Y275859D01*
X257962Y276292D01*
X257126Y276516D01*
D02*
G37*
G36*
X178116Y275683D02*
X177250D01*
X176414Y275459D01*
X175665Y275026D01*
X175053Y274414D01*
X174620Y273664D01*
X174396Y272828D01*
Y271962D01*
X174620Y271126D01*
X175053Y270377D01*
X175665Y269765D01*
X176414Y269332D01*
X177250Y269108D01*
X178116D01*
X178952Y269332D01*
X179702Y269765D01*
X180314Y270377D01*
X180747Y271126D01*
X180971Y271962D01*
Y272828D01*
X180747Y273664D01*
X180314Y274414D01*
X179702Y275026D01*
X178952Y275459D01*
X178116Y275683D01*
D02*
G37*
G36*
X493077Y275683D02*
X492211D01*
X491375Y275459D01*
X490625Y275026D01*
X490013Y274414D01*
X489580Y273664D01*
X489356Y272828D01*
Y271962D01*
X489580Y271126D01*
X490013Y270377D01*
X490625Y269765D01*
X491375Y269332D01*
X492211Y269108D01*
X493077D01*
X493913Y269332D01*
X494662Y269765D01*
X495274Y270377D01*
X495707Y271126D01*
X495931Y271962D01*
Y272828D01*
X495707Y273664D01*
X495274Y274414D01*
X494662Y275026D01*
X493913Y275459D01*
X493077Y275683D01*
D02*
G37*
G36*
X414336D02*
X413471D01*
X412635Y275459D01*
X411885Y275026D01*
X411273Y274414D01*
X410840Y273664D01*
X410616Y272828D01*
Y271962D01*
X410840Y271126D01*
X411273Y270377D01*
X411885Y269765D01*
X412635Y269332D01*
X413471Y269108D01*
X414336D01*
X415172Y269332D01*
X415922Y269765D01*
X416534Y270377D01*
X416967Y271126D01*
X417191Y271962D01*
Y272828D01*
X416967Y273664D01*
X416534Y274414D01*
X415922Y275026D01*
X415172Y275459D01*
X414336Y275683D01*
D02*
G37*
G36*
X335596D02*
X334731D01*
X333895Y275459D01*
X333145Y275026D01*
X332533Y274414D01*
X332100Y273664D01*
X331876Y272828D01*
Y271962D01*
X332100Y271126D01*
X332533Y270377D01*
X333145Y269765D01*
X333895Y269332D01*
X334731Y269108D01*
X335596D01*
X336432Y269332D01*
X337182Y269765D01*
X337794Y270377D01*
X338227Y271126D01*
X338451Y271962D01*
Y272828D01*
X338227Y273664D01*
X337794Y274414D01*
X337182Y275026D01*
X336432Y275459D01*
X335596Y275683D01*
D02*
G37*
G36*
X31533Y281693D02*
X30672D01*
X29876Y281363D01*
X29267Y280754D01*
X28937Y279958D01*
Y279097D01*
X29267Y278301D01*
X29876Y277692D01*
X30672Y277362D01*
X31231D01*
X31574Y277243D01*
X31693Y276900D01*
Y276341D01*
X32023Y275545D01*
X32632Y274936D01*
X33428Y274606D01*
X33987D01*
X34330Y274488D01*
X34449Y274144D01*
Y273585D01*
X34778Y272789D01*
X35388Y272180D01*
X36184Y271850D01*
X36743D01*
X37086Y271732D01*
X37205Y271389D01*
Y270829D01*
X37534Y270033D01*
X38144Y269424D01*
X38939Y269094D01*
X39499D01*
X39842Y268976D01*
X39961Y268633D01*
Y268073D01*
X40290Y267277D01*
X40899Y266668D01*
X41695Y266339D01*
X42557D01*
X43353Y266668D01*
X43962Y267277D01*
X44291Y268073D01*
Y268935D01*
X43962Y269730D01*
X43353Y270340D01*
X42557Y270669D01*
X41997D01*
X41654Y270788D01*
X41535Y271131D01*
Y271691D01*
X41206Y272486D01*
X40597Y273095D01*
X39801Y273425D01*
X39241D01*
X38898Y273544D01*
X38780Y273887D01*
Y274447D01*
X38450Y275242D01*
X37841Y275851D01*
X37045Y276181D01*
X36486D01*
X36142Y276300D01*
X36024Y276643D01*
Y277202D01*
X35694Y277998D01*
X35085Y278607D01*
X34289Y278937D01*
X33730D01*
X33386Y279056D01*
X33268Y279399D01*
Y279958D01*
X32938Y280754D01*
X32329Y281363D01*
X31533Y281693D01*
D02*
G37*
G36*
X130352Y269488D02*
X129491D01*
X128695Y269159D01*
X128086Y268549D01*
X127756Y267754D01*
Y266892D01*
X128086Y266096D01*
X128695Y265487D01*
X129491Y265158D01*
X130352D01*
X131148Y265487D01*
X131757Y266096D01*
X132087Y266892D01*
Y267754D01*
X131757Y268549D01*
X131148Y269159D01*
X130352Y269488D01*
D02*
G37*
G36*
X9486Y273031D02*
X8624D01*
X7829Y272702D01*
X7219Y272093D01*
X6890Y271297D01*
Y270435D01*
X7219Y269640D01*
X7829Y269030D01*
X8624Y268701D01*
X9486D01*
X9753Y268811D01*
X10136Y268429D01*
X10039Y268197D01*
Y267335D01*
X10369Y266539D01*
X10978Y265930D01*
X11774Y265601D01*
X12635D01*
X12952Y265732D01*
X13334Y265349D01*
X13189Y264998D01*
Y264136D01*
X13519Y263340D01*
X14128Y262731D01*
X14924Y262402D01*
X15785D01*
X16581Y262731D01*
X17190Y263340D01*
X17520Y264136D01*
Y264998D01*
X17190Y265793D01*
X16581Y266403D01*
X15785Y266732D01*
X14924D01*
X14607Y266601D01*
X14225Y266984D01*
X14370Y267335D01*
Y268197D01*
X14040Y268992D01*
X13431Y269602D01*
X12635Y269931D01*
X11774D01*
X11507Y269821D01*
X11124Y270203D01*
X11220Y270435D01*
Y271297D01*
X10891Y272093D01*
X10282Y272702D01*
X9486Y273031D01*
D02*
G37*
G36*
X53249Y268174D02*
X52384D01*
X51548Y267950D01*
X50798Y267517D01*
X50186Y266905D01*
X49753Y266156D01*
X49529Y265320D01*
Y264454D01*
X49753Y263618D01*
X50186Y262868D01*
X50798Y262256D01*
X51548Y261824D01*
X52384Y261599D01*
X53249D01*
X54085Y261824D01*
X54835Y262256D01*
X55447Y262868D01*
X55880Y263618D01*
X56104Y264454D01*
Y265320D01*
X55880Y266156D01*
X55447Y266905D01*
X54835Y267517D01*
X54085Y267950D01*
X53249Y268174D01*
D02*
G37*
G36*
X204160Y270131D02*
X195301D01*
Y261273D01*
X204160D01*
Y270131D01*
D02*
G37*
G36*
X164789D02*
X155931D01*
Y261273D01*
X164789D01*
Y270131D01*
D02*
G37*
G36*
X519120Y270131D02*
X510262D01*
Y261273D01*
X519120D01*
Y270131D01*
D02*
G37*
G36*
X479750D02*
X470892D01*
Y261273D01*
X479750D01*
Y270131D01*
D02*
G37*
G36*
X440380D02*
X431522D01*
Y261273D01*
X440380D01*
Y270131D01*
D02*
G37*
G36*
X401010D02*
X392152D01*
Y261273D01*
X401010D01*
Y270131D01*
D02*
G37*
G36*
X361640D02*
X352782D01*
Y261273D01*
X361640D01*
Y270131D01*
D02*
G37*
G36*
X322270D02*
X313411D01*
Y261273D01*
X322270D01*
Y270131D01*
D02*
G37*
G36*
X282900D02*
X274042D01*
Y261273D01*
X282900D01*
Y270131D01*
D02*
G37*
G36*
X243530D02*
X234671D01*
Y261273D01*
X243530D01*
Y270131D01*
D02*
G37*
G36*
X119132Y264961D02*
X118270D01*
X117474Y264631D01*
X116865Y264022D01*
X116535Y263226D01*
Y262365D01*
X116865Y261569D01*
X117474Y260960D01*
X118270Y260630D01*
X119132D01*
X119927Y260960D01*
X120536Y261569D01*
X120866Y262365D01*
Y263226D01*
X120536Y264022D01*
X119927Y264631D01*
X119132Y264961D01*
D02*
G37*
G36*
X107714Y253543D02*
X106853D01*
X106057Y253214D01*
X105448Y252605D01*
X105118Y251809D01*
Y250947D01*
X105448Y250151D01*
X106057Y249542D01*
X106853Y249213D01*
X107714D01*
X108510Y249542D01*
X109119Y250151D01*
X109449Y250947D01*
Y251809D01*
X109119Y252605D01*
X108510Y253214D01*
X107714Y253543D01*
D02*
G37*
G36*
X35864Y252559D02*
X35002D01*
X34207Y252229D01*
X33597Y251620D01*
X33268Y250824D01*
Y249963D01*
X33597Y249167D01*
X34207Y248558D01*
X35002Y248228D01*
X35864D01*
X36660Y248558D01*
X37269Y249167D01*
X37598Y249963D01*
Y250824D01*
X37269Y251620D01*
X36660Y252229D01*
X35864Y252559D01*
D02*
G37*
G36*
X436951Y250555D02*
Y247017D01*
X440488D01*
X440276Y247809D01*
X439665Y248867D01*
X438801Y249732D01*
X437743Y250343D01*
X436951Y250555D01*
D02*
G37*
G36*
X279471D02*
Y247017D01*
X283008D01*
X282796Y247809D01*
X282185Y248867D01*
X281321Y249732D01*
X280262Y250343D01*
X279471Y250555D01*
D02*
G37*
G36*
X515691D02*
Y247017D01*
X519229D01*
X519017Y247809D01*
X518405Y248867D01*
X517541Y249732D01*
X516483Y250343D01*
X515691Y250555D01*
D02*
G37*
G36*
X513691D02*
X512899Y250343D01*
X511841Y249732D01*
X510977Y248867D01*
X510366Y247809D01*
X510154Y247017D01*
X513691D01*
Y250555D01*
D02*
G37*
G36*
X434951D02*
X434159Y250343D01*
X433101Y249732D01*
X432237Y248867D01*
X431626Y247809D01*
X431413Y247017D01*
X434951D01*
Y250555D01*
D02*
G37*
G36*
X277471D02*
X276679Y250343D01*
X275621Y249732D01*
X274756Y248867D01*
X274145Y247809D01*
X273933Y247017D01*
X277471D01*
Y250555D01*
D02*
G37*
G36*
X200730Y250555D02*
Y247017D01*
X204268D01*
X204056Y247809D01*
X203445Y248867D01*
X202580Y249732D01*
X201522Y250343D01*
X200730Y250555D01*
D02*
G37*
G36*
X358211Y250555D02*
Y247017D01*
X361748D01*
X361536Y247809D01*
X360925Y248867D01*
X360061Y249732D01*
X359002Y250343D01*
X358211Y250555D01*
D02*
G37*
G36*
X356211D02*
X355419Y250343D01*
X354361Y249732D01*
X353497Y248867D01*
X352885Y247809D01*
X352673Y247017D01*
X356211D01*
Y250555D01*
D02*
G37*
G36*
X198731Y250555D02*
X197939Y250343D01*
X196880Y249732D01*
X196016Y248867D01*
X195405Y247809D01*
X195193Y247017D01*
X198731D01*
Y250555D01*
D02*
G37*
G36*
X474321Y250555D02*
X473529Y250343D01*
X472471Y249732D01*
X471607Y248867D01*
X470996Y247809D01*
X470784Y247017D01*
X474321D01*
Y250555D01*
D02*
G37*
G36*
X395581D02*
X394789Y250343D01*
X393731Y249732D01*
X392866Y248867D01*
X392255Y247809D01*
X392043Y247017D01*
X395581D01*
Y250555D01*
D02*
G37*
G36*
X238101D02*
X237309Y250343D01*
X236250Y249732D01*
X235386Y248867D01*
X234775Y247809D01*
X234563Y247017D01*
X238101D01*
Y250555D01*
D02*
G37*
G36*
X316841D02*
X316049Y250343D01*
X314991Y249732D01*
X314126Y248867D01*
X313515Y247809D01*
X313303Y247017D01*
X316841D01*
Y250555D01*
D02*
G37*
G36*
X159360Y250555D02*
X158569Y250343D01*
X157510Y249732D01*
X156646Y248867D01*
X156035Y247809D01*
X155823Y247017D01*
X159360D01*
Y250555D01*
D02*
G37*
G36*
X103777Y249606D02*
X102916D01*
X102120Y249277D01*
X101511Y248668D01*
X101181Y247872D01*
Y247010D01*
X101511Y246214D01*
X102120Y245605D01*
X102916Y245276D01*
X103777D01*
X104573Y245605D01*
X105182Y246214D01*
X105512Y247010D01*
Y247872D01*
X105182Y248668D01*
X104573Y249277D01*
X103777Y249606D01*
D02*
G37*
G36*
X63031Y249350D02*
X62166D01*
X61330Y249126D01*
X60580Y248694D01*
X59968Y248081D01*
X59535Y247332D01*
X59311Y246496D01*
Y245630D01*
X59535Y244794D01*
X59968Y244044D01*
X60580Y243432D01*
X61330Y243000D01*
X62166Y242776D01*
X63031D01*
X63867Y243000D01*
X64617Y243432D01*
X65229Y244044D01*
X65662Y244794D01*
X65886Y245630D01*
Y246496D01*
X65662Y247332D01*
X65229Y248081D01*
X64617Y248694D01*
X63867Y249126D01*
X63031Y249350D01*
D02*
G37*
G36*
X476321Y250555D02*
Y246017D01*
Y241480D01*
X477113Y241692D01*
X478171Y242303D01*
X479035Y243167D01*
X479646Y244226D01*
X479963Y245406D01*
Y245795D01*
X480463Y246003D01*
X480663Y245802D01*
X481459Y245472D01*
X482320D01*
X482612Y245593D01*
X482995Y245211D01*
X482874Y244919D01*
Y244057D01*
X483204Y243262D01*
X483813Y242653D01*
X484609Y242323D01*
X485470D01*
X486266Y242653D01*
X486875Y243262D01*
X487205Y244057D01*
Y244919D01*
X486875Y245715D01*
X486266Y246324D01*
X485470Y246654D01*
X484609D01*
X484317Y246533D01*
X483934Y246915D01*
X484055Y247207D01*
Y248068D01*
X483725Y248864D01*
X483116Y249474D01*
X482320Y249803D01*
X481459D01*
X480663Y249474D01*
X480054Y248864D01*
X479870Y248421D01*
X479314Y248384D01*
X479035Y248867D01*
X478171Y249732D01*
X477113Y250343D01*
X476321Y250555D01*
D02*
G37*
G36*
X397581D02*
Y246017D01*
Y241480D01*
X398373Y241692D01*
X399431Y242303D01*
X400295Y243167D01*
X400906Y244226D01*
X401223Y245406D01*
Y245795D01*
X401723Y246003D01*
X401923Y245802D01*
X402719Y245472D01*
X403580D01*
X403872Y245593D01*
X404255Y245211D01*
X404134Y244919D01*
Y244057D01*
X404463Y243262D01*
X405073Y242653D01*
X405868Y242323D01*
X406730D01*
X407526Y242653D01*
X408135Y243262D01*
X408465Y244057D01*
Y244919D01*
X408135Y245715D01*
X407526Y246324D01*
X406730Y246654D01*
X405868D01*
X405577Y246533D01*
X405194Y246915D01*
X405315Y247207D01*
Y248068D01*
X404985Y248864D01*
X404376Y249474D01*
X403580Y249803D01*
X402719D01*
X401923Y249474D01*
X401314Y248864D01*
X401130Y248421D01*
X400574Y248384D01*
X400295Y248867D01*
X399431Y249732D01*
X398373Y250343D01*
X397581Y250555D01*
D02*
G37*
G36*
X318841Y250555D02*
Y246017D01*
Y241480D01*
X319632Y241692D01*
X320691Y242303D01*
X321555Y243167D01*
X322166Y244226D01*
X322482Y245406D01*
Y245795D01*
X322982Y246003D01*
X323183Y245802D01*
X323979Y245472D01*
X324840D01*
X325132Y245593D01*
X325515Y245211D01*
X325394Y244919D01*
Y244057D01*
X325723Y243262D01*
X326332Y242653D01*
X327128Y242323D01*
X327990D01*
X328786Y242653D01*
X329395Y243262D01*
X329724Y244057D01*
Y244919D01*
X329395Y245715D01*
X328786Y246324D01*
X327990Y246654D01*
X327128D01*
X326837Y246533D01*
X326454Y246915D01*
X326575Y247207D01*
Y248068D01*
X326245Y248864D01*
X325636Y249474D01*
X324840Y249803D01*
X323979D01*
X323183Y249474D01*
X322574Y248864D01*
X322390Y248421D01*
X321834Y248384D01*
X321555Y248867D01*
X320691Y249732D01*
X319632Y250343D01*
X318841Y250555D01*
D02*
G37*
G36*
X240101Y250555D02*
Y246017D01*
Y241480D01*
X240892Y241692D01*
X241951Y242303D01*
X242815Y243167D01*
X243426Y244226D01*
X243742Y245406D01*
Y245795D01*
X244242Y246003D01*
X244443Y245802D01*
X245239Y245472D01*
X246100D01*
X246392Y245593D01*
X246774Y245211D01*
X246654Y244919D01*
Y244057D01*
X246983Y243262D01*
X247592Y242653D01*
X248388Y242323D01*
X249250D01*
X250045Y242653D01*
X250655Y243262D01*
X250984Y244057D01*
Y244919D01*
X250655Y245715D01*
X250045Y246324D01*
X249250Y246654D01*
X248388D01*
X248096Y246533D01*
X247714Y246915D01*
X247835Y247207D01*
Y248068D01*
X247505Y248864D01*
X246896Y249474D01*
X246100Y249803D01*
X245239D01*
X244443Y249474D01*
X243834Y248864D01*
X243650Y248421D01*
X243094Y248384D01*
X242815Y248867D01*
X241951Y249732D01*
X240892Y250343D01*
X240101Y250555D01*
D02*
G37*
G36*
X161360Y250555D02*
Y246017D01*
X160360D01*
D01*
X161360D01*
Y241480D01*
X162152Y241692D01*
X163210Y242303D01*
X164075Y243167D01*
X164686Y244226D01*
X165002Y245406D01*
Y245795D01*
X165502Y246003D01*
X165702Y245802D01*
X166498Y245472D01*
X167360D01*
X167651Y245593D01*
X168034Y245211D01*
X167913Y244919D01*
Y244057D01*
X168243Y243262D01*
X168852Y242653D01*
X169648Y242323D01*
X170509D01*
X171305Y242653D01*
X171914Y243262D01*
X172244Y244057D01*
Y244919D01*
X171914Y245715D01*
X171305Y246324D01*
X170509Y246654D01*
X169648D01*
X169356Y246533D01*
X168974Y246915D01*
X169095Y247207D01*
Y248068D01*
X168765Y248864D01*
X168156Y249474D01*
X167360Y249803D01*
X166498D01*
X165702Y249474D01*
X165093Y248864D01*
X164910Y248421D01*
X164353Y248384D01*
X164075Y248867D01*
X163210Y249732D01*
X162152Y250343D01*
X161360Y250555D01*
D02*
G37*
G36*
X41807Y246619D02*
X40946D01*
X40150Y246289D01*
X39541Y245680D01*
X39211Y244884D01*
Y244023D01*
X39541Y243227D01*
X40150Y242618D01*
X40946Y242288D01*
X41807D01*
X42603Y242618D01*
X43212Y243227D01*
X43542Y244023D01*
Y244884D01*
X43212Y245680D01*
X42603Y246289D01*
X41807Y246619D01*
D02*
G37*
G36*
X204268Y245017D02*
X200730D01*
Y241480D01*
X201522Y241692D01*
X202580Y242303D01*
X203445Y243167D01*
X204056Y244226D01*
X204268Y245017D01*
D02*
G37*
G36*
X159360Y245017D02*
X155823D01*
X156035Y244226D01*
X156646Y243167D01*
X157510Y242303D01*
X158569Y241692D01*
X159360Y241480D01*
Y245017D01*
D02*
G37*
G36*
X198731Y245017D02*
X195193D01*
X195405Y244226D01*
X196016Y243167D01*
X196880Y242303D01*
X197939Y241692D01*
X198731Y241480D01*
Y245017D01*
D02*
G37*
G36*
X316841Y245017D02*
X313303D01*
X313515Y244226D01*
X314126Y243167D01*
X314991Y242303D01*
X316049Y241692D01*
X316841Y241480D01*
Y245017D01*
D02*
G37*
G36*
X519229Y245017D02*
X515691D01*
Y241480D01*
X516483Y241692D01*
X517541Y242303D01*
X518405Y243167D01*
X519017Y244226D01*
X519229Y245017D01*
D02*
G37*
G36*
X440488D02*
X436951D01*
Y241480D01*
X437743Y241692D01*
X438801Y242303D01*
X439665Y243167D01*
X440276Y244226D01*
X440488Y245017D01*
D02*
G37*
G36*
X283008D02*
X279471D01*
Y241480D01*
X280262Y241692D01*
X281321Y242303D01*
X282185Y243167D01*
X282796Y244226D01*
X283008Y245017D01*
D02*
G37*
G36*
X474321Y245017D02*
X470784D01*
X470996Y244226D01*
X471607Y243167D01*
X472471Y242303D01*
X473529Y241692D01*
X474321Y241480D01*
Y245017D01*
D02*
G37*
G36*
X395581D02*
X392043D01*
X392255Y244226D01*
X392866Y243167D01*
X393731Y242303D01*
X394789Y241692D01*
X395581Y241480D01*
Y245017D01*
D02*
G37*
G36*
X238101D02*
X234563D01*
X234775Y244226D01*
X235386Y243167D01*
X236250Y242303D01*
X237309Y241692D01*
X238101Y241480D01*
Y245017D01*
D02*
G37*
G36*
X361748Y245017D02*
X358211D01*
Y241480D01*
X359002Y241692D01*
X360061Y242303D01*
X360925Y243167D01*
X361536Y244226D01*
X361748Y245017D01*
D02*
G37*
G36*
X356211D02*
X352673D01*
X352885Y244226D01*
X353497Y243167D01*
X354361Y242303D01*
X355419Y241692D01*
X356211Y241480D01*
Y245017D01*
D02*
G37*
G36*
X513691Y245017D02*
X510153D01*
X510366Y244226D01*
X510977Y243167D01*
X511841Y242303D01*
X512899Y241692D01*
X513691Y241480D01*
Y245017D01*
D02*
G37*
G36*
X434951D02*
X431413D01*
X431626Y244226D01*
X432237Y243167D01*
X433101Y242303D01*
X434159Y241692D01*
X434951Y241480D01*
Y245017D01*
D02*
G37*
G36*
X277471D02*
X273933D01*
X274145Y244226D01*
X274756Y243167D01*
X275621Y242303D01*
X276679Y241692D01*
X277471Y241480D01*
Y245017D01*
D02*
G37*
G36*
X97872Y243701D02*
X97010D01*
X96214Y243371D01*
X95605Y242762D01*
X95276Y241966D01*
Y241105D01*
X95605Y240309D01*
X96214Y239700D01*
X97010Y239370D01*
X97872D01*
X98668Y239700D01*
X99277Y240309D01*
X99606Y241105D01*
Y241966D01*
X99277Y242762D01*
X98668Y243371D01*
X97872Y243701D01*
D02*
G37*
G36*
X93935Y239764D02*
X93073D01*
X92277Y239434D01*
X91668Y238825D01*
X91339Y238029D01*
Y237168D01*
X91668Y236372D01*
X92277Y235763D01*
X93073Y235433D01*
X93935D01*
X94731Y235763D01*
X95340Y236372D01*
X95669Y237168D01*
Y238029D01*
X95340Y238825D01*
X94731Y239434D01*
X93935Y239764D01*
D02*
G37*
G36*
X48819Y239656D02*
X47957D01*
X47161Y239327D01*
X46552Y238718D01*
X46223Y237922D01*
Y237060D01*
X46552Y236264D01*
X47161Y235655D01*
X47957Y235326D01*
X48819D01*
X49615Y235655D01*
X50224Y236264D01*
X50553Y237060D01*
Y237922D01*
X50224Y238718D01*
X49615Y239327D01*
X48819Y239656D01*
D02*
G37*
G36*
X31398Y240059D02*
X30413D01*
X29462Y239804D01*
X28609Y239312D01*
X27913Y238615D01*
X27420Y237763D01*
X27165Y236811D01*
Y235826D01*
X27420Y234875D01*
X27913Y234022D01*
X28609Y233326D01*
X29462Y232834D01*
X30413Y232579D01*
X31398D01*
X32349Y232834D01*
X33202Y233326D01*
X33898Y234022D01*
X34391Y234875D01*
X34646Y235826D01*
Y236811D01*
X34391Y237763D01*
X33898Y238615D01*
X33202Y239312D01*
X32349Y239804D01*
X31398Y240059D01*
D02*
G37*
G36*
X17422Y239961D02*
X16437D01*
X15485Y239706D01*
X14633Y239213D01*
X13936Y238517D01*
X13444Y237664D01*
X13189Y236713D01*
Y235728D01*
X13444Y234777D01*
X13936Y233924D01*
X14633Y233228D01*
X15485Y232735D01*
X16437Y232480D01*
X17422D01*
X18373Y232735D01*
X19226Y233228D01*
X19922Y233924D01*
X20414Y234777D01*
X20669Y235728D01*
Y236713D01*
X20414Y237664D01*
X19922Y238517D01*
X19226Y239213D01*
X18373Y239706D01*
X17422Y239961D01*
D02*
G37*
G36*
X89998Y235827D02*
X89136D01*
X88340Y235497D01*
X87731Y234888D01*
X87402Y234092D01*
Y233231D01*
X87731Y232435D01*
X88340Y231826D01*
X89136Y231496D01*
X89998D01*
X90794Y231826D01*
X91403Y232435D01*
X91732Y233231D01*
Y234092D01*
X91403Y234888D01*
X90794Y235497D01*
X89998Y235827D01*
D02*
G37*
G36*
X256856Y236509D02*
X255991D01*
X255154Y236285D01*
X254405Y235852D01*
X253793Y235240D01*
X253360Y234490D01*
X253136Y233654D01*
Y232788D01*
X253360Y231952D01*
X253793Y231203D01*
X254405Y230591D01*
X255154Y230158D01*
X255991Y229934D01*
X256856D01*
X257692Y230158D01*
X258442Y230591D01*
X259054Y231203D01*
X259487Y231952D01*
X259711Y232788D01*
Y233654D01*
X259487Y234490D01*
X259054Y235240D01*
X258442Y235852D01*
X257692Y236285D01*
X256856Y236509D01*
D02*
G37*
G36*
X178116Y236313D02*
X177250D01*
X176414Y236088D01*
X175665Y235656D01*
X175053Y235044D01*
X174620Y234294D01*
X174396Y233458D01*
Y232592D01*
X174620Y231756D01*
X175053Y231007D01*
X175665Y230395D01*
X176414Y229962D01*
X177250Y229738D01*
X178116D01*
X178952Y229962D01*
X179702Y230395D01*
X180314Y231007D01*
X180747Y231756D01*
X180971Y232592D01*
Y233458D01*
X180747Y234294D01*
X180314Y235044D01*
X179702Y235656D01*
X178952Y236088D01*
X178116Y236313D01*
D02*
G37*
G36*
X493077Y236313D02*
X492211D01*
X491375Y236088D01*
X490625Y235656D01*
X490013Y235044D01*
X489580Y234294D01*
X489356Y233458D01*
Y232592D01*
X489580Y231756D01*
X490013Y231007D01*
X490625Y230395D01*
X491375Y229962D01*
X492211Y229738D01*
X493077D01*
X493913Y229962D01*
X494662Y230395D01*
X495274Y231007D01*
X495707Y231756D01*
X495931Y232592D01*
Y233458D01*
X495707Y234294D01*
X495274Y235044D01*
X494662Y235656D01*
X493913Y236088D01*
X493077Y236313D01*
D02*
G37*
G36*
X414336D02*
X413471D01*
X412635Y236088D01*
X411885Y235656D01*
X411273Y235044D01*
X410840Y234294D01*
X410616Y233458D01*
Y232592D01*
X410840Y231756D01*
X411273Y231007D01*
X411885Y230395D01*
X412635Y229962D01*
X413471Y229738D01*
X414336D01*
X415172Y229962D01*
X415922Y230395D01*
X416534Y231007D01*
X416967Y231756D01*
X417191Y232592D01*
Y233458D01*
X416967Y234294D01*
X416534Y235044D01*
X415922Y235656D01*
X415172Y236088D01*
X414336Y236313D01*
D02*
G37*
G36*
X335596D02*
X334731D01*
X333895Y236088D01*
X333145Y235656D01*
X332533Y235044D01*
X332100Y234294D01*
X331876Y233458D01*
Y232592D01*
X332100Y231756D01*
X332533Y231007D01*
X333145Y230395D01*
X333895Y229962D01*
X334731Y229738D01*
X335596D01*
X336432Y229962D01*
X337182Y230395D01*
X337794Y231007D01*
X338227Y231756D01*
X338451Y232592D01*
Y233458D01*
X338227Y234294D01*
X337794Y235044D01*
X337182Y235656D01*
X336432Y236088D01*
X335596Y236313D01*
D02*
G37*
G36*
X54715Y233606D02*
X53853D01*
X53057Y233276D01*
X52448Y232667D01*
X52119Y231871D01*
Y231010D01*
X52448Y230214D01*
X53057Y229605D01*
X53853Y229275D01*
X54715D01*
X55511Y229605D01*
X56120Y230214D01*
X56449Y231010D01*
Y231871D01*
X56120Y232667D01*
X55511Y233276D01*
X54715Y233606D01*
D02*
G37*
G36*
X85056Y230967D02*
X84194D01*
X83399Y230637D01*
X82789Y230028D01*
X82460Y229232D01*
Y228371D01*
X82515Y228238D01*
X82132Y227856D01*
X81898Y227953D01*
X81036D01*
X80240Y227623D01*
X79631Y227014D01*
X79302Y226218D01*
Y225627D01*
X79195Y225313D01*
X78840Y225165D01*
X78284D01*
X77488Y224835D01*
X76879Y224226D01*
X76550Y223430D01*
Y222569D01*
X76595Y222461D01*
X76241Y222107D01*
X76148Y222146D01*
X75286D01*
X74490Y221816D01*
X73881Y221207D01*
X73552Y220411D01*
Y219831D01*
X73498Y219529D01*
X73090Y219369D01*
X72609D01*
X71813Y219040D01*
X71204Y218430D01*
X70874Y217635D01*
Y216773D01*
X71204Y215977D01*
X71813Y215368D01*
X72609Y215038D01*
X73470D01*
X74266Y215368D01*
X74875Y215977D01*
X75205Y216773D01*
Y217353D01*
X75258Y217655D01*
X75667Y217815D01*
X76148D01*
X76943Y218145D01*
X77553Y218754D01*
X77882Y219550D01*
Y220411D01*
X77837Y220519D01*
X78191Y220873D01*
X78284Y220834D01*
X79146D01*
X79941Y221164D01*
X80551Y221773D01*
X80880Y222569D01*
Y223160D01*
X80986Y223475D01*
X81342Y223622D01*
X81898D01*
X82694Y223952D01*
X83303Y224561D01*
X83632Y225357D01*
Y226218D01*
X83578Y226351D01*
X83960Y226733D01*
X84194Y226636D01*
X85056D01*
X85852Y226966D01*
X86461Y227575D01*
X86791Y228371D01*
Y229232D01*
X86461Y230028D01*
X85852Y230637D01*
X85056Y230967D01*
D02*
G37*
G36*
X38913Y228690D02*
Y221945D01*
X45658D01*
X45405Y223218D01*
X44818Y224636D01*
X43965Y225912D01*
X42880Y226997D01*
X41604Y227850D01*
X40186Y228437D01*
X38913Y228690D01*
D02*
G37*
G36*
X36913D02*
X35641Y228437D01*
X34223Y227850D01*
X32947Y226997D01*
X31861Y225912D01*
X31009Y224636D01*
X30422Y223218D01*
X30168Y221945D01*
X36913D01*
Y228690D01*
D02*
G37*
G36*
X204160Y230761D02*
X195301D01*
Y221903D01*
X204160D01*
Y230761D01*
D02*
G37*
G36*
X164789D02*
X155931D01*
Y221903D01*
X164789D01*
Y230761D01*
D02*
G37*
G36*
X519120Y230761D02*
X510262D01*
Y221903D01*
X519120D01*
Y230761D01*
D02*
G37*
G36*
X479750D02*
X470892D01*
Y221903D01*
X479750D01*
Y230761D01*
D02*
G37*
G36*
X440380D02*
X431522D01*
Y221903D01*
X440380D01*
Y230761D01*
D02*
G37*
G36*
X401010D02*
X392152D01*
Y221903D01*
X401010D01*
Y230761D01*
D02*
G37*
G36*
X361640D02*
X352782D01*
Y221903D01*
X361640D01*
Y230761D01*
D02*
G37*
G36*
X322270D02*
X313411D01*
Y221903D01*
X322270D01*
Y230761D01*
D02*
G37*
G36*
X282900D02*
X274042D01*
Y221903D01*
X282900D01*
Y230761D01*
D02*
G37*
G36*
X243530D02*
X234671D01*
Y221903D01*
X243530D01*
Y230761D01*
D02*
G37*
G36*
X45658Y219945D02*
X38913D01*
Y213200D01*
X40186Y213453D01*
X41604Y214040D01*
X42880Y214893D01*
X43965Y215978D01*
X44818Y217254D01*
X45405Y218672D01*
X45658Y219945D01*
D02*
G37*
G36*
X36913D02*
X30168D01*
X30422Y218672D01*
X31009Y217254D01*
X31861Y215978D01*
X32947Y214893D01*
X34223Y214040D01*
X35641Y213453D01*
X36913Y213200D01*
Y219945D01*
D02*
G37*
G36*
X436951Y211185D02*
Y207647D01*
X440488D01*
X440276Y208439D01*
X439665Y209497D01*
X438801Y210362D01*
X437743Y210973D01*
X436951Y211185D01*
D02*
G37*
G36*
X358211D02*
Y207647D01*
X361748D01*
X361536Y208439D01*
X360925Y209497D01*
X360061Y210362D01*
X359002Y210973D01*
X358211Y211185D01*
D02*
G37*
G36*
X515691D02*
Y207647D01*
X519229D01*
X519017Y208439D01*
X518405Y209497D01*
X517541Y210362D01*
X516483Y210973D01*
X515691Y211185D01*
D02*
G37*
G36*
X434951D02*
X434159Y210973D01*
X433101Y210362D01*
X432237Y209497D01*
X431626Y208439D01*
X431413Y207647D01*
X434951D01*
Y211185D01*
D02*
G37*
G36*
X356211D02*
X355419Y210973D01*
X354361Y210362D01*
X353497Y209497D01*
X352885Y208439D01*
X352673Y207647D01*
X356211D01*
Y211185D01*
D02*
G37*
G36*
X513691D02*
X512899Y210973D01*
X511841Y210362D01*
X510977Y209497D01*
X510366Y208439D01*
X510154Y207647D01*
X513691D01*
Y211185D01*
D02*
G37*
G36*
X279471D02*
Y207647D01*
X283008D01*
X282796Y208439D01*
X282185Y209497D01*
X281321Y210362D01*
X280262Y210973D01*
X279471Y211185D01*
D02*
G37*
G36*
X200730Y211185D02*
Y207647D01*
X204268D01*
X204056Y208439D01*
X203445Y209497D01*
X202580Y210362D01*
X201522Y210973D01*
X200730Y211185D01*
D02*
G37*
G36*
X277471Y211185D02*
X276679Y210973D01*
X275621Y210362D01*
X274756Y209497D01*
X274145Y208439D01*
X273933Y207647D01*
X277471D01*
Y211185D01*
D02*
G37*
G36*
X198731Y211185D02*
X197939Y210973D01*
X196880Y210362D01*
X196016Y209497D01*
X195405Y208439D01*
X195193Y207647D01*
X198731D01*
Y211185D01*
D02*
G37*
G36*
X474321Y211185D02*
X473529Y210973D01*
X472471Y210362D01*
X471607Y209497D01*
X470996Y208439D01*
X470784Y207647D01*
X474321D01*
Y211185D01*
D02*
G37*
G36*
X395581D02*
X394789Y210973D01*
X393731Y210362D01*
X392866Y209497D01*
X392255Y208439D01*
X392043Y207647D01*
X395581D01*
Y211185D01*
D02*
G37*
G36*
X316841D02*
X316049Y210973D01*
X314991Y210362D01*
X314126Y209497D01*
X313515Y208439D01*
X313303Y207647D01*
X316841D01*
Y211185D01*
D02*
G37*
G36*
X238101D02*
X237309Y210973D01*
X236250Y210362D01*
X235386Y209497D01*
X234775Y208439D01*
X234563Y207647D01*
X238101D01*
Y211185D01*
D02*
G37*
G36*
X159360Y211185D02*
X158569Y210973D01*
X157510Y210362D01*
X156646Y209497D01*
X156035Y208439D01*
X155823Y207647D01*
X159360D01*
Y211185D01*
D02*
G37*
G36*
X47583Y205827D02*
X47118Y205702D01*
X46252Y205202D01*
X45546Y204496D01*
X45046Y203630D01*
X44921Y203165D01*
X47583D01*
Y205827D01*
D02*
G37*
G36*
X476321Y211185D02*
Y206647D01*
Y202110D01*
X477113Y202322D01*
X478171Y202933D01*
X479035Y203797D01*
X479646Y204855D01*
X479963Y206036D01*
Y206425D01*
X480463Y206632D01*
X480663Y206432D01*
X481459Y206102D01*
X482320D01*
X482612Y206223D01*
X482995Y205840D01*
X482874Y205549D01*
Y204687D01*
X483204Y203892D01*
X483813Y203282D01*
X484609Y202953D01*
X485470D01*
X486266Y203282D01*
X486875Y203892D01*
X487205Y204687D01*
Y205549D01*
X486875Y206345D01*
X486266Y206954D01*
X485470Y207283D01*
X484609D01*
X484317Y207163D01*
X483934Y207545D01*
X484055Y207837D01*
Y208698D01*
X483725Y209494D01*
X483116Y210103D01*
X482320Y210433D01*
X481459D01*
X480663Y210103D01*
X480054Y209494D01*
X479870Y209051D01*
X479314Y209014D01*
X479035Y209497D01*
X478171Y210362D01*
X477113Y210973D01*
X476321Y211185D01*
D02*
G37*
G36*
X397581D02*
Y206647D01*
Y202110D01*
X398373Y202322D01*
X399431Y202933D01*
X400295Y203797D01*
X400906Y204855D01*
X401223Y206036D01*
Y206425D01*
X401723Y206632D01*
X401923Y206432D01*
X402719Y206102D01*
X403580D01*
X403872Y206223D01*
X404255Y205840D01*
X404134Y205549D01*
Y204687D01*
X404463Y203892D01*
X405073Y203282D01*
X405868Y202953D01*
X406730D01*
X407526Y203282D01*
X408135Y203892D01*
X408465Y204687D01*
Y205549D01*
X408135Y206345D01*
X407526Y206954D01*
X406730Y207283D01*
X405868D01*
X405577Y207163D01*
X405194Y207545D01*
X405315Y207837D01*
Y208698D01*
X404985Y209494D01*
X404376Y210103D01*
X403580Y210433D01*
X402719D01*
X401923Y210103D01*
X401314Y209494D01*
X401130Y209051D01*
X400574Y209014D01*
X400295Y209497D01*
X399431Y210362D01*
X398373Y210973D01*
X397581Y211185D01*
D02*
G37*
G36*
X318841D02*
Y206647D01*
Y202110D01*
X319632Y202322D01*
X320691Y202933D01*
X321555Y203797D01*
X322166Y204855D01*
X322482Y206036D01*
Y206425D01*
X322982Y206632D01*
X323183Y206432D01*
X323979Y206102D01*
X324840D01*
X325132Y206223D01*
X325515Y205840D01*
X325394Y205549D01*
Y204687D01*
X325723Y203892D01*
X326332Y203282D01*
X327128Y202953D01*
X327990D01*
X328786Y203282D01*
X329395Y203892D01*
X329724Y204687D01*
Y205549D01*
X329395Y206345D01*
X328786Y206954D01*
X327990Y207283D01*
X327128D01*
X326837Y207163D01*
X326454Y207545D01*
X326575Y207837D01*
Y208698D01*
X326245Y209494D01*
X325636Y210103D01*
X324840Y210433D01*
X323979D01*
X323183Y210103D01*
X322574Y209494D01*
X322390Y209051D01*
X321834Y209014D01*
X321555Y209497D01*
X320691Y210362D01*
X319632Y210973D01*
X318841Y211185D01*
D02*
G37*
G36*
X240101Y211185D02*
Y206647D01*
Y202110D01*
X240892Y202322D01*
X241951Y202933D01*
X242815Y203797D01*
X243426Y204855D01*
X243742Y206036D01*
Y206425D01*
X244242Y206632D01*
X244443Y206432D01*
X245239Y206102D01*
X246100D01*
X246392Y206223D01*
X246774Y205840D01*
X246654Y205549D01*
Y204687D01*
X246983Y203892D01*
X247592Y203282D01*
X248388Y202953D01*
X249250D01*
X250045Y203282D01*
X250655Y203892D01*
X250984Y204687D01*
Y205549D01*
X250655Y206345D01*
X250045Y206954D01*
X249250Y207283D01*
X248388D01*
X248096Y207163D01*
X247714Y207545D01*
X247835Y207837D01*
Y208698D01*
X247505Y209494D01*
X246896Y210103D01*
X246100Y210433D01*
X245239D01*
X244443Y210103D01*
X243834Y209494D01*
X243650Y209051D01*
X243094Y209014D01*
X242815Y209497D01*
X241951Y210362D01*
X240892Y210973D01*
X240101Y211185D01*
D02*
G37*
G36*
X161360D02*
Y206647D01*
Y202110D01*
X162152Y202322D01*
X163210Y202933D01*
X164075Y203797D01*
X164686Y204855D01*
X165002Y206036D01*
Y206425D01*
X165502Y206632D01*
X165702Y206432D01*
X166498Y206102D01*
X167360D01*
X167651Y206223D01*
X168034Y205840D01*
X167913Y205549D01*
Y204687D01*
X168243Y203892D01*
X168852Y203282D01*
X169648Y202953D01*
X170509D01*
X171305Y203282D01*
X171914Y203892D01*
X172244Y204687D01*
Y205549D01*
X171914Y206345D01*
X171305Y206954D01*
X170509Y207283D01*
X169648D01*
X169356Y207163D01*
X168974Y207545D01*
X169095Y207837D01*
Y208698D01*
X168765Y209494D01*
X168156Y210103D01*
X167360Y210433D01*
X166498D01*
X165702Y210103D01*
X165093Y209494D01*
X164910Y209051D01*
X164353Y209014D01*
X164075Y209497D01*
X163210Y210362D01*
X162152Y210973D01*
X161360Y211185D01*
D02*
G37*
G36*
X204268Y205647D02*
X200730D01*
Y202110D01*
X201522Y202322D01*
X202580Y202933D01*
X203445Y203797D01*
X204056Y204855D01*
X204268Y205647D01*
D02*
G37*
G36*
X159360Y205647D02*
X155823D01*
X156035Y204855D01*
X156646Y203797D01*
X157510Y202933D01*
X158569Y202322D01*
X159360Y202110D01*
Y205647D01*
D02*
G37*
G36*
X198731Y205647D02*
X195193D01*
X195405Y204855D01*
X196016Y203797D01*
X196880Y202933D01*
X197939Y202322D01*
X198731Y202110D01*
Y205647D01*
D02*
G37*
G36*
X238101Y205647D02*
X234563D01*
X234775Y204855D01*
X235386Y203797D01*
X236250Y202933D01*
X237309Y202322D01*
X238101Y202110D01*
Y205647D01*
D02*
G37*
G36*
X519229Y205647D02*
X515691D01*
Y202110D01*
X516483Y202322D01*
X517541Y202933D01*
X518405Y203797D01*
X519017Y204855D01*
X519229Y205647D01*
D02*
G37*
G36*
X440488D02*
X436951D01*
Y202110D01*
X437743Y202322D01*
X438801Y202933D01*
X439665Y203797D01*
X440276Y204855D01*
X440488Y205647D01*
D02*
G37*
G36*
X361748D02*
X358211D01*
Y202110D01*
X359002Y202322D01*
X360061Y202933D01*
X360925Y203797D01*
X361536Y204855D01*
X361748Y205647D01*
D02*
G37*
G36*
X474321Y205647D02*
X470784D01*
X470996Y204855D01*
X471607Y203797D01*
X472471Y202933D01*
X473529Y202322D01*
X474321Y202110D01*
Y205647D01*
D02*
G37*
G36*
X395581D02*
X392043D01*
X392255Y204855D01*
X392866Y203797D01*
X393731Y202933D01*
X394789Y202322D01*
X395581Y202110D01*
Y205647D01*
D02*
G37*
G36*
X316841D02*
X313303D01*
X313515Y204855D01*
X314126Y203797D01*
X314991Y202933D01*
X316049Y202322D01*
X316841Y202110D01*
Y205647D01*
D02*
G37*
G36*
X283008Y205647D02*
X279471D01*
Y202110D01*
X280262Y202322D01*
X281321Y202933D01*
X282185Y203797D01*
X282796Y204855D01*
X283008Y205647D01*
D02*
G37*
G36*
X277471D02*
X273933D01*
X274145Y204855D01*
X274756Y203797D01*
X275621Y202933D01*
X276679Y202322D01*
X277471Y202110D01*
Y205647D01*
D02*
G37*
G36*
X513691Y205647D02*
X510153D01*
X510366Y204855D01*
X510977Y203797D01*
X511841Y202933D01*
X512899Y202322D01*
X513691Y202110D01*
Y205647D01*
D02*
G37*
G36*
X434951D02*
X431413D01*
X431626Y204855D01*
X432237Y203797D01*
X433101Y202933D01*
X434159Y202322D01*
X434951Y202110D01*
Y205647D01*
D02*
G37*
G36*
X356211D02*
X352673D01*
X352885Y204855D01*
X353497Y203797D01*
X354361Y202933D01*
X355419Y202322D01*
X356211Y202110D01*
Y205647D01*
D02*
G37*
G36*
X78383Y205709D02*
X77522D01*
X76726Y205379D01*
X76117Y204770D01*
X75787Y203974D01*
Y203113D01*
X76117Y202317D01*
X76726Y201708D01*
X77522Y201378D01*
X78383D01*
X79179Y201708D01*
X79788Y202317D01*
X80118Y203113D01*
Y203974D01*
X79788Y204770D01*
X79179Y205379D01*
X78383Y205709D01*
D02*
G37*
G36*
X49583Y205827D02*
Y202165D01*
Y198504D01*
X50048Y198629D01*
X50913Y199128D01*
X51620Y199835D01*
X52119Y200700D01*
X52378Y201666D01*
Y201684D01*
X52874Y201694D01*
X53118Y200782D01*
X53590Y199966D01*
X54257Y199299D01*
X55074Y198827D01*
X55985Y198583D01*
X56928D01*
X57840Y198827D01*
X58657Y199299D01*
X59324Y199966D01*
X59795Y200782D01*
X60039Y201694D01*
Y202637D01*
X59795Y203548D01*
X59324Y204365D01*
X58657Y205032D01*
X57840Y205504D01*
X56928Y205748D01*
X55985D01*
X55074Y205504D01*
X54257Y205032D01*
X53590Y204365D01*
X53118Y203548D01*
X52874Y202637D01*
X52378Y202646D01*
Y202665D01*
X52119Y203630D01*
X51620Y204496D01*
X50913Y205202D01*
X50048Y205702D01*
X49583Y205827D01*
D02*
G37*
G36*
X47583Y201165D02*
X44921D01*
X45046Y200700D01*
X45546Y199835D01*
X46252Y199128D01*
X47118Y198629D01*
X47583Y198504D01*
Y201165D01*
D02*
G37*
G36*
X256732Y197382D02*
X255866D01*
X255030Y197158D01*
X254281Y196725D01*
X253669Y196113D01*
X253236Y195363D01*
X253012Y194527D01*
Y193662D01*
X253236Y192826D01*
X253669Y192076D01*
X254281Y191464D01*
X255030Y191031D01*
X255866Y190807D01*
X256732D01*
X257568Y191031D01*
X258318Y191464D01*
X258930Y192076D01*
X259363Y192826D01*
X259587Y193662D01*
Y194527D01*
X259363Y195363D01*
X258930Y196113D01*
X258318Y196725D01*
X257568Y197158D01*
X256732Y197382D01*
D02*
G37*
G36*
X178116Y196942D02*
X177250D01*
X176414Y196718D01*
X175665Y196286D01*
X175053Y195674D01*
X174620Y194924D01*
X174396Y194088D01*
Y193222D01*
X174620Y192386D01*
X175053Y191637D01*
X175665Y191024D01*
X176414Y190592D01*
X177250Y190368D01*
X178116D01*
X178952Y190592D01*
X179702Y191024D01*
X180314Y191637D01*
X180747Y192386D01*
X180971Y193222D01*
Y194088D01*
X180747Y194924D01*
X180314Y195674D01*
X179702Y196286D01*
X178952Y196718D01*
X178116Y196942D01*
D02*
G37*
G36*
X493077Y196942D02*
X492211D01*
X491375Y196718D01*
X490625Y196286D01*
X490013Y195674D01*
X489580Y194924D01*
X489356Y194088D01*
Y193222D01*
X489580Y192386D01*
X490013Y191637D01*
X490625Y191024D01*
X491375Y190592D01*
X492211Y190368D01*
X493077D01*
X493913Y190592D01*
X494662Y191024D01*
X495274Y191637D01*
X495707Y192386D01*
X495931Y193222D01*
Y194088D01*
X495707Y194924D01*
X495274Y195674D01*
X494662Y196286D01*
X493913Y196718D01*
X493077Y196942D01*
D02*
G37*
G36*
X414336D02*
X413471D01*
X412635Y196718D01*
X411885Y196286D01*
X411273Y195674D01*
X410840Y194924D01*
X410616Y194088D01*
Y193222D01*
X410840Y192386D01*
X411273Y191637D01*
X411885Y191024D01*
X412635Y190592D01*
X413471Y190368D01*
X414336D01*
X415172Y190592D01*
X415922Y191024D01*
X416534Y191637D01*
X416967Y192386D01*
X417191Y193222D01*
Y194088D01*
X416967Y194924D01*
X416534Y195674D01*
X415922Y196286D01*
X415172Y196718D01*
X414336Y196942D01*
D02*
G37*
G36*
X335596D02*
X334731D01*
X333895Y196718D01*
X333145Y196286D01*
X332533Y195674D01*
X332100Y194924D01*
X331876Y194088D01*
Y193222D01*
X332100Y192386D01*
X332533Y191637D01*
X333145Y191024D01*
X333895Y190592D01*
X334731Y190368D01*
X335596D01*
X336432Y190592D01*
X337182Y191024D01*
X337794Y191637D01*
X338227Y192386D01*
X338451Y193222D01*
Y194088D01*
X338227Y194924D01*
X337794Y195674D01*
X337182Y196286D01*
X336432Y196718D01*
X335596Y196942D01*
D02*
G37*
G36*
X87107Y196653D02*
X86122D01*
X85171Y196399D01*
X84318Y195906D01*
X83621Y195210D01*
X83129Y194357D01*
X82874Y193406D01*
Y192421D01*
X83129Y191470D01*
X83621Y190617D01*
X84318Y189920D01*
X85171Y189428D01*
X86122Y189173D01*
X87107D01*
X88058Y189428D01*
X88911Y189920D01*
X89607Y190617D01*
X90099Y191470D01*
X90354Y192421D01*
Y193406D01*
X90099Y194357D01*
X89607Y195210D01*
X88911Y195906D01*
X88058Y196399D01*
X87107Y196653D01*
D02*
G37*
G36*
X56928Y195905D02*
X55985D01*
X55074Y195661D01*
X54257Y195190D01*
X53590Y194523D01*
X53118Y193706D01*
X52874Y192795D01*
Y191851D01*
X53118Y190940D01*
X53590Y190123D01*
X54257Y189456D01*
X55074Y188984D01*
X55985Y188740D01*
X56928D01*
X57840Y188984D01*
X58657Y189456D01*
X59324Y190123D01*
X59795Y190940D01*
X60039Y191851D01*
Y192795D01*
X59795Y193706D01*
X59324Y194523D01*
X58657Y195190D01*
X57840Y195661D01*
X56928Y195905D01*
D02*
G37*
G36*
X49054Y195905D02*
X48111D01*
X47200Y195661D01*
X46383Y195190D01*
X45716Y194523D01*
X45244Y193706D01*
X45000Y192795D01*
Y191851D01*
X45244Y190940D01*
X45716Y190123D01*
X46383Y189456D01*
X47200Y188984D01*
X48111Y188740D01*
X49054D01*
X49966Y188984D01*
X50783Y189456D01*
X51450Y190123D01*
X51921Y190940D01*
X52165Y191851D01*
Y192795D01*
X51921Y193706D01*
X51450Y194523D01*
X50783Y195190D01*
X49966Y195661D01*
X49054Y195905D01*
D02*
G37*
G36*
X71496Y193051D02*
X70630D01*
X69794Y192827D01*
X69045Y192394D01*
X68432Y191782D01*
X68000Y191033D01*
X67776Y190197D01*
Y189331D01*
X68000Y188495D01*
X68432Y187745D01*
X69045Y187133D01*
X69794Y186700D01*
X70630Y186476D01*
X71496D01*
X72332Y186700D01*
X73081Y187133D01*
X73694Y187745D01*
X74126Y188495D01*
X74350Y189331D01*
Y190197D01*
X74126Y191033D01*
X73694Y191782D01*
X73081Y192394D01*
X72332Y192827D01*
X71496Y193051D01*
D02*
G37*
G36*
X204160Y191391D02*
X195301D01*
Y182533D01*
X204160D01*
Y191391D01*
D02*
G37*
G36*
X164789D02*
X155931D01*
Y182533D01*
X164789D01*
Y191391D01*
D02*
G37*
G36*
X519120Y191391D02*
X510262D01*
Y182533D01*
X519120D01*
Y191391D01*
D02*
G37*
G36*
X479750D02*
X470892D01*
Y182533D01*
X479750D01*
Y191391D01*
D02*
G37*
G36*
X440380D02*
X431522D01*
Y182533D01*
X440380D01*
Y191391D01*
D02*
G37*
G36*
X401010D02*
X392152D01*
Y182533D01*
X401010D01*
Y191391D01*
D02*
G37*
G36*
X361640D02*
X352782D01*
Y182533D01*
X361640D01*
Y191391D01*
D02*
G37*
G36*
X322270D02*
X313411D01*
Y182533D01*
X322270D01*
Y191391D01*
D02*
G37*
G36*
X282900D02*
X274042D01*
Y182533D01*
X282900D01*
Y191391D01*
D02*
G37*
G36*
X243530D02*
X234671D01*
Y182533D01*
X243530D01*
Y191391D01*
D02*
G37*
G36*
X117362Y185571D02*
X116496D01*
X115660Y185347D01*
X114911Y184914D01*
X114298Y184302D01*
X113866Y183552D01*
X113642Y182716D01*
Y181851D01*
X113866Y181015D01*
X114298Y180265D01*
X114911Y179653D01*
X115660Y179220D01*
X116496Y178996D01*
X117362D01*
X118198Y179220D01*
X118948Y179653D01*
X119560Y180265D01*
X119992Y181015D01*
X120217Y181851D01*
Y182716D01*
X119992Y183552D01*
X119560Y184302D01*
X118948Y184914D01*
X118198Y185347D01*
X117362Y185571D01*
D02*
G37*
G36*
X127204Y185571D02*
X126339D01*
X125503Y185347D01*
X124753Y184914D01*
X124141Y184302D01*
X123708Y183552D01*
X123484Y182716D01*
Y181851D01*
X123708Y181015D01*
X124141Y180265D01*
X124753Y179653D01*
X125503Y179220D01*
X126339Y178996D01*
X127204D01*
X128041Y179220D01*
X128790Y179653D01*
X129402Y180265D01*
X129835Y181015D01*
X130059Y181851D01*
Y182716D01*
X129835Y183552D01*
X129402Y184302D01*
X128790Y184914D01*
X128041Y185347D01*
X127204Y185571D01*
D02*
G37*
G36*
X85767Y181732D02*
X84902D01*
X84066Y181508D01*
X83316Y181076D01*
X82704Y180463D01*
X82271Y179714D01*
X82047Y178878D01*
Y178012D01*
X82271Y177176D01*
X82704Y176426D01*
X83316Y175814D01*
X84066Y175382D01*
X84902Y175157D01*
X85767D01*
X86603Y175382D01*
X87353Y175814D01*
X87965Y176426D01*
X88398Y177176D01*
X88622Y178012D01*
Y178878D01*
X88398Y179714D01*
X87965Y180463D01*
X87353Y181076D01*
X86603Y181508D01*
X85767Y181732D01*
D02*
G37*
G36*
X38913Y181288D02*
Y174543D01*
X45658D01*
X45405Y175816D01*
X44818Y177234D01*
X43965Y178510D01*
X42880Y179595D01*
X41604Y180448D01*
X40186Y181035D01*
X38913Y181288D01*
D02*
G37*
G36*
X36913D02*
X35641Y181035D01*
X34223Y180448D01*
X32947Y179595D01*
X31861Y178510D01*
X31009Y177234D01*
X30422Y175816D01*
X30168Y174543D01*
X36913D01*
Y181288D01*
D02*
G37*
G36*
X62537Y173622D02*
X61676D01*
X60880Y173292D01*
X60271Y172683D01*
X59941Y171887D01*
Y171026D01*
X60271Y170230D01*
X60880Y169621D01*
X61676Y169291D01*
X62537D01*
X63333Y169621D01*
X63942Y170230D01*
X64272Y171026D01*
Y171887D01*
X63942Y172683D01*
X63333Y173292D01*
X62537Y173622D01*
D02*
G37*
G36*
X515691Y171815D02*
Y168277D01*
X519229D01*
X519017Y169069D01*
X518405Y170127D01*
X517541Y170991D01*
X516483Y171602D01*
X515691Y171815D01*
D02*
G37*
G36*
X436951D02*
Y168277D01*
X440488D01*
X440276Y169069D01*
X439665Y170127D01*
X438801Y170991D01*
X437743Y171602D01*
X436951Y171815D01*
D02*
G37*
G36*
X358211D02*
Y168277D01*
X361748D01*
X361536Y169069D01*
X360925Y170127D01*
X360061Y170991D01*
X359002Y171602D01*
X358211Y171815D01*
D02*
G37*
G36*
X434951Y171815D02*
X434159Y171602D01*
X433101Y170991D01*
X432237Y170127D01*
X431626Y169069D01*
X431413Y168277D01*
X434951D01*
Y171815D01*
D02*
G37*
G36*
X356211D02*
X355419Y171602D01*
X354361Y170991D01*
X353497Y170127D01*
X352885Y169069D01*
X352673Y168277D01*
X356211D01*
Y171815D01*
D02*
G37*
G36*
X513691D02*
X512899Y171602D01*
X511841Y170991D01*
X510977Y170127D01*
X510366Y169069D01*
X510154Y168277D01*
X513691D01*
Y171815D01*
D02*
G37*
G36*
X200730D02*
Y168277D01*
X204268D01*
X204056Y169069D01*
X203445Y170127D01*
X202580Y170991D01*
X201522Y171602D01*
X200730Y171815D01*
D02*
G37*
G36*
X279471Y171815D02*
Y168277D01*
X283008D01*
X282796Y169069D01*
X282185Y170127D01*
X281321Y170991D01*
X280262Y171602D01*
X279471Y171815D01*
D02*
G37*
G36*
X277471D02*
X276679Y171602D01*
X275621Y170991D01*
X274756Y170127D01*
X274145Y169069D01*
X273933Y168277D01*
X277471D01*
Y171815D01*
D02*
G37*
G36*
X198731Y171815D02*
X197939Y171602D01*
X196880Y170991D01*
X196016Y170127D01*
X195405Y169069D01*
X195193Y168277D01*
X198731D01*
Y171815D01*
D02*
G37*
G36*
X474321Y171815D02*
X473529Y171602D01*
X472471Y170991D01*
X471607Y170127D01*
X470996Y169069D01*
X470784Y168277D01*
X474321D01*
Y171815D01*
D02*
G37*
G36*
X395581D02*
X394789Y171602D01*
X393731Y170991D01*
X392866Y170127D01*
X392255Y169069D01*
X392043Y168277D01*
X395581D01*
Y171815D01*
D02*
G37*
G36*
X316841D02*
X316049Y171602D01*
X314991Y170991D01*
X314126Y170127D01*
X313515Y169069D01*
X313303Y168277D01*
X316841D01*
Y171815D01*
D02*
G37*
G36*
X238101D02*
X237309Y171602D01*
X236250Y170991D01*
X235386Y170127D01*
X234775Y169069D01*
X234563Y168277D01*
X238101D01*
Y171815D01*
D02*
G37*
G36*
X159360Y171815D02*
X158569Y171602D01*
X157510Y170991D01*
X156646Y170127D01*
X156035Y169069D01*
X155823Y168277D01*
X159360D01*
Y171815D01*
D02*
G37*
G36*
X76710Y171555D02*
X75849D01*
X75053Y171226D01*
X74444Y170616D01*
X74114Y169820D01*
Y168959D01*
X74444Y168163D01*
X75053Y167554D01*
X75849Y167224D01*
X76710D01*
X77506Y167554D01*
X78115Y168163D01*
X78445Y168959D01*
Y169820D01*
X78115Y170616D01*
X77506Y171226D01*
X76710Y171555D01*
D02*
G37*
G36*
X27596Y170576D02*
X26735D01*
X25939Y170246D01*
X25330Y169637D01*
X25000Y168841D01*
Y167980D01*
X25330Y167184D01*
X25939Y166575D01*
X26735Y166245D01*
X27596D01*
X28392Y166575D01*
X29001Y167184D01*
X29331Y167980D01*
Y168841D01*
X29001Y169637D01*
X28392Y170246D01*
X27596Y170576D01*
D02*
G37*
G36*
X36913Y172543D02*
X30168D01*
X30422Y171271D01*
X31009Y169853D01*
X31861Y168577D01*
X32947Y167491D01*
X34223Y166639D01*
X35641Y166051D01*
X36913Y165798D01*
Y172543D01*
D02*
G37*
G36*
X45658D02*
X38913D01*
Y165798D01*
X40186Y166051D01*
X41604Y166639D01*
X42880Y167491D01*
X43965Y168577D01*
X44818Y169853D01*
X45405Y171271D01*
X45658Y172543D01*
D02*
G37*
G36*
X476321Y171815D02*
Y167277D01*
Y162740D01*
X477113Y162952D01*
X478171Y163563D01*
X479035Y164427D01*
X479646Y165486D01*
X479963Y166666D01*
Y167055D01*
X480463Y167262D01*
X480663Y167062D01*
X481459Y166732D01*
X482320D01*
X482612Y166853D01*
X482995Y166470D01*
X482874Y166179D01*
Y165317D01*
X483204Y164522D01*
X483813Y163912D01*
X484609Y163583D01*
X485470D01*
X486266Y163912D01*
X486875Y164522D01*
X487205Y165317D01*
Y166179D01*
X486875Y166975D01*
X486266Y167584D01*
X485470Y167913D01*
X484609D01*
X484317Y167793D01*
X483934Y168175D01*
X484055Y168467D01*
Y169328D01*
X483725Y170124D01*
X483116Y170733D01*
X482320Y171063D01*
X481459D01*
X480663Y170733D01*
X480054Y170124D01*
X479870Y169681D01*
X479314Y169644D01*
X479035Y170127D01*
X478171Y170991D01*
X477113Y171602D01*
X476321Y171815D01*
D02*
G37*
G36*
X397581D02*
Y167277D01*
Y162740D01*
X398373Y162952D01*
X399431Y163563D01*
X400295Y164427D01*
X400906Y165486D01*
X401223Y166666D01*
Y167055D01*
X401723Y167262D01*
X401923Y167062D01*
X402719Y166732D01*
X403580D01*
X403872Y166853D01*
X404255Y166470D01*
X404134Y166179D01*
Y165317D01*
X404463Y164522D01*
X405073Y163912D01*
X405868Y163583D01*
X406730D01*
X407526Y163912D01*
X408135Y164522D01*
X408465Y165317D01*
Y166179D01*
X408135Y166975D01*
X407526Y167584D01*
X406730Y167913D01*
X405868D01*
X405577Y167793D01*
X405194Y168175D01*
X405315Y168467D01*
Y169328D01*
X404985Y170124D01*
X404376Y170733D01*
X403580Y171063D01*
X402719D01*
X401923Y170733D01*
X401314Y170124D01*
X401130Y169681D01*
X400574Y169644D01*
X400295Y170127D01*
X399431Y170991D01*
X398373Y171602D01*
X397581Y171815D01*
D02*
G37*
G36*
X318841D02*
Y167277D01*
Y162740D01*
X319632Y162952D01*
X320691Y163563D01*
X321555Y164427D01*
X322166Y165486D01*
X322482Y166666D01*
Y167055D01*
X322982Y167262D01*
X323183Y167062D01*
X323979Y166732D01*
X324840D01*
X325132Y166853D01*
X325515Y166470D01*
X325394Y166179D01*
Y165317D01*
X325723Y164522D01*
X326332Y163912D01*
X327128Y163583D01*
X327990D01*
X328786Y163912D01*
X329395Y164522D01*
X329724Y165317D01*
Y166179D01*
X329395Y166975D01*
X328786Y167584D01*
X327990Y167913D01*
X327128D01*
X326837Y167793D01*
X326454Y168175D01*
X326575Y168467D01*
Y169328D01*
X326245Y170124D01*
X325636Y170733D01*
X324840Y171063D01*
X323979D01*
X323183Y170733D01*
X322574Y170124D01*
X322390Y169681D01*
X321834Y169644D01*
X321555Y170127D01*
X320691Y170991D01*
X319632Y171602D01*
X318841Y171815D01*
D02*
G37*
G36*
X240101D02*
Y167277D01*
Y162740D01*
X240892Y162952D01*
X241951Y163563D01*
X242815Y164427D01*
X243426Y165486D01*
X243742Y166666D01*
Y167055D01*
X244242Y167262D01*
X244443Y167062D01*
X245239Y166732D01*
X246100D01*
X246392Y166853D01*
X246774Y166470D01*
X246654Y166179D01*
Y165317D01*
X246983Y164522D01*
X247592Y163912D01*
X248388Y163583D01*
X249250D01*
X250045Y163912D01*
X250655Y164522D01*
X250984Y165317D01*
Y166179D01*
X250655Y166975D01*
X250045Y167584D01*
X249250Y167913D01*
X248388D01*
X248096Y167793D01*
X247714Y168175D01*
X247835Y168467D01*
Y169328D01*
X247505Y170124D01*
X246896Y170733D01*
X246100Y171063D01*
X245239D01*
X244443Y170733D01*
X243834Y170124D01*
X243650Y169681D01*
X243094Y169644D01*
X242815Y170127D01*
X241951Y170991D01*
X240892Y171602D01*
X240101Y171815D01*
D02*
G37*
G36*
X161360Y171815D02*
Y167277D01*
Y162740D01*
X162152Y162952D01*
X163210Y163563D01*
X164075Y164427D01*
X164686Y165486D01*
X165002Y166666D01*
Y167055D01*
X165502Y167262D01*
X165702Y167062D01*
X166498Y166732D01*
X167360D01*
X167651Y166853D01*
X168034Y166470D01*
X167913Y166179D01*
Y165317D01*
X168243Y164522D01*
X168852Y163912D01*
X169648Y163583D01*
X170509D01*
X171305Y163912D01*
X171914Y164522D01*
X172244Y165317D01*
Y166179D01*
X171914Y166975D01*
X171305Y167584D01*
X170509Y167913D01*
X169648D01*
X169356Y167793D01*
X168974Y168175D01*
X169095Y168467D01*
Y169328D01*
X168765Y170124D01*
X168156Y170733D01*
X167360Y171063D01*
X166498D01*
X165702Y170733D01*
X165093Y170124D01*
X164910Y169681D01*
X164353Y169644D01*
X164075Y170127D01*
X163210Y170991D01*
X162152Y171602D01*
X161360Y171815D01*
D02*
G37*
G36*
X204268Y166277D02*
X200730D01*
Y162740D01*
X201522Y162952D01*
X202580Y163563D01*
X203445Y164427D01*
X204056Y165486D01*
X204268Y166277D01*
D02*
G37*
G36*
X159360Y166277D02*
X155823D01*
X156035Y165486D01*
X156646Y164427D01*
X157510Y163563D01*
X158569Y162952D01*
X159360Y162740D01*
Y166277D01*
D02*
G37*
G36*
X519229Y166277D02*
X515691D01*
Y162740D01*
X516483Y162952D01*
X517541Y163563D01*
X518405Y164427D01*
X519017Y165486D01*
X519229Y166277D01*
D02*
G37*
G36*
X440488D02*
X436951D01*
Y162740D01*
X437743Y162952D01*
X438801Y163563D01*
X439665Y164427D01*
X440276Y165486D01*
X440488Y166277D01*
D02*
G37*
G36*
X361748D02*
X358211D01*
Y162740D01*
X359002Y162952D01*
X360061Y163563D01*
X360925Y164427D01*
X361536Y165486D01*
X361748Y166277D01*
D02*
G37*
G36*
X198731Y166277D02*
X195193D01*
X195405Y165486D01*
X196016Y164427D01*
X196880Y163563D01*
X197939Y162952D01*
X198731Y162740D01*
Y166277D01*
D02*
G37*
G36*
X283008D02*
X279471D01*
Y162740D01*
X280262Y162952D01*
X281321Y163563D01*
X282185Y164427D01*
X282796Y165486D01*
X283008Y166277D01*
D02*
G37*
G36*
X238101Y166277D02*
X234563D01*
X234775Y165486D01*
X235386Y164427D01*
X236250Y163563D01*
X237309Y162952D01*
X238101Y162740D01*
Y166277D01*
D02*
G37*
G36*
X474321Y166277D02*
X470784D01*
X470996Y165486D01*
X471607Y164427D01*
X472471Y163563D01*
X473529Y162952D01*
X474321Y162740D01*
Y166277D01*
D02*
G37*
G36*
X395581D02*
X392043D01*
X392255Y165486D01*
X392866Y164427D01*
X393731Y163563D01*
X394789Y162952D01*
X395581Y162740D01*
Y166277D01*
D02*
G37*
G36*
X316841D02*
X313303D01*
X313515Y165486D01*
X314126Y164427D01*
X314991Y163563D01*
X316049Y162952D01*
X316841Y162740D01*
Y166277D01*
D02*
G37*
G36*
X277471Y166277D02*
X273933D01*
X274145Y165486D01*
X274756Y164427D01*
X275621Y163563D01*
X276679Y162952D01*
X277471Y162740D01*
Y166277D01*
D02*
G37*
G36*
X434951Y166277D02*
X431413D01*
X431626Y165486D01*
X432237Y164427D01*
X433101Y163563D01*
X434159Y162952D01*
X434951Y162740D01*
Y166277D01*
D02*
G37*
G36*
X356211D02*
X352673D01*
X352885Y165486D01*
X353497Y164427D01*
X354361Y163563D01*
X355419Y162952D01*
X356211Y162740D01*
Y166277D01*
D02*
G37*
G36*
X513691D02*
X510153D01*
X510366Y165486D01*
X510977Y164427D01*
X511841Y163563D01*
X512899Y162952D01*
X513691Y162740D01*
Y166277D01*
D02*
G37*
G36*
X22185Y162301D02*
X21324D01*
X20528Y161971D01*
X19919Y161362D01*
X19589Y160566D01*
Y160558D01*
X19089Y160351D01*
X18943Y160497D01*
X18147Y160827D01*
X17286D01*
X16490Y160497D01*
X15881Y159888D01*
X15551Y159092D01*
Y158231D01*
X15672Y157938D01*
X15290Y157555D01*
X14997Y157677D01*
X14136D01*
X13340Y157347D01*
X12731Y156738D01*
X12401Y155942D01*
Y155424D01*
X12111Y154989D01*
X11973Y154298D01*
Y136614D01*
X12111Y135923D01*
X12502Y135337D01*
X14729Y133110D01*
Y124016D01*
Y108268D01*
X14867Y107576D01*
X15258Y106990D01*
X22603Y99646D01*
Y94363D01*
X22103Y94156D01*
X21699Y94560D01*
X20903Y94890D01*
X20042D01*
X19476Y94655D01*
X19093Y95038D01*
X19094Y95042D01*
Y95903D01*
X18765Y96699D01*
X18156Y97308D01*
X17360Y97638D01*
X16498D01*
X16485Y97632D01*
X16103Y98015D01*
X16339Y98585D01*
Y99446D01*
X16009Y100242D01*
X15400Y100851D01*
X14604Y101181D01*
X13743D01*
X12947Y100851D01*
X12338Y100242D01*
X12008Y99446D01*
Y98585D01*
X12338Y97789D01*
X12947Y97180D01*
X13743Y96850D01*
X14604D01*
X14617Y96856D01*
X15000Y96473D01*
X14764Y95903D01*
Y95042D01*
X15093Y94246D01*
X15703Y93637D01*
X16498Y93307D01*
X17360D01*
X17926Y93542D01*
X18309Y93159D01*
X18307Y93155D01*
Y92294D01*
X18637Y91498D01*
X19246Y90889D01*
X20042Y90559D01*
X20903D01*
X21699Y90889D01*
X22103Y91293D01*
X22603Y91086D01*
Y85000D01*
X17330Y79727D01*
X16938Y79141D01*
X16800Y78449D01*
Y42190D01*
X7417Y32806D01*
X6917Y33013D01*
Y79647D01*
X6994Y79724D01*
X7124D01*
X7920Y80054D01*
X8529Y80663D01*
X8858Y81459D01*
Y82320D01*
X8529Y83116D01*
X7920Y83726D01*
X7124Y84055D01*
X6262D01*
X5466Y83726D01*
X4857Y83116D01*
X4528Y82320D01*
Y81459D01*
X4594Y81298D01*
X4518Y81223D01*
X4214Y80767D01*
X4107Y80229D01*
Y24803D01*
X4214Y24265D01*
X4518Y23810D01*
X21700Y6628D01*
X22156Y6323D01*
X22694Y6216D01*
X46906D01*
X47007Y5840D01*
X47499Y4987D01*
X48196Y4291D01*
X49049Y3798D01*
X50000Y3543D01*
X50985D01*
X51936Y3798D01*
X52789Y4291D01*
X53485Y4987D01*
X53977Y5840D01*
X54232Y6791D01*
Y7776D01*
X54138Y8129D01*
X54386Y8342D01*
X54579Y8415D01*
X54974Y8151D01*
X55512Y8044D01*
X61522D01*
X61720Y7786D01*
Y6801D01*
X61974Y5850D01*
X62467Y4997D01*
X63163Y4301D01*
X64016Y3808D01*
X64967Y3553D01*
X65952D01*
X66903Y3808D01*
X67756Y4301D01*
X68453Y4997D01*
X68945Y5850D01*
X69200Y6801D01*
Y7786D01*
X68945Y8737D01*
X68453Y9590D01*
X67756Y10286D01*
X67733Y10300D01*
X67867Y10800D01*
X70006D01*
X72034Y8772D01*
X72014Y8737D01*
X71759Y7786D01*
Y6801D01*
X72014Y5850D01*
X72506Y4997D01*
X73203Y4301D01*
X74055Y3808D01*
X75007Y3553D01*
X75991D01*
X76943Y3808D01*
X77796Y4301D01*
X78492Y4997D01*
X78984Y5850D01*
X79239Y6801D01*
Y7786D01*
X78984Y8737D01*
X78492Y9590D01*
X77796Y10286D01*
X76943Y10779D01*
X75991Y11033D01*
X75007D01*
X74055Y10779D01*
X74021Y10759D01*
X71581Y13198D01*
X71125Y13503D01*
X70588Y13610D01*
X64755D01*
X64003Y14362D01*
Y16929D01*
X63896Y17467D01*
X63592Y17923D01*
X61230Y20285D01*
X60774Y20589D01*
X60236Y20696D01*
X55512D01*
X54974Y20589D01*
X54712Y20414D01*
X54277Y20725D01*
X54318Y20878D01*
Y21863D01*
X54063Y22814D01*
X53571Y23667D01*
X52875Y24363D01*
X52022Y24856D01*
X51071Y25111D01*
X50086D01*
X49135Y24856D01*
X48282Y24363D01*
X47585Y23667D01*
X47093Y22814D01*
X46838Y21863D01*
Y20878D01*
X47093Y19927D01*
X47585Y19074D01*
X48219Y18440D01*
X48131Y17940D01*
X33668D01*
X20696Y30912D01*
Y33358D01*
X20589Y33896D01*
X20563Y33935D01*
Y34683D01*
X20233Y35478D01*
X19624Y36088D01*
X18828Y36417D01*
X17967D01*
X17171Y36088D01*
X16562Y35478D01*
X16232Y34683D01*
Y34123D01*
X16196Y33809D01*
X15770Y33661D01*
X15317D01*
X14522Y33332D01*
X13912Y32723D01*
X13583Y31927D01*
Y31367D01*
X13464Y31024D01*
X13121Y30906D01*
X12561D01*
X11766Y30576D01*
X11156Y29967D01*
X10827Y29171D01*
Y28309D01*
X11156Y27514D01*
X11766Y26904D01*
X12561Y26575D01*
X13423D01*
X13486Y26601D01*
X14836Y25251D01*
X14739Y24760D01*
X14522Y24670D01*
X14492Y24641D01*
X12559D01*
X10074Y27126D01*
Y30354D01*
X19884Y40164D01*
X20276Y40750D01*
X20413Y41441D01*
Y69737D01*
X20829Y70015D01*
X21038Y69928D01*
X21900D01*
X22695Y70258D01*
X23305Y70867D01*
X23634Y71663D01*
Y72472D01*
X23993Y72864D01*
X24065Y72835D01*
X24927D01*
X25722Y73164D01*
X26331Y73773D01*
X26661Y74569D01*
Y75244D01*
X26718Y75468D01*
X27088Y75706D01*
X27641D01*
X28437Y76036D01*
X29046Y76645D01*
X29375Y77441D01*
Y78003D01*
X29526Y78355D01*
X29837Y78462D01*
X30434D01*
X31230Y78792D01*
X31839Y79401D01*
X32169Y80197D01*
Y80837D01*
X32246Y81100D01*
X32610Y81299D01*
X33165D01*
X33961Y81629D01*
X34570Y82238D01*
X34900Y83034D01*
Y83895D01*
X34570Y84691D01*
X33961Y85300D01*
X33165Y85630D01*
X32304D01*
X31508Y85300D01*
X30899Y84691D01*
X30569Y83895D01*
Y83255D01*
X30492Y82992D01*
X30128Y82793D01*
X29573D01*
X28777Y82464D01*
X28168Y81854D01*
X27838Y81059D01*
Y80497D01*
X27687Y80145D01*
X27376Y80037D01*
X26779D01*
X25984Y79707D01*
X25374Y79098D01*
X25045Y78303D01*
Y77627D01*
X24988Y77404D01*
X24618Y77165D01*
X24065D01*
X23269Y76836D01*
X22660Y76227D01*
X22330Y75431D01*
Y74621D01*
X21971Y74229D01*
X21900Y74259D01*
X21038D01*
X20829Y74172D01*
X20413Y74450D01*
Y77701D01*
X25687Y82975D01*
X26078Y83561D01*
X26216Y84252D01*
Y90626D01*
X26716Y90928D01*
X27259Y90703D01*
X28120D01*
X28916Y91032D01*
X29525Y91641D01*
X29855Y92437D01*
Y93299D01*
X29739Y93580D01*
X30121Y93963D01*
X30278Y93898D01*
X31139D01*
X31935Y94227D01*
X32544Y94836D01*
X32874Y95632D01*
Y96494D01*
X32544Y97290D01*
X31935Y97899D01*
X31139Y98228D01*
X30278D01*
X29482Y97899D01*
X28873Y97290D01*
X28543Y96494D01*
Y95632D01*
X28660Y95351D01*
X28277Y94969D01*
X28120Y95034D01*
X27259D01*
X26716Y94809D01*
X26216Y95110D01*
Y100394D01*
X26078Y101085D01*
X25687Y101671D01*
X18342Y109016D01*
Y122209D01*
X34252D01*
X34943Y122347D01*
X35529Y122739D01*
X39366Y126575D01*
X39407D01*
X40203Y126904D01*
X40812Y127514D01*
X41142Y128310D01*
Y129171D01*
X40812Y129967D01*
X40203Y130576D01*
X39407Y130905D01*
X38546D01*
X37750Y130576D01*
X37141Y129967D01*
X36811Y129171D01*
Y129129D01*
X33504Y125822D01*
X18342D01*
Y133858D01*
X18204Y134549D01*
X17813Y135136D01*
X15586Y137362D01*
Y153550D01*
X15655Y153618D01*
X15793Y153676D01*
X16402Y154285D01*
X16732Y155081D01*
Y155942D01*
X16611Y156235D01*
X16994Y156617D01*
X17286Y156496D01*
X18147D01*
X18943Y156826D01*
X19552Y157435D01*
X19882Y158231D01*
Y158238D01*
X20382Y158446D01*
X20528Y158299D01*
X21324Y157970D01*
X22185D01*
X22981Y158299D01*
X23590Y158909D01*
X23920Y159704D01*
Y160566D01*
X23590Y161362D01*
X22981Y161971D01*
X22185Y162301D01*
D02*
G37*
G36*
X8760Y168307D02*
X7775D01*
X6824Y168052D01*
X5971Y167560D01*
X5275Y166863D01*
X4783Y166011D01*
X4528Y165059D01*
Y164075D01*
X4783Y163123D01*
X5275Y162270D01*
X5971Y161574D01*
X6400Y161327D01*
X6266Y160827D01*
X6262D01*
X5466Y160497D01*
X4857Y159888D01*
X4528Y159092D01*
Y158231D01*
X4857Y157435D01*
X5466Y156826D01*
X6262Y156496D01*
X7124D01*
X7920Y156826D01*
X8529Y157435D01*
X8858Y158231D01*
Y159092D01*
X8529Y159888D01*
X8090Y160327D01*
X8297Y160827D01*
X8760D01*
X9711Y161082D01*
X10564Y161574D01*
X11261Y162270D01*
X11753Y163123D01*
X12008Y164075D01*
Y165059D01*
X11753Y166011D01*
X11261Y166863D01*
X10564Y167560D01*
X9711Y168052D01*
X8760Y168307D01*
D02*
G37*
G36*
X28391Y160433D02*
X27530D01*
X26734Y160103D01*
X26125Y159494D01*
X25795Y158698D01*
Y157837D01*
X26125Y157041D01*
X26734Y156432D01*
X27530Y156102D01*
X28391D01*
X29187Y156432D01*
X29796Y157041D01*
X30126Y157837D01*
Y158698D01*
X29796Y159494D01*
X29187Y160103D01*
X28391Y160433D01*
D02*
G37*
G36*
X79565Y153347D02*
X78703D01*
X77907Y153017D01*
X77677Y152787D01*
X75591D01*
X75590Y152787D01*
X74976Y152664D01*
X74455Y152316D01*
X74455Y152316D01*
X73274Y151135D01*
X72926Y150615D01*
X72804Y150000D01*
X72804Y150000D01*
Y147122D01*
X72170Y146487D01*
X66929D01*
X66929Y146488D01*
X66315Y146365D01*
X65794Y146017D01*
X65794Y146017D01*
X45972Y126196D01*
X45472Y126403D01*
Y126809D01*
X45143Y127604D01*
X44534Y128214D01*
X43738Y128543D01*
X42876D01*
X42081Y128214D01*
X41471Y127604D01*
X41142Y126809D01*
Y125947D01*
X41471Y125151D01*
X42081Y124542D01*
X42642Y124310D01*
X42673Y124251D01*
X42736Y123751D01*
X42259Y123274D01*
X41929Y122478D01*
Y121616D01*
X42259Y120821D01*
X42868Y120212D01*
X43394Y119994D01*
X43527Y119420D01*
X39000Y114893D01*
X36890D01*
X36660Y115123D01*
X35864Y115453D01*
X35002D01*
X34207Y115123D01*
X33597Y114514D01*
X33268Y113718D01*
Y112857D01*
X33597Y112061D01*
X34207Y111452D01*
X35002Y111122D01*
X35864D01*
X36660Y111452D01*
X36890Y111682D01*
X38488D01*
X38680Y111220D01*
X37248Y109788D01*
X36569Y109507D01*
X35960Y108898D01*
X35630Y108102D01*
Y107241D01*
X35960Y106445D01*
X36569Y105836D01*
X37299Y105533D01*
X37517Y105044D01*
X36737Y104263D01*
X33543D01*
X33313Y104493D01*
X32517Y104823D01*
X31656D01*
X30860Y104493D01*
X30251Y103884D01*
X29921Y103088D01*
Y102227D01*
X30251Y101431D01*
X30860Y100822D01*
X31656Y100492D01*
X32517D01*
X33313Y100822D01*
X33543Y101052D01*
X37402D01*
X37402Y101052D01*
X38016Y101174D01*
X38537Y101522D01*
X42080Y105065D01*
X42080Y105065D01*
X42428Y105586D01*
X42551Y106201D01*
X42551Y106201D01*
Y106421D01*
X71531Y135402D01*
X81496D01*
X81496Y135402D01*
X82111Y135524D01*
X82631Y135872D01*
X89869Y143110D01*
X90194D01*
X90990Y143440D01*
X91600Y144049D01*
X91929Y144845D01*
Y145706D01*
X91600Y146502D01*
X90990Y147111D01*
X90194Y147441D01*
X89333D01*
X88886Y147256D01*
X88386Y147590D01*
Y147675D01*
X88056Y148471D01*
X87447Y149080D01*
X86651Y149409D01*
X85790D01*
X85343Y149224D01*
X84842Y149558D01*
Y149643D01*
X84513Y150439D01*
X83904Y151048D01*
X83108Y151378D01*
X82247D01*
X81799Y151193D01*
X81299Y151527D01*
Y151612D01*
X80970Y152408D01*
X80360Y153017D01*
X79565Y153347D01*
D02*
G37*
G36*
X256732Y158799D02*
X255866D01*
X255030Y158575D01*
X254281Y158142D01*
X253669Y157530D01*
X253236Y156781D01*
X253012Y155945D01*
Y155079D01*
X253236Y154243D01*
X253669Y153493D01*
X254281Y152881D01*
X255030Y152448D01*
X255866Y152224D01*
X256732D01*
X257568Y152448D01*
X258318Y152881D01*
X258930Y153493D01*
X259363Y154243D01*
X259587Y155079D01*
Y155945D01*
X259363Y156781D01*
X258930Y157530D01*
X258318Y158142D01*
X257568Y158575D01*
X256732Y158799D01*
D02*
G37*
G36*
X178116Y157572D02*
X177250D01*
X176414Y157348D01*
X175665Y156916D01*
X175053Y156304D01*
X174620Y155554D01*
X174396Y154718D01*
Y153852D01*
X174620Y153016D01*
X175053Y152267D01*
X175665Y151654D01*
X176414Y151222D01*
X177250Y150998D01*
X178116D01*
X178952Y151222D01*
X179702Y151654D01*
X180314Y152267D01*
X180747Y153016D01*
X180971Y153852D01*
Y154718D01*
X180747Y155554D01*
X180314Y156304D01*
X179702Y156916D01*
X178952Y157348D01*
X178116Y157572D01*
D02*
G37*
G36*
X493077Y157572D02*
X492211D01*
X491375Y157348D01*
X490625Y156915D01*
X490013Y156304D01*
X489580Y155554D01*
X489356Y154718D01*
Y153852D01*
X489580Y153016D01*
X490013Y152267D01*
X490625Y151654D01*
X491375Y151222D01*
X492211Y150998D01*
X493077D01*
X493913Y151222D01*
X494662Y151654D01*
X495274Y152267D01*
X495707Y153016D01*
X495931Y153852D01*
Y154718D01*
X495707Y155554D01*
X495274Y156304D01*
X494662Y156915D01*
X493913Y157348D01*
X493077Y157572D01*
D02*
G37*
G36*
X414336D02*
X413471D01*
X412635Y157348D01*
X411885Y156915D01*
X411273Y156304D01*
X410840Y155554D01*
X410616Y154718D01*
Y153852D01*
X410840Y153016D01*
X411273Y152267D01*
X411885Y151654D01*
X412635Y151222D01*
X413471Y150998D01*
X414336D01*
X415172Y151222D01*
X415922Y151654D01*
X416534Y152267D01*
X416967Y153016D01*
X417191Y153852D01*
Y154718D01*
X416967Y155554D01*
X416534Y156304D01*
X415922Y156915D01*
X415172Y157348D01*
X414336Y157572D01*
D02*
G37*
G36*
X335596D02*
X334731D01*
X333895Y157348D01*
X333145Y156915D01*
X332533Y156304D01*
X332100Y155554D01*
X331876Y154718D01*
Y153852D01*
X332100Y153016D01*
X332533Y152267D01*
X333145Y151654D01*
X333895Y151222D01*
X334731Y150998D01*
X335596D01*
X336432Y151222D01*
X337182Y151654D01*
X337794Y152267D01*
X338227Y153016D01*
X338451Y153852D01*
Y154718D01*
X338227Y155554D01*
X337794Y156304D01*
X337182Y156915D01*
X336432Y157348D01*
X335596Y157572D01*
D02*
G37*
G36*
X32911Y154921D02*
X32050D01*
X31254Y154592D01*
X30645Y153982D01*
X30315Y153187D01*
Y152325D01*
X30645Y151529D01*
X31254Y150920D01*
X32050Y150591D01*
X32911D01*
X33707Y150920D01*
X34316Y151529D01*
X34646Y152325D01*
Y153187D01*
X34316Y153982D01*
X33707Y154592D01*
X32911Y154921D01*
D02*
G37*
G36*
X204160Y152021D02*
X195301D01*
Y143163D01*
X204160D01*
Y152021D01*
D02*
G37*
G36*
X164789D02*
X155931D01*
Y143163D01*
X164789D01*
Y152021D01*
D02*
G37*
G36*
X519120Y152021D02*
X510262D01*
Y143163D01*
X519120D01*
Y152021D01*
D02*
G37*
G36*
X479750D02*
X470892D01*
Y143163D01*
X479750D01*
Y152021D01*
D02*
G37*
G36*
X440380D02*
X431522D01*
Y143163D01*
X440380D01*
Y152021D01*
D02*
G37*
G36*
X401010D02*
X392152D01*
Y143163D01*
X401010D01*
Y152021D01*
D02*
G37*
G36*
X361640D02*
X352782D01*
Y143163D01*
X361640D01*
Y152021D01*
D02*
G37*
G36*
X322270D02*
X313411D01*
Y143163D01*
X322270D01*
Y152021D01*
D02*
G37*
G36*
X282900D02*
X274042D01*
Y143163D01*
X282900D01*
Y152021D01*
D02*
G37*
G36*
X243530D02*
X234671D01*
Y143163D01*
X243530D01*
Y152021D01*
D02*
G37*
G36*
X7124Y145079D02*
X6262D01*
X5466Y144749D01*
X4857Y144140D01*
X4528Y143344D01*
Y142483D01*
X4857Y141687D01*
X5466Y141078D01*
X6262Y140748D01*
X7124D01*
X7920Y141078D01*
X8529Y141687D01*
X8858Y142483D01*
Y143344D01*
X8529Y144140D01*
X7920Y144749D01*
X7124Y145079D01*
D02*
G37*
G36*
X96887Y143898D02*
X96026D01*
X95230Y143568D01*
X94621Y142959D01*
X94291Y142163D01*
Y141302D01*
X94621Y140506D01*
X95230Y139897D01*
X96026Y139567D01*
X96887D01*
X97683Y139897D01*
X98292Y140506D01*
X98622Y141302D01*
Y142163D01*
X98292Y142959D01*
X97683Y143568D01*
X96887Y143898D01*
D02*
G37*
G36*
X7714Y136417D02*
X6853D01*
X6057Y136088D01*
X5448Y135479D01*
X5118Y134683D01*
Y133821D01*
X5448Y133025D01*
X6057Y132416D01*
X6853Y132087D01*
X7714D01*
X8510Y132416D01*
X9119Y133025D01*
X9449Y133821D01*
Y134683D01*
X9119Y135479D01*
X8510Y136088D01*
X7714Y136417D01*
D02*
G37*
G36*
X48068Y136417D02*
X47207D01*
X46411Y136088D01*
X45802Y135478D01*
X45472Y134683D01*
Y133821D01*
X45802Y133025D01*
X46411Y132416D01*
X47207Y132087D01*
X48068D01*
X48864Y132416D01*
X49474Y133025D01*
X49803Y133821D01*
Y134683D01*
X49474Y135478D01*
X48864Y136088D01*
X48068Y136417D01*
D02*
G37*
G36*
X34683Y135236D02*
X33821D01*
X33025Y134906D01*
X32416Y134297D01*
X32087Y133502D01*
Y132640D01*
X32207Y132349D01*
X31825Y131966D01*
X31533Y132087D01*
X30672D01*
X29876Y131757D01*
X29267Y131148D01*
X29126Y130808D01*
X28800Y130774D01*
X28576Y130786D01*
X27998Y131363D01*
X27202Y131693D01*
X26341D01*
X25545Y131363D01*
X24936Y130754D01*
X24606Y129958D01*
Y129097D01*
X24936Y128301D01*
X25545Y127692D01*
X26341Y127362D01*
X27202D01*
X27998Y127692D01*
X28607Y128301D01*
X28748Y128640D01*
X29074Y128674D01*
X29298Y128663D01*
X29876Y128086D01*
X30672Y127756D01*
X31533D01*
X32329Y128086D01*
X32938Y128695D01*
X33268Y129491D01*
Y130352D01*
X33147Y130644D01*
X33530Y131026D01*
X33821Y130905D01*
X34683D01*
X35478Y131235D01*
X36088Y131844D01*
X36417Y132640D01*
Y133502D01*
X36088Y134297D01*
X35478Y134906D01*
X34683Y135236D01*
D02*
G37*
G36*
X43147Y134055D02*
X42286D01*
X41490Y133726D01*
X40881Y133116D01*
X40551Y132320D01*
Y131459D01*
X40881Y130663D01*
X41490Y130054D01*
X42286Y129724D01*
X43147D01*
X43943Y130054D01*
X44552Y130663D01*
X44882Y131459D01*
Y132320D01*
X44552Y133116D01*
X43943Y133726D01*
X43147Y134055D01*
D02*
G37*
G36*
X515691Y132445D02*
Y128907D01*
X519229D01*
X519017Y129699D01*
X518405Y130757D01*
X517541Y131621D01*
X516483Y132232D01*
X515691Y132445D01*
D02*
G37*
G36*
X436951D02*
Y128907D01*
X440488D01*
X440276Y129699D01*
X439665Y130757D01*
X438801Y131621D01*
X437743Y132232D01*
X436951Y132445D01*
D02*
G37*
G36*
X358211D02*
Y128907D01*
X361748D01*
X361536Y129699D01*
X360925Y130757D01*
X360061Y131621D01*
X359002Y132232D01*
X358211Y132445D01*
D02*
G37*
G36*
X513691Y132445D02*
X512899Y132232D01*
X511841Y131621D01*
X510977Y130757D01*
X510366Y129699D01*
X510154Y128907D01*
X513691D01*
Y132445D01*
D02*
G37*
G36*
X434951D02*
X434159Y132232D01*
X433101Y131621D01*
X432237Y130757D01*
X431626Y129699D01*
X431413Y128907D01*
X434951D01*
Y132445D01*
D02*
G37*
G36*
X356211D02*
X355419Y132232D01*
X354361Y131621D01*
X353497Y130757D01*
X352885Y129699D01*
X352673Y128907D01*
X356211D01*
Y132445D01*
D02*
G37*
G36*
X200730D02*
Y128907D01*
X204268D01*
X204056Y129699D01*
X203445Y130757D01*
X202580Y131621D01*
X201522Y132232D01*
X200730Y132445D01*
D02*
G37*
G36*
X279471Y132445D02*
Y128907D01*
X283008D01*
X282796Y129699D01*
X282185Y130757D01*
X281321Y131621D01*
X280262Y132232D01*
X279471Y132445D01*
D02*
G37*
G36*
X277471D02*
X276679Y132232D01*
X275621Y131621D01*
X274756Y130757D01*
X274145Y129699D01*
X273933Y128907D01*
X277471D01*
Y132445D01*
D02*
G37*
G36*
X198731Y132445D02*
X197939Y132232D01*
X196880Y131621D01*
X196016Y130757D01*
X195405Y129699D01*
X195193Y128907D01*
X198731D01*
Y132445D01*
D02*
G37*
G36*
X474321Y132445D02*
X473529Y132232D01*
X472471Y131621D01*
X471607Y130757D01*
X470996Y129699D01*
X470784Y128907D01*
X474321D01*
Y132445D01*
D02*
G37*
G36*
X395581D02*
X394789Y132232D01*
X393731Y131621D01*
X392866Y130757D01*
X392255Y129699D01*
X392043Y128907D01*
X395581D01*
Y132445D01*
D02*
G37*
G36*
X316841D02*
X316049Y132232D01*
X314991Y131621D01*
X314126Y130757D01*
X313515Y129699D01*
X313303Y128907D01*
X316841D01*
Y132445D01*
D02*
G37*
G36*
X238101D02*
X237309Y132232D01*
X236250Y131621D01*
X235386Y130757D01*
X234775Y129699D01*
X234563Y128907D01*
X238101D01*
Y132445D01*
D02*
G37*
G36*
X159360Y132445D02*
X158569Y132232D01*
X157510Y131621D01*
X156646Y130757D01*
X156035Y129699D01*
X155823Y128907D01*
X159360D01*
Y132445D01*
D02*
G37*
G36*
X476321Y132445D02*
Y127907D01*
Y123370D01*
X477113Y123582D01*
X478171Y124193D01*
X479035Y125057D01*
X479646Y126115D01*
X479963Y127296D01*
Y127685D01*
X480463Y127892D01*
X480663Y127692D01*
X481459Y127362D01*
X482320D01*
X482612Y127483D01*
X482995Y127100D01*
X482874Y126809D01*
Y125947D01*
X483204Y125151D01*
X483813Y124542D01*
X484609Y124213D01*
X485470D01*
X486266Y124542D01*
X486875Y125151D01*
X487205Y125947D01*
Y126809D01*
X486875Y127604D01*
X486266Y128214D01*
X485470Y128543D01*
X484609D01*
X484317Y128422D01*
X483934Y128805D01*
X484055Y129097D01*
Y129958D01*
X483725Y130754D01*
X483116Y131363D01*
X482320Y131693D01*
X481459D01*
X480663Y131363D01*
X480054Y130754D01*
X479870Y130311D01*
X479314Y130274D01*
X479035Y130757D01*
X478171Y131621D01*
X477113Y132232D01*
X476321Y132445D01*
D02*
G37*
G36*
X397581D02*
Y127907D01*
Y123370D01*
X398373Y123582D01*
X399431Y124193D01*
X400295Y125057D01*
X400906Y126115D01*
X401223Y127296D01*
Y127685D01*
X401723Y127892D01*
X401923Y127692D01*
X402719Y127362D01*
X403580D01*
X403872Y127483D01*
X404255Y127100D01*
X404134Y126809D01*
Y125947D01*
X404463Y125151D01*
X405073Y124542D01*
X405868Y124213D01*
X406730D01*
X407526Y124542D01*
X408135Y125151D01*
X408465Y125947D01*
Y126809D01*
X408135Y127604D01*
X407526Y128214D01*
X406730Y128543D01*
X405868D01*
X405577Y128422D01*
X405194Y128805D01*
X405315Y129097D01*
Y129958D01*
X404985Y130754D01*
X404376Y131363D01*
X403580Y131693D01*
X402719D01*
X401923Y131363D01*
X401314Y130754D01*
X401130Y130311D01*
X400574Y130274D01*
X400295Y130757D01*
X399431Y131621D01*
X398373Y132232D01*
X397581Y132445D01*
D02*
G37*
G36*
X318841D02*
Y127907D01*
Y123370D01*
X319632Y123582D01*
X320691Y124193D01*
X321555Y125057D01*
X322166Y126115D01*
X322482Y127296D01*
Y127685D01*
X322982Y127892D01*
X323183Y127692D01*
X323979Y127362D01*
X324840D01*
X325132Y127483D01*
X325515Y127100D01*
X325394Y126809D01*
Y125947D01*
X325723Y125151D01*
X326332Y124542D01*
X327128Y124213D01*
X327990D01*
X328786Y124542D01*
X329395Y125151D01*
X329724Y125947D01*
Y126809D01*
X329395Y127604D01*
X328786Y128214D01*
X327990Y128543D01*
X327128D01*
X326837Y128422D01*
X326454Y128805D01*
X326575Y129097D01*
Y129958D01*
X326245Y130754D01*
X325636Y131363D01*
X324840Y131693D01*
X323979D01*
X323183Y131363D01*
X322574Y130754D01*
X322390Y130311D01*
X321834Y130274D01*
X321555Y130757D01*
X320691Y131621D01*
X319632Y132232D01*
X318841Y132445D01*
D02*
G37*
G36*
X240101D02*
Y127907D01*
Y123370D01*
X240892Y123582D01*
X241951Y124193D01*
X242815Y125057D01*
X243426Y126115D01*
X243742Y127296D01*
Y127685D01*
X244242Y127892D01*
X244443Y127692D01*
X245239Y127362D01*
X246100D01*
X246392Y127483D01*
X246774Y127100D01*
X246654Y126809D01*
Y125947D01*
X246983Y125151D01*
X247592Y124542D01*
X248388Y124213D01*
X249250D01*
X250045Y124542D01*
X250655Y125151D01*
X250984Y125947D01*
Y126809D01*
X250655Y127604D01*
X250045Y128214D01*
X249250Y128543D01*
X248388D01*
X248096Y128422D01*
X247714Y128805D01*
X247835Y129097D01*
Y129958D01*
X247505Y130754D01*
X246896Y131363D01*
X246100Y131693D01*
X245239D01*
X244443Y131363D01*
X243834Y130754D01*
X243650Y130311D01*
X243094Y130274D01*
X242815Y130757D01*
X241951Y131621D01*
X240892Y132232D01*
X240101Y132445D01*
D02*
G37*
G36*
X161360Y132445D02*
Y127907D01*
Y123370D01*
X162152Y123582D01*
X163210Y124193D01*
X164075Y125057D01*
X164686Y126115D01*
X165002Y127296D01*
Y127685D01*
X165502Y127892D01*
X165702Y127692D01*
X166498Y127362D01*
X167360D01*
X167651Y127483D01*
X168034Y127100D01*
X167913Y126809D01*
Y125947D01*
X168243Y125151D01*
X168852Y124542D01*
X169648Y124213D01*
X170509D01*
X171305Y124542D01*
X171914Y125151D01*
X172244Y125947D01*
Y126809D01*
X171914Y127604D01*
X171305Y128214D01*
X170509Y128543D01*
X169648D01*
X169356Y128422D01*
X168974Y128805D01*
X169095Y129097D01*
Y129958D01*
X168765Y130754D01*
X168156Y131363D01*
X167360Y131693D01*
X166498D01*
X165702Y131363D01*
X165093Y130754D01*
X164910Y130311D01*
X164353Y130274D01*
X164075Y130757D01*
X163210Y131621D01*
X162152Y132232D01*
X161360Y132445D01*
D02*
G37*
G36*
X204268Y126907D02*
X200730D01*
Y123370D01*
X201522Y123582D01*
X202580Y124193D01*
X203445Y125057D01*
X204056Y126115D01*
X204268Y126907D01*
D02*
G37*
G36*
X159360Y126907D02*
X155823D01*
X156035Y126115D01*
X156646Y125057D01*
X157510Y124193D01*
X158569Y123582D01*
X159360Y123370D01*
Y126907D01*
D02*
G37*
G36*
X519229Y126907D02*
X515691D01*
Y123370D01*
X516483Y123582D01*
X517541Y124193D01*
X518405Y125057D01*
X519017Y126115D01*
X519229Y126907D01*
D02*
G37*
G36*
X440488D02*
X436951D01*
Y123370D01*
X437743Y123582D01*
X438801Y124193D01*
X439665Y125057D01*
X440276Y126115D01*
X440488Y126907D01*
D02*
G37*
G36*
X361748D02*
X358211D01*
Y123370D01*
X359002Y123582D01*
X360061Y124193D01*
X360925Y125057D01*
X361536Y126115D01*
X361748Y126907D01*
D02*
G37*
G36*
X198731Y126907D02*
X195193D01*
X195405Y126115D01*
X196016Y125057D01*
X196880Y124193D01*
X197939Y123582D01*
X198731Y123370D01*
Y126907D01*
D02*
G37*
G36*
X283008D02*
X279471D01*
Y123370D01*
X280262Y123582D01*
X281321Y124193D01*
X282185Y125057D01*
X282796Y126115D01*
X283008Y126907D01*
D02*
G37*
G36*
X238101Y126907D02*
X234563D01*
X234775Y126115D01*
X235386Y125057D01*
X236250Y124193D01*
X237309Y123582D01*
X238101Y123370D01*
Y126907D01*
D02*
G37*
G36*
X474321Y126907D02*
X470784D01*
X470996Y126115D01*
X471607Y125057D01*
X472471Y124193D01*
X473529Y123582D01*
X474321Y123370D01*
Y126907D01*
D02*
G37*
G36*
X395581D02*
X392043D01*
X392255Y126115D01*
X392866Y125057D01*
X393731Y124193D01*
X394789Y123582D01*
X395581Y123370D01*
Y126907D01*
D02*
G37*
G36*
X316841D02*
X313303D01*
X313515Y126115D01*
X314126Y125057D01*
X314991Y124193D01*
X316049Y123582D01*
X316841Y123370D01*
Y126907D01*
D02*
G37*
G36*
X277471Y126907D02*
X273933D01*
X274145Y126115D01*
X274756Y125057D01*
X275621Y124193D01*
X276679Y123582D01*
X277471Y123370D01*
Y126907D01*
D02*
G37*
G36*
X434951Y126907D02*
X431413D01*
X431626Y126115D01*
X432237Y125057D01*
X433101Y124193D01*
X434159Y123582D01*
X434951Y123370D01*
Y126907D01*
D02*
G37*
G36*
X356211D02*
X352673D01*
X352885Y126115D01*
X353497Y125057D01*
X354361Y124193D01*
X355419Y123582D01*
X356211Y123370D01*
Y126907D01*
D02*
G37*
G36*
X513691D02*
X510153D01*
X510366Y126115D01*
X510977Y125057D01*
X511841Y124193D01*
X512899Y123582D01*
X513691Y123370D01*
Y126907D01*
D02*
G37*
G36*
X71297Y126575D02*
X70435D01*
X69640Y126245D01*
X69030Y125636D01*
X68701Y124840D01*
Y123979D01*
X69030Y123183D01*
X69640Y122574D01*
X70435Y122244D01*
X71297D01*
X72093Y122574D01*
X72702Y123183D01*
X73032Y123979D01*
Y124840D01*
X72702Y125636D01*
X72093Y126245D01*
X71297Y126575D01*
D02*
G37*
G36*
X76218Y121653D02*
X75357D01*
X74561Y121324D01*
X73952Y120715D01*
X73622Y119919D01*
Y119058D01*
X73952Y118262D01*
X74561Y117652D01*
X75357Y117323D01*
X76218D01*
X77014Y117652D01*
X77623Y118262D01*
X77953Y119058D01*
Y119919D01*
X77623Y120715D01*
X77014Y121324D01*
X76218Y121653D01*
D02*
G37*
G36*
X26216Y120611D02*
X25355D01*
X24559Y120281D01*
X23950Y119672D01*
X23620Y118876D01*
Y118015D01*
X23950Y117219D01*
X24559Y116610D01*
X25355Y116280D01*
X26216D01*
X27012Y116610D01*
X27621Y117219D01*
X27951Y118015D01*
Y118876D01*
X27621Y119672D01*
X27012Y120281D01*
X26216Y120611D01*
D02*
G37*
G36*
X12242Y117717D02*
X11380D01*
X10584Y117387D01*
X9975Y116778D01*
X9646Y115982D01*
Y115120D01*
X9668Y115066D01*
X9285Y114684D01*
X9092Y114764D01*
X8231D01*
X7435Y114434D01*
X6826Y113825D01*
X6496Y113029D01*
Y112168D01*
X6826Y111372D01*
X7435Y110763D01*
X8231Y110433D01*
X9092D01*
X9888Y110763D01*
X10497Y111372D01*
X10827Y112168D01*
Y113029D01*
X10804Y113083D01*
X11187Y113466D01*
X11380Y113386D01*
X12242D01*
X13038Y113716D01*
X13647Y114325D01*
X13976Y115120D01*
Y115982D01*
X13647Y116778D01*
X13038Y117387D01*
X12242Y117717D01*
D02*
G37*
G36*
X256732Y119429D02*
X255866D01*
X255030Y119205D01*
X254281Y118772D01*
X253669Y118160D01*
X253236Y117411D01*
X253012Y116575D01*
Y115709D01*
X253236Y114873D01*
X253669Y114123D01*
X254281Y113511D01*
X255030Y113078D01*
X255866Y112854D01*
X256732D01*
X257568Y113078D01*
X258318Y113511D01*
X258930Y114123D01*
X259363Y114873D01*
X259587Y115709D01*
Y116575D01*
X259363Y117411D01*
X258930Y118160D01*
X258318Y118772D01*
X257568Y119205D01*
X256732Y119429D01*
D02*
G37*
G36*
X178116Y118202D02*
X177250D01*
X176414Y117978D01*
X175665Y117545D01*
X175053Y116933D01*
X174620Y116184D01*
X174396Y115348D01*
Y114482D01*
X174620Y113646D01*
X175053Y112896D01*
X175665Y112284D01*
X176414Y111852D01*
X177250Y111627D01*
X178116D01*
X178952Y111852D01*
X179702Y112284D01*
X180314Y112896D01*
X180747Y113646D01*
X180971Y114482D01*
Y115348D01*
X180747Y116184D01*
X180314Y116933D01*
X179702Y117545D01*
X178952Y117978D01*
X178116Y118202D01*
D02*
G37*
G36*
X493077Y118202D02*
X492211D01*
X491375Y117978D01*
X490625Y117545D01*
X490013Y116933D01*
X489580Y116184D01*
X489356Y115348D01*
Y114482D01*
X489580Y113646D01*
X490013Y112896D01*
X490625Y112284D01*
X491375Y111852D01*
X492211Y111627D01*
X493077D01*
X493913Y111852D01*
X494662Y112284D01*
X495274Y112896D01*
X495707Y113646D01*
X495931Y114482D01*
Y115348D01*
X495707Y116184D01*
X495274Y116933D01*
X494662Y117545D01*
X493913Y117978D01*
X493077Y118202D01*
D02*
G37*
G36*
X414336D02*
X413471D01*
X412635Y117978D01*
X411885Y117545D01*
X411273Y116933D01*
X410840Y116184D01*
X410616Y115348D01*
Y114482D01*
X410840Y113646D01*
X411273Y112896D01*
X411885Y112284D01*
X412635Y111852D01*
X413471Y111627D01*
X414336D01*
X415172Y111852D01*
X415922Y112284D01*
X416534Y112896D01*
X416967Y113646D01*
X417191Y114482D01*
Y115348D01*
X416967Y116184D01*
X416534Y116933D01*
X415922Y117545D01*
X415172Y117978D01*
X414336Y118202D01*
D02*
G37*
G36*
X335596D02*
X334731D01*
X333895Y117978D01*
X333145Y117545D01*
X332533Y116933D01*
X332100Y116184D01*
X331876Y115348D01*
Y114482D01*
X332100Y113646D01*
X332533Y112896D01*
X333145Y112284D01*
X333895Y111852D01*
X334731Y111627D01*
X335596D01*
X336432Y111852D01*
X337182Y112284D01*
X337794Y112896D01*
X338227Y113646D01*
X338451Y114482D01*
Y115348D01*
X338227Y116184D01*
X337794Y116933D01*
X337182Y117545D01*
X336432Y117978D01*
X335596Y118202D01*
D02*
G37*
G36*
X28777Y115453D02*
X27916D01*
X27120Y115123D01*
X26511Y114514D01*
X26181Y113718D01*
Y112857D01*
X26511Y112061D01*
X27120Y111452D01*
X27916Y111122D01*
X28777D01*
X29573Y111452D01*
X30182Y112061D01*
X30512Y112857D01*
Y113718D01*
X30182Y114514D01*
X29573Y115123D01*
X28777Y115453D01*
D02*
G37*
G36*
X22084Y114567D02*
X21223D01*
X20427Y114237D01*
X19818Y113628D01*
X19488Y112832D01*
Y111971D01*
X19818Y111175D01*
X20427Y110566D01*
X21223Y110236D01*
X22084D01*
X22880Y110566D01*
X23489Y111175D01*
X23819Y111971D01*
Y112832D01*
X23489Y113628D01*
X22880Y114237D01*
X22084Y114567D01*
D02*
G37*
G36*
X81092Y116556D02*
X80231D01*
X79435Y116227D01*
X78826Y115618D01*
X78496Y114822D01*
Y113960D01*
X78826Y113164D01*
X79435Y112555D01*
X80231Y112226D01*
X81092D01*
X81354Y112334D01*
X81736Y111951D01*
X81693Y111846D01*
Y110985D01*
X82023Y110189D01*
X82632Y109580D01*
X83428Y109250D01*
X84289D01*
X84580Y109370D01*
X84962Y108988D01*
X84842Y108698D01*
Y107837D01*
X85172Y107041D01*
X85781Y106432D01*
X86577Y106102D01*
X87439D01*
X88234Y106432D01*
X88844Y107041D01*
X89173Y107837D01*
Y108698D01*
X88844Y109494D01*
X88234Y110103D01*
X87439Y110433D01*
X86577D01*
X86286Y110313D01*
X85904Y110695D01*
X86024Y110985D01*
Y111846D01*
X85694Y112642D01*
X85085Y113251D01*
X84289Y113581D01*
X83428D01*
X83166Y113472D01*
X82783Y113855D01*
X82827Y113960D01*
Y114822D01*
X82497Y115618D01*
X81888Y116227D01*
X81092Y116556D01*
D02*
G37*
G36*
X56533Y108858D02*
X55672D01*
X54876Y108529D01*
X54267Y107920D01*
X53937Y107124D01*
Y106262D01*
X53939Y106257D01*
X53586Y105903D01*
X53580Y105905D01*
X52719D01*
X51923Y105576D01*
X51314Y104967D01*
X50984Y104171D01*
Y103309D01*
X51314Y102514D01*
X51923Y101904D01*
X52719Y101575D01*
X53580D01*
X54376Y101904D01*
X54985Y102514D01*
X55315Y103309D01*
Y104171D01*
X55313Y104176D01*
X55666Y104530D01*
X55672Y104528D01*
X56533D01*
X57329Y104857D01*
X57938Y105466D01*
X58268Y106262D01*
Y107124D01*
X57938Y107920D01*
X57329Y108529D01*
X56533Y108858D01*
D02*
G37*
G36*
X204160Y112651D02*
X195301D01*
Y103793D01*
X204160D01*
Y112651D01*
D02*
G37*
G36*
X164789D02*
X155931D01*
Y103793D01*
X164789D01*
Y112651D01*
D02*
G37*
G36*
X519120Y112651D02*
X510262D01*
Y103793D01*
X519120D01*
Y112651D01*
D02*
G37*
G36*
X479750D02*
X470892D01*
Y103793D01*
X479750D01*
Y112651D01*
D02*
G37*
G36*
X440380D02*
X431522D01*
Y103793D01*
X440380D01*
Y112651D01*
D02*
G37*
G36*
X401010D02*
X392152D01*
Y103793D01*
X401010D01*
Y112651D01*
D02*
G37*
G36*
X361640D02*
X352782D01*
Y103793D01*
X361640D01*
Y112651D01*
D02*
G37*
G36*
X322270D02*
X313411D01*
Y103793D01*
X322270D01*
Y112651D01*
D02*
G37*
G36*
X282900D02*
X274042D01*
Y103793D01*
X282900D01*
Y112651D01*
D02*
G37*
G36*
X243530D02*
X234671D01*
Y103793D01*
X243530D01*
Y112651D01*
D02*
G37*
G36*
X46387Y98461D02*
X45526D01*
X44730Y98132D01*
X44121Y97522D01*
X43791Y96727D01*
Y95865D01*
X44010Y95337D01*
X44006Y95330D01*
X43607Y95004D01*
X42950Y95276D01*
X42089D01*
X41293Y94946D01*
X40684Y94337D01*
X40354Y93541D01*
Y92680D01*
X40357Y92674D01*
X40003Y92321D01*
X39998Y92323D01*
X39136D01*
X38340Y91993D01*
X37731Y91384D01*
X37402Y90588D01*
Y89727D01*
X37731Y88931D01*
X38340Y88322D01*
X39136Y87992D01*
X39998D01*
X40793Y88322D01*
X41403Y88931D01*
X41732Y89727D01*
Y90588D01*
X41730Y90594D01*
X42084Y90947D01*
X42089Y90945D01*
X42950D01*
X43746Y91274D01*
X44355Y91884D01*
X44685Y92680D01*
Y93541D01*
X44466Y94069D01*
X44470Y94076D01*
X44870Y94402D01*
X45526Y94130D01*
X46387D01*
X47183Y94460D01*
X47792Y95069D01*
X48122Y95865D01*
Y96727D01*
X47792Y97522D01*
X47183Y98132D01*
X46387Y98461D01*
D02*
G37*
G36*
X100824Y97047D02*
X99963D01*
X99167Y96718D01*
X98558Y96109D01*
X98228Y95313D01*
Y94451D01*
X98558Y93655D01*
X99167Y93046D01*
X99963Y92716D01*
X100824D01*
X101620Y93046D01*
X102229Y93655D01*
X102559Y94451D01*
Y95313D01*
X102229Y96109D01*
X101620Y96718D01*
X100824Y97047D01*
D02*
G37*
G36*
X515691Y93075D02*
Y89537D01*
X519229D01*
X519017Y90329D01*
X518405Y91387D01*
X517541Y92251D01*
X516483Y92862D01*
X515691Y93075D01*
D02*
G37*
G36*
X436951D02*
Y89537D01*
X440488D01*
X440276Y90329D01*
X439665Y91387D01*
X438801Y92251D01*
X437743Y92862D01*
X436951Y93075D01*
D02*
G37*
G36*
X358211D02*
Y89537D01*
X361748D01*
X361536Y90329D01*
X360925Y91387D01*
X360061Y92251D01*
X359002Y92862D01*
X358211Y93075D01*
D02*
G37*
G36*
X513691Y93075D02*
X512899Y92862D01*
X511841Y92251D01*
X510977Y91387D01*
X510366Y90329D01*
X510154Y89537D01*
X513691D01*
Y93075D01*
D02*
G37*
G36*
X434951D02*
X434159Y92862D01*
X433101Y92251D01*
X432237Y91387D01*
X431626Y90329D01*
X431413Y89537D01*
X434951D01*
Y93075D01*
D02*
G37*
G36*
X356211D02*
X355419Y92862D01*
X354361Y92251D01*
X353497Y91387D01*
X352885Y90329D01*
X352673Y89537D01*
X356211D01*
Y93075D01*
D02*
G37*
G36*
X200730D02*
Y89537D01*
X204268D01*
X204056Y90329D01*
X203445Y91387D01*
X202580Y92251D01*
X201522Y92862D01*
X200730Y93075D01*
D02*
G37*
G36*
X279471Y93075D02*
Y89537D01*
X283008D01*
X282796Y90329D01*
X282185Y91387D01*
X281321Y92251D01*
X280262Y92862D01*
X279471Y93075D01*
D02*
G37*
G36*
X277471D02*
X276679Y92862D01*
X275621Y92251D01*
X274756Y91387D01*
X274145Y90329D01*
X273933Y89537D01*
X277471D01*
Y93075D01*
D02*
G37*
G36*
X198731Y93075D02*
X197939Y92862D01*
X196880Y92251D01*
X196016Y91387D01*
X195405Y90329D01*
X195193Y89537D01*
X198731D01*
Y93075D01*
D02*
G37*
G36*
X316841Y93075D02*
X316049Y92862D01*
X314991Y92251D01*
X314126Y91387D01*
X313515Y90329D01*
X313303Y89537D01*
X316841D01*
Y93075D01*
D02*
G37*
G36*
X474321D02*
X473529Y92862D01*
X472471Y92251D01*
X471607Y91387D01*
X470996Y90329D01*
X470784Y89537D01*
X474321D01*
Y93075D01*
D02*
G37*
G36*
X395581D02*
X394789Y92862D01*
X393731Y92251D01*
X392866Y91387D01*
X392255Y90329D01*
X392043Y89537D01*
X395581D01*
Y93075D01*
D02*
G37*
G36*
X238101D02*
X237309Y92862D01*
X236250Y92251D01*
X235386Y91387D01*
X234775Y90329D01*
X234563Y89537D01*
X238101D01*
Y93075D01*
D02*
G37*
G36*
X159360Y93075D02*
X158569Y92862D01*
X157510Y92251D01*
X156646Y91387D01*
X156035Y90329D01*
X155823Y89537D01*
X159360D01*
Y93075D01*
D02*
G37*
G36*
X104761Y93110D02*
X103900D01*
X103104Y92781D01*
X102495Y92172D01*
X102165Y91376D01*
Y90514D01*
X102495Y89718D01*
X103104Y89109D01*
X103900Y88779D01*
X104761D01*
X105557Y89109D01*
X106166Y89718D01*
X106496Y90514D01*
Y91376D01*
X106166Y92172D01*
X105557Y92781D01*
X104761Y93110D01*
D02*
G37*
G36*
X74846Y92133D02*
X73981D01*
X73145Y91909D01*
X72395Y91477D01*
X71783Y90865D01*
X71350Y90115D01*
X71126Y89279D01*
Y88413D01*
X71350Y87577D01*
X71783Y86828D01*
X72395Y86216D01*
X73145Y85783D01*
X73981Y85559D01*
X74846D01*
X75682Y85783D01*
X76432Y86216D01*
X77044Y86828D01*
X77477Y87577D01*
X77701Y88413D01*
Y89279D01*
X77477Y90115D01*
X77044Y90865D01*
X76432Y91477D01*
X75682Y91909D01*
X74846Y92133D01*
D02*
G37*
G36*
X476321Y93075D02*
Y88537D01*
Y83999D01*
X477113Y84211D01*
X478171Y84823D01*
X479035Y85687D01*
X479646Y86745D01*
X479963Y87926D01*
Y88315D01*
X480463Y88522D01*
X480663Y88322D01*
X481459Y87992D01*
X482320D01*
X482612Y88113D01*
X482995Y87730D01*
X482874Y87439D01*
Y86577D01*
X483204Y85781D01*
X483813Y85172D01*
X484609Y84842D01*
X485470D01*
X486266Y85172D01*
X486875Y85781D01*
X487205Y86577D01*
Y87439D01*
X486875Y88235D01*
X486266Y88844D01*
X485470Y89173D01*
X484609D01*
X484317Y89052D01*
X483934Y89435D01*
X484055Y89727D01*
Y90588D01*
X483725Y91384D01*
X483116Y91993D01*
X482320Y92323D01*
X481459D01*
X480663Y91993D01*
X480054Y91384D01*
X479870Y90941D01*
X479314Y90904D01*
X479035Y91387D01*
X478171Y92251D01*
X477113Y92862D01*
X476321Y93075D01*
D02*
G37*
G36*
X397581D02*
Y88537D01*
Y83999D01*
X398373Y84211D01*
X399431Y84823D01*
X400295Y85687D01*
X400906Y86745D01*
X401223Y87926D01*
Y88315D01*
X401723Y88522D01*
X401923Y88322D01*
X402719Y87992D01*
X403580D01*
X403872Y88113D01*
X404255Y87730D01*
X404134Y87439D01*
Y86577D01*
X404463Y85781D01*
X405073Y85172D01*
X405868Y84842D01*
X406730D01*
X407526Y85172D01*
X408135Y85781D01*
X408465Y86577D01*
Y87439D01*
X408135Y88235D01*
X407526Y88844D01*
X406730Y89173D01*
X405868D01*
X405577Y89052D01*
X405194Y89435D01*
X405315Y89727D01*
Y90588D01*
X404985Y91384D01*
X404376Y91993D01*
X403580Y92323D01*
X402719D01*
X401923Y91993D01*
X401314Y91384D01*
X401130Y90941D01*
X400574Y90904D01*
X400295Y91387D01*
X399431Y92251D01*
X398373Y92862D01*
X397581Y93075D01*
D02*
G37*
G36*
X318841D02*
Y88537D01*
Y83999D01*
X319632Y84211D01*
X320691Y84823D01*
X321555Y85687D01*
X322166Y86745D01*
X322482Y87926D01*
Y88315D01*
X322982Y88522D01*
X323183Y88322D01*
X323979Y87992D01*
X324840D01*
X325132Y88113D01*
X325515Y87730D01*
X325394Y87439D01*
Y86577D01*
X325723Y85781D01*
X326332Y85172D01*
X327128Y84842D01*
X327990D01*
X328786Y85172D01*
X329395Y85781D01*
X329724Y86577D01*
Y87439D01*
X329395Y88235D01*
X328786Y88844D01*
X327990Y89173D01*
X327128D01*
X326837Y89052D01*
X326454Y89435D01*
X326575Y89727D01*
Y90588D01*
X326245Y91384D01*
X325636Y91993D01*
X324840Y92323D01*
X323979D01*
X323183Y91993D01*
X322574Y91384D01*
X322390Y90941D01*
X321834Y90904D01*
X321555Y91387D01*
X320691Y92251D01*
X319632Y92862D01*
X318841Y93075D01*
D02*
G37*
G36*
X240101D02*
Y88537D01*
Y83999D01*
X240892Y84211D01*
X241951Y84823D01*
X242815Y85687D01*
X243426Y86745D01*
X243742Y87926D01*
Y88315D01*
X244242Y88522D01*
X244443Y88322D01*
X245239Y87992D01*
X246100D01*
X246392Y88113D01*
X246774Y87730D01*
X246654Y87439D01*
Y86577D01*
X246983Y85781D01*
X247592Y85172D01*
X248388Y84842D01*
X249250D01*
X250045Y85172D01*
X250655Y85781D01*
X250984Y86577D01*
Y87439D01*
X250655Y88235D01*
X250045Y88844D01*
X249250Y89173D01*
X248388D01*
X248096Y89052D01*
X247714Y89435D01*
X247835Y89727D01*
Y90588D01*
X247505Y91384D01*
X246896Y91993D01*
X246100Y92323D01*
X245239D01*
X244443Y91993D01*
X243834Y91384D01*
X243650Y90941D01*
X243094Y90904D01*
X242815Y91387D01*
X241951Y92251D01*
X240892Y92862D01*
X240101Y93075D01*
D02*
G37*
G36*
X161360Y93075D02*
Y88537D01*
Y83999D01*
X162152Y84211D01*
X163210Y84823D01*
X164075Y85687D01*
X164686Y86745D01*
X165002Y87926D01*
Y88315D01*
X165502Y88522D01*
X165702Y88322D01*
X166498Y87992D01*
X167360D01*
X167651Y88113D01*
X168034Y87730D01*
X167913Y87439D01*
Y86577D01*
X168243Y85781D01*
X168852Y85172D01*
X169648Y84842D01*
X170509D01*
X171305Y85172D01*
X171914Y85781D01*
X172244Y86577D01*
Y87439D01*
X171914Y88235D01*
X171305Y88844D01*
X170509Y89173D01*
X169648D01*
X169356Y89052D01*
X168974Y89435D01*
X169095Y89727D01*
Y90588D01*
X168765Y91384D01*
X168156Y91993D01*
X167360Y92323D01*
X166498D01*
X165702Y91993D01*
X165093Y91384D01*
X164910Y90941D01*
X164353Y90904D01*
X164075Y91387D01*
X163210Y92251D01*
X162152Y92862D01*
X161360Y93075D01*
D02*
G37*
G36*
X204268Y87537D02*
X200730D01*
Y83999D01*
X201522Y84211D01*
X202580Y84823D01*
X203445Y85687D01*
X204056Y86745D01*
X204268Y87537D01*
D02*
G37*
G36*
X159360Y87537D02*
X155823D01*
X156035Y86745D01*
X156646Y85687D01*
X157510Y84823D01*
X158569Y84211D01*
X159360Y83999D01*
Y87537D01*
D02*
G37*
G36*
X519229Y87537D02*
X515691D01*
Y83999D01*
X516483Y84211D01*
X517541Y84823D01*
X518405Y85687D01*
X519017Y86745D01*
X519229Y87537D01*
D02*
G37*
G36*
X440488D02*
X436951D01*
Y83999D01*
X437743Y84211D01*
X438801Y84823D01*
X439665Y85687D01*
X440276Y86745D01*
X440488Y87537D01*
D02*
G37*
G36*
X361748D02*
X358211D01*
Y83999D01*
X359002Y84211D01*
X360061Y84823D01*
X360925Y85687D01*
X361536Y86745D01*
X361748Y87537D01*
D02*
G37*
G36*
X198731Y87537D02*
X195193D01*
X195405Y86745D01*
X196016Y85687D01*
X196880Y84823D01*
X197939Y84211D01*
X198731Y83999D01*
Y87537D01*
D02*
G37*
G36*
X283008D02*
X279471D01*
Y83999D01*
X280262Y84211D01*
X281321Y84823D01*
X282185Y85687D01*
X282796Y86745D01*
X283008Y87537D01*
D02*
G37*
G36*
X238101Y87537D02*
X234563D01*
X234775Y86745D01*
X235386Y85687D01*
X236250Y84823D01*
X237309Y84211D01*
X238101Y83999D01*
Y87537D01*
D02*
G37*
G36*
X474321Y87537D02*
X470784D01*
X470996Y86745D01*
X471607Y85687D01*
X472471Y84823D01*
X473529Y84211D01*
X474321Y83999D01*
Y87537D01*
D02*
G37*
G36*
X395581D02*
X392043D01*
X392255Y86745D01*
X392866Y85687D01*
X393731Y84823D01*
X394789Y84211D01*
X395581Y83999D01*
Y87537D01*
D02*
G37*
G36*
X316841D02*
X313303D01*
X313515Y86745D01*
X314126Y85687D01*
X314991Y84823D01*
X316049Y84211D01*
X316841Y83999D01*
Y87537D01*
D02*
G37*
G36*
X277471Y87537D02*
X273933D01*
X274145Y86745D01*
X274756Y85687D01*
X275621Y84823D01*
X276679Y84211D01*
X277471Y83999D01*
Y87537D01*
D02*
G37*
G36*
X513691Y87537D02*
X510153D01*
X510366Y86745D01*
X510977Y85687D01*
X511841Y84823D01*
X512899Y84211D01*
X513691Y83999D01*
Y87537D01*
D02*
G37*
G36*
X434951D02*
X431413D01*
X431626Y86745D01*
X432237Y85687D01*
X433101Y84823D01*
X434159Y84211D01*
X434951Y83999D01*
Y87537D01*
D02*
G37*
G36*
X356211D02*
X352673D01*
X352885Y86745D01*
X353497Y85687D01*
X354361Y84823D01*
X355419Y84211D01*
X356211Y83999D01*
Y87537D01*
D02*
G37*
G36*
X108701Y84390D02*
X107835D01*
X106999Y84166D01*
X106249Y83733D01*
X105637Y83121D01*
X105204Y82371D01*
X104980Y81535D01*
Y80670D01*
X105204Y79834D01*
X105637Y79084D01*
X106249Y78472D01*
X106999Y78039D01*
X107835Y77815D01*
X108701D01*
X109537Y78039D01*
X110286Y78472D01*
X110898Y79084D01*
X111331Y79834D01*
X111555Y80670D01*
Y81535D01*
X111331Y82371D01*
X110898Y83121D01*
X110286Y83733D01*
X109537Y84166D01*
X108701Y84390D01*
D02*
G37*
G36*
X64476Y81624D02*
X63611D01*
X62775Y81400D01*
X62025Y80967D01*
X61413Y80355D01*
X60980Y79606D01*
X60756Y78770D01*
Y77904D01*
X60980Y77068D01*
X61413Y76318D01*
X62025Y75706D01*
X62775Y75274D01*
X63611Y75050D01*
X64476D01*
X65312Y75274D01*
X66062Y75706D01*
X66674Y76318D01*
X67107Y77068D01*
X67331Y77904D01*
Y78770D01*
X67107Y79606D01*
X66674Y80355D01*
X66062Y80967D01*
X65312Y81400D01*
X64476Y81624D01*
D02*
G37*
G36*
X256732Y79665D02*
X255866D01*
X255030Y79441D01*
X254281Y79009D01*
X253669Y78396D01*
X253236Y77647D01*
X253012Y76811D01*
Y75945D01*
X253236Y75109D01*
X253669Y74360D01*
X254281Y73747D01*
X255030Y73315D01*
X255866Y73091D01*
X256732D01*
X257568Y73315D01*
X258318Y73747D01*
X258930Y74360D01*
X259363Y75109D01*
X259587Y75945D01*
Y76811D01*
X259363Y77647D01*
X258930Y78396D01*
X258318Y79009D01*
X257568Y79441D01*
X256732Y79665D01*
D02*
G37*
G36*
X178116Y78832D02*
X177250D01*
X176414Y78608D01*
X175665Y78175D01*
X175053Y77563D01*
X174620Y76814D01*
X174396Y75978D01*
Y75112D01*
X174620Y74276D01*
X175053Y73526D01*
X175665Y72914D01*
X176414Y72481D01*
X177250Y72257D01*
X178116D01*
X178952Y72481D01*
X179702Y72914D01*
X180314Y73526D01*
X180747Y74276D01*
X180971Y75112D01*
Y75978D01*
X180747Y76814D01*
X180314Y77563D01*
X179702Y78175D01*
X178952Y78608D01*
X178116Y78832D01*
D02*
G37*
G36*
X493077Y78832D02*
X492211D01*
X491375Y78608D01*
X490625Y78175D01*
X490013Y77563D01*
X489580Y76814D01*
X489356Y75978D01*
Y75112D01*
X489580Y74276D01*
X490013Y73526D01*
X490625Y72914D01*
X491375Y72481D01*
X492211Y72257D01*
X493077D01*
X493913Y72481D01*
X494662Y72914D01*
X495274Y73526D01*
X495707Y74276D01*
X495931Y75112D01*
Y75978D01*
X495707Y76814D01*
X495274Y77563D01*
X494662Y78175D01*
X493913Y78608D01*
X493077Y78832D01*
D02*
G37*
G36*
X414336D02*
X413471D01*
X412635Y78608D01*
X411885Y78175D01*
X411273Y77563D01*
X410840Y76814D01*
X410616Y75978D01*
Y75112D01*
X410840Y74276D01*
X411273Y73526D01*
X411885Y72914D01*
X412635Y72481D01*
X413471Y72257D01*
X414336D01*
X415172Y72481D01*
X415922Y72914D01*
X416534Y73526D01*
X416967Y74276D01*
X417191Y75112D01*
Y75978D01*
X416967Y76814D01*
X416534Y77563D01*
X415922Y78175D01*
X415172Y78608D01*
X414336Y78832D01*
D02*
G37*
G36*
X335596D02*
X334731D01*
X333895Y78608D01*
X333145Y78175D01*
X332533Y77563D01*
X332100Y76814D01*
X331876Y75978D01*
Y75112D01*
X332100Y74276D01*
X332533Y73526D01*
X333145Y72914D01*
X333895Y72481D01*
X334731Y72257D01*
X335596D01*
X336432Y72481D01*
X337182Y72914D01*
X337794Y73526D01*
X338227Y74276D01*
X338451Y75112D01*
Y75978D01*
X338227Y76814D01*
X337794Y77563D01*
X337182Y78175D01*
X336432Y78608D01*
X335596Y78832D01*
D02*
G37*
G36*
X10864Y74016D02*
X10002D01*
X9206Y73686D01*
X8597Y73077D01*
X8268Y72281D01*
Y71420D01*
X8597Y70624D01*
X9206Y70015D01*
X10002Y69685D01*
X10864D01*
X11660Y70015D01*
X12269Y70624D01*
X12598Y71420D01*
Y72281D01*
X12269Y73077D01*
X11660Y73686D01*
X10864Y74016D01*
D02*
G37*
G36*
X32517Y71457D02*
X31656D01*
X30860Y71127D01*
X30251Y70518D01*
X29921Y69722D01*
Y68861D01*
X30251Y68065D01*
X30860Y67456D01*
X31656Y67126D01*
X32517D01*
X33313Y67456D01*
X33922Y68065D01*
X34252Y68861D01*
Y69722D01*
X33922Y70518D01*
X33313Y71127D01*
X32517Y71457D01*
D02*
G37*
G36*
X54037Y71324D02*
X53171D01*
X52335Y71100D01*
X51586Y70667D01*
X50973Y70055D01*
X50541Y69305D01*
X50317Y68469D01*
Y67604D01*
X50541Y66768D01*
X50973Y66018D01*
X51586Y65406D01*
X52335Y64973D01*
X53171Y64749D01*
X54037D01*
X54873Y64973D01*
X55623Y65406D01*
X56235Y66018D01*
X56667Y66768D01*
X56891Y67604D01*
Y68469D01*
X56667Y69305D01*
X56235Y70055D01*
X55623Y70667D01*
X54873Y71100D01*
X54037Y71324D01*
D02*
G37*
G36*
X361640Y73281D02*
X352782D01*
Y64423D01*
X361640D01*
Y73281D01*
D02*
G37*
G36*
X322270D02*
X313411D01*
Y64423D01*
X322270D01*
Y73281D01*
D02*
G37*
G36*
X204160Y73281D02*
X195301D01*
Y64423D01*
X204160D01*
Y73281D01*
D02*
G37*
G36*
X164789D02*
X155931D01*
Y64423D01*
X164789D01*
Y73281D01*
D02*
G37*
G36*
X519120Y73281D02*
X510262D01*
Y64423D01*
X519120D01*
Y73281D01*
D02*
G37*
G36*
X479750D02*
X470892D01*
Y64423D01*
X479750D01*
Y73281D01*
D02*
G37*
G36*
X440380D02*
X431522D01*
Y64423D01*
X440380D01*
Y73281D01*
D02*
G37*
G36*
X401010D02*
X392152D01*
Y64423D01*
X401010D01*
Y73281D01*
D02*
G37*
G36*
X282900D02*
X274042D01*
Y64423D01*
X282900D01*
Y73281D01*
D02*
G37*
G36*
X243530D02*
X234671D01*
Y64423D01*
X243530D01*
Y73281D01*
D02*
G37*
G36*
X120509Y68504D02*
X119648D01*
X118852Y68174D01*
X118243Y67565D01*
X117913Y66769D01*
Y65908D01*
X118243Y65112D01*
X118852Y64503D01*
X119648Y64173D01*
X120509D01*
X121305Y64503D01*
X121914Y65112D01*
X122244Y65908D01*
Y66769D01*
X121914Y67565D01*
X121305Y68174D01*
X120509Y68504D01*
D02*
G37*
G36*
X32517Y66339D02*
X31656D01*
X30860Y66009D01*
X30251Y65400D01*
X29921Y64604D01*
Y63743D01*
X30251Y62947D01*
X30860Y62337D01*
X31656Y62008D01*
X32517D01*
X33313Y62337D01*
X33922Y62947D01*
X34252Y63743D01*
Y64604D01*
X33922Y65400D01*
X33313Y66009D01*
X32517Y66339D01*
D02*
G37*
G36*
X11061Y62008D02*
X10199D01*
X9403Y61678D01*
X8794Y61069D01*
X8465Y60273D01*
Y59412D01*
X8794Y58616D01*
X9403Y58007D01*
X10199Y57677D01*
X11061D01*
X11857Y58007D01*
X12466Y58616D01*
X12795Y59412D01*
Y60273D01*
X12466Y61069D01*
X11857Y61678D01*
X11061Y62008D01*
D02*
G37*
G36*
X108698Y56693D02*
X107837D01*
X107041Y56363D01*
X106432Y55754D01*
X106102Y54958D01*
Y54097D01*
X106432Y53301D01*
X107041Y52692D01*
X107837Y52362D01*
X108698D01*
X109494Y52692D01*
X110103Y53301D01*
X110433Y54097D01*
Y54958D01*
X110103Y55754D01*
X109494Y56363D01*
X108698Y56693D01*
D02*
G37*
G36*
X36848Y55709D02*
X35987D01*
X35191Y55379D01*
X34582Y54770D01*
X34252Y53974D01*
Y53113D01*
X34582Y52317D01*
X35191Y51708D01*
X35987Y51378D01*
X36848D01*
X37644Y51708D01*
X38253Y52317D01*
X38583Y53113D01*
Y53974D01*
X38253Y54770D01*
X37644Y55379D01*
X36848Y55709D01*
D02*
G37*
G36*
X358211Y53704D02*
Y50167D01*
X361748D01*
X361536Y50959D01*
X360925Y52017D01*
X360061Y52881D01*
X359002Y53492D01*
X358211Y53704D01*
D02*
G37*
G36*
X356211Y53704D02*
X355419Y53492D01*
X354361Y52881D01*
X353497Y52017D01*
X352885Y50959D01*
X352673Y50167D01*
X356211D01*
Y53704D01*
D02*
G37*
G36*
X316841Y53704D02*
X316049Y53492D01*
X314991Y52881D01*
X314126Y52017D01*
X313515Y50959D01*
X313303Y50167D01*
X316841D01*
Y53704D01*
D02*
G37*
G36*
X515691Y53704D02*
Y50167D01*
X519229D01*
X519017Y50959D01*
X518405Y52017D01*
X517541Y52881D01*
X516483Y53492D01*
X515691Y53704D01*
D02*
G37*
G36*
X436951D02*
Y50167D01*
X440488D01*
X440276Y50959D01*
X439665Y52017D01*
X438801Y52881D01*
X437743Y53492D01*
X436951Y53704D01*
D02*
G37*
G36*
X200730Y53704D02*
Y50167D01*
X204268D01*
X204056Y50959D01*
X203445Y52017D01*
X202580Y52881D01*
X201522Y53492D01*
X200730Y53704D01*
D02*
G37*
G36*
X198731D02*
X197939Y53492D01*
X196880Y52881D01*
X196016Y52017D01*
X195405Y50959D01*
X195193Y50167D01*
X198731D01*
Y53704D01*
D02*
G37*
G36*
X513691D02*
X512899Y53492D01*
X511841Y52881D01*
X510977Y52017D01*
X510366Y50959D01*
X510154Y50167D01*
X513691D01*
Y53704D01*
D02*
G37*
G36*
X434951D02*
X434159Y53492D01*
X433101Y52881D01*
X432237Y52017D01*
X431626Y50959D01*
X431413Y50167D01*
X434951D01*
Y53704D01*
D02*
G37*
G36*
X279471Y53704D02*
Y50167D01*
X283008D01*
X282796Y50959D01*
X282185Y52017D01*
X281321Y52881D01*
X280262Y53492D01*
X279471Y53704D01*
D02*
G37*
G36*
X277471D02*
X276679Y53492D01*
X275621Y52881D01*
X274756Y52017D01*
X274145Y50959D01*
X273933Y50167D01*
X277471D01*
Y53704D01*
D02*
G37*
G36*
X159360Y53704D02*
X158569Y53492D01*
X157510Y52881D01*
X156646Y52017D01*
X156035Y50959D01*
X155823Y50167D01*
X159360D01*
Y53704D01*
D02*
G37*
G36*
X474321Y53704D02*
X473529Y53492D01*
X472471Y52881D01*
X471607Y52017D01*
X470996Y50959D01*
X470784Y50167D01*
X474321D01*
Y53704D01*
D02*
G37*
G36*
X395581D02*
X394789Y53492D01*
X393731Y52881D01*
X392866Y52017D01*
X392255Y50959D01*
X392043Y50167D01*
X395581D01*
Y53704D01*
D02*
G37*
G36*
X238101D02*
X237309Y53492D01*
X236250Y52881D01*
X235386Y52017D01*
X234775Y50959D01*
X234563Y50167D01*
X238101D01*
Y53704D01*
D02*
G37*
G36*
X104761Y52756D02*
X103900D01*
X103104Y52426D01*
X102495Y51817D01*
X102165Y51021D01*
Y50160D01*
X102495Y49364D01*
X103104Y48755D01*
X103900Y48425D01*
X104761D01*
X105557Y48755D01*
X106166Y49364D01*
X106496Y50160D01*
Y51021D01*
X106166Y51817D01*
X105557Y52426D01*
X104761Y52756D01*
D02*
G37*
G36*
X51220Y53287D02*
X50355D01*
X49518Y53063D01*
X48769Y52631D01*
X48157Y52018D01*
X47724Y51269D01*
X47500Y50433D01*
Y49567D01*
X47724Y48731D01*
X48157Y47982D01*
X48769Y47369D01*
X49518Y46937D01*
X50355Y46713D01*
X51220D01*
X52056Y46937D01*
X52806Y47369D01*
X53418Y47982D01*
X53851Y48731D01*
X54075Y49567D01*
Y50433D01*
X53851Y51269D01*
X53418Y52018D01*
X52806Y52631D01*
X52056Y53063D01*
X51220Y53287D01*
D02*
G37*
G36*
X476321Y53704D02*
Y49167D01*
Y44629D01*
X477113Y44842D01*
X478171Y45453D01*
X479035Y46317D01*
X479646Y47375D01*
X479963Y48556D01*
Y48945D01*
X480463Y49152D01*
X480663Y48952D01*
X481459Y48622D01*
X482320D01*
X482612Y48743D01*
X482995Y48360D01*
X482874Y48068D01*
Y47207D01*
X483204Y46411D01*
X483813Y45802D01*
X484609Y45472D01*
X485470D01*
X486266Y45802D01*
X486875Y46411D01*
X487205Y47207D01*
Y48068D01*
X486875Y48864D01*
X486266Y49474D01*
X485470Y49803D01*
X484609D01*
X484317Y49682D01*
X483934Y50065D01*
X484055Y50357D01*
Y51218D01*
X483725Y52014D01*
X483116Y52623D01*
X482320Y52953D01*
X481459D01*
X480663Y52623D01*
X480054Y52014D01*
X479870Y51570D01*
X479314Y51534D01*
X479035Y52017D01*
X478171Y52881D01*
X477113Y53492D01*
X476321Y53704D01*
D02*
G37*
G36*
X397581D02*
Y49167D01*
Y44629D01*
X398373Y44842D01*
X399431Y45453D01*
X400295Y46317D01*
X400906Y47375D01*
X401223Y48556D01*
Y48945D01*
X401723Y49152D01*
X401923Y48952D01*
X402719Y48622D01*
X403580D01*
X403872Y48743D01*
X404255Y48360D01*
X404134Y48068D01*
Y47207D01*
X404463Y46411D01*
X405073Y45802D01*
X405868Y45472D01*
X406730D01*
X407526Y45802D01*
X408135Y46411D01*
X408465Y47207D01*
Y48068D01*
X408135Y48864D01*
X407526Y49474D01*
X406730Y49803D01*
X405868D01*
X405577Y49682D01*
X405194Y50065D01*
X405315Y50357D01*
Y51218D01*
X404985Y52014D01*
X404376Y52623D01*
X403580Y52953D01*
X402719D01*
X401923Y52623D01*
X401314Y52014D01*
X401130Y51570D01*
X400574Y51534D01*
X400295Y52017D01*
X399431Y52881D01*
X398373Y53492D01*
X397581Y53704D01*
D02*
G37*
G36*
X318841Y53704D02*
Y49167D01*
Y44629D01*
X319632Y44842D01*
X320691Y45453D01*
X321555Y46317D01*
X322166Y47375D01*
X322482Y48556D01*
Y48945D01*
X322982Y49152D01*
X323183Y48952D01*
X323979Y48622D01*
X324840D01*
X325132Y48743D01*
X325515Y48360D01*
X325394Y48068D01*
Y47207D01*
X325723Y46411D01*
X326332Y45802D01*
X327128Y45472D01*
X327990D01*
X328786Y45802D01*
X329395Y46411D01*
X329724Y47207D01*
Y48068D01*
X329395Y48864D01*
X328786Y49474D01*
X327990Y49803D01*
X327128D01*
X326837Y49682D01*
X326454Y50065D01*
X326575Y50357D01*
Y51218D01*
X326245Y52014D01*
X325636Y52623D01*
X324840Y52953D01*
X323979D01*
X323183Y52623D01*
X322574Y52014D01*
X322390Y51571D01*
X321834Y51534D01*
X321555Y52017D01*
X320691Y52881D01*
X319632Y53492D01*
X318841Y53704D01*
D02*
G37*
G36*
X240101Y53704D02*
Y49167D01*
Y44629D01*
X240892Y44842D01*
X241951Y45453D01*
X242815Y46317D01*
X243426Y47375D01*
X243742Y48556D01*
Y48945D01*
X244242Y49152D01*
X244443Y48952D01*
X245239Y48622D01*
X246100D01*
X246392Y48743D01*
X246774Y48360D01*
X246654Y48068D01*
Y47207D01*
X246983Y46411D01*
X247592Y45802D01*
X248388Y45472D01*
X249250D01*
X250045Y45802D01*
X250655Y46411D01*
X250984Y47207D01*
Y48068D01*
X250655Y48864D01*
X250045Y49474D01*
X249250Y49803D01*
X248388D01*
X248096Y49682D01*
X247714Y50065D01*
X247835Y50357D01*
Y51218D01*
X247505Y52014D01*
X246896Y52623D01*
X246100Y52953D01*
X245239D01*
X244443Y52623D01*
X243834Y52014D01*
X243650Y51570D01*
X243094Y51534D01*
X242815Y52017D01*
X241951Y52881D01*
X240892Y53492D01*
X240101Y53704D01*
D02*
G37*
G36*
X161360Y53704D02*
Y49167D01*
Y44629D01*
X162152Y44842D01*
X163210Y45453D01*
X164075Y46317D01*
X164686Y47375D01*
X165002Y48556D01*
Y48945D01*
X165502Y49152D01*
X165702Y48952D01*
X166498Y48622D01*
X167360D01*
X167651Y48743D01*
X168034Y48360D01*
X167913Y48068D01*
Y47207D01*
X168243Y46411D01*
X168852Y45802D01*
X169648Y45472D01*
X170509D01*
X171305Y45802D01*
X171914Y46411D01*
X172244Y47207D01*
Y48068D01*
X171914Y48864D01*
X171305Y49474D01*
X170509Y49803D01*
X169648D01*
X169356Y49682D01*
X168974Y50065D01*
X169095Y50357D01*
Y51218D01*
X168765Y52014D01*
X168156Y52623D01*
X167360Y52953D01*
X166498D01*
X165702Y52623D01*
X165093Y52014D01*
X164910Y51570D01*
X164353Y51534D01*
X164075Y52017D01*
X163210Y52881D01*
X162152Y53492D01*
X161360Y53704D01*
D02*
G37*
G36*
X42791Y49768D02*
X41930D01*
X41134Y49439D01*
X40525Y48830D01*
X40195Y48034D01*
Y47172D01*
X40525Y46376D01*
X41134Y45767D01*
X41930Y45438D01*
X42791D01*
X43587Y45767D01*
X44196Y46376D01*
X44526Y47172D01*
Y48034D01*
X44196Y48830D01*
X43587Y49439D01*
X42791Y49768D01*
D02*
G37*
G36*
X361748Y48167D02*
X358211D01*
Y44629D01*
X359002Y44842D01*
X360061Y45453D01*
X360925Y46317D01*
X361536Y47375D01*
X361748Y48167D01*
D02*
G37*
G36*
X316841Y48167D02*
X313303D01*
X313515Y47375D01*
X314126Y46317D01*
X314991Y45453D01*
X316049Y44842D01*
X316841Y44629D01*
Y48167D01*
D02*
G37*
G36*
X356211Y48167D02*
X352673D01*
X352885Y47375D01*
X353497Y46317D01*
X354361Y45453D01*
X355419Y44842D01*
X356211Y44629D01*
Y48167D01*
D02*
G37*
G36*
X204268Y48167D02*
X200730D01*
Y44629D01*
X201522Y44842D01*
X202580Y45453D01*
X203445Y46317D01*
X204056Y47375D01*
X204268Y48167D01*
D02*
G37*
G36*
X159360Y48167D02*
X155823D01*
X156035Y47375D01*
X156646Y46317D01*
X157510Y45453D01*
X158569Y44842D01*
X159360Y44629D01*
Y48167D01*
D02*
G37*
G36*
X198731Y48167D02*
X195193D01*
X195405Y47375D01*
X196016Y46317D01*
X196880Y45453D01*
X197939Y44842D01*
X198731Y44629D01*
Y48167D01*
D02*
G37*
G36*
X519229D02*
X515691D01*
Y44629D01*
X516483Y44842D01*
X517541Y45453D01*
X518405Y46317D01*
X519017Y47375D01*
X519229Y48167D01*
D02*
G37*
G36*
X440488D02*
X436951D01*
Y44629D01*
X437743Y44842D01*
X438801Y45453D01*
X439665Y46317D01*
X440276Y47375D01*
X440488Y48167D01*
D02*
G37*
G36*
X283008Y48167D02*
X279471D01*
Y44629D01*
X280262Y44842D01*
X281321Y45453D01*
X282185Y46317D01*
X282796Y47375D01*
X283008Y48167D01*
D02*
G37*
G36*
X238101Y48167D02*
X234563D01*
X234775Y47375D01*
X235386Y46317D01*
X236250Y45453D01*
X237309Y44842D01*
X238101Y44629D01*
Y48167D01*
D02*
G37*
G36*
X395581Y48167D02*
X392043D01*
X392255Y47375D01*
X392866Y46317D01*
X393731Y45453D01*
X394789Y44842D01*
X395581Y44629D01*
Y48167D01*
D02*
G37*
G36*
X474321D02*
X470784D01*
X470996Y47375D01*
X471607Y46317D01*
X472471Y45453D01*
X473529Y44842D01*
X474321Y44629D01*
Y48167D01*
D02*
G37*
G36*
X277471Y48167D02*
X273933D01*
X274145Y47375D01*
X274756Y46317D01*
X275621Y45453D01*
X276679Y44842D01*
X277471Y44629D01*
Y48167D01*
D02*
G37*
G36*
X434951Y48167D02*
X431413D01*
X431626Y47375D01*
X432237Y46317D01*
X433101Y45453D01*
X434159Y44842D01*
X434951Y44629D01*
Y48167D01*
D02*
G37*
G36*
X513691D02*
X510153D01*
X510366Y47375D01*
X510977Y46317D01*
X511841Y45453D01*
X512899Y44842D01*
X513691Y44629D01*
Y48167D01*
D02*
G37*
G36*
X98856Y46850D02*
X97995D01*
X97199Y46521D01*
X96589Y45912D01*
X96260Y45116D01*
Y44254D01*
X96589Y43459D01*
X97199Y42849D01*
X97995Y42520D01*
X98856D01*
X99652Y42849D01*
X100261Y43459D01*
X100591Y44254D01*
Y45116D01*
X100261Y45912D01*
X99652Y46521D01*
X98856Y46850D01*
D02*
G37*
G36*
X94919Y42913D02*
X94058D01*
X93262Y42584D01*
X92652Y41975D01*
X92323Y41179D01*
Y40317D01*
X92652Y39522D01*
X93262Y38912D01*
X94058Y38583D01*
X94919D01*
X95715Y38912D01*
X96324Y39522D01*
X96653Y40317D01*
Y41179D01*
X96324Y41975D01*
X95715Y42584D01*
X94919Y42913D01*
D02*
G37*
G36*
X49643D02*
X48782D01*
X47986Y42584D01*
X47377Y41975D01*
X47047Y41179D01*
Y40317D01*
X47377Y39522D01*
X47986Y38912D01*
X48782Y38583D01*
X49643D01*
X50439Y38912D01*
X51048Y39522D01*
X51378Y40317D01*
Y41179D01*
X51048Y41975D01*
X50439Y42584D01*
X49643Y42913D01*
D02*
G37*
G36*
X90982Y38976D02*
X90121D01*
X89325Y38647D01*
X88715Y38038D01*
X88386Y37242D01*
Y36380D01*
X88715Y35585D01*
X89325Y34975D01*
X90121Y34646D01*
X90982D01*
X91778Y34975D01*
X92387Y35585D01*
X92716Y36380D01*
Y37242D01*
X92387Y38038D01*
X91778Y38647D01*
X90982Y38976D01*
D02*
G37*
G36*
X256732Y41083D02*
X255866D01*
X255030Y40859D01*
X254281Y40426D01*
X253669Y39814D01*
X253236Y39064D01*
X253012Y38228D01*
Y37363D01*
X253236Y36526D01*
X253669Y35777D01*
X254281Y35165D01*
X255030Y34732D01*
X255866Y34508D01*
X256732D01*
X257568Y34732D01*
X258318Y35165D01*
X258930Y35777D01*
X259363Y36526D01*
X259587Y37363D01*
Y38228D01*
X259363Y39064D01*
X258930Y39814D01*
X258318Y40426D01*
X257568Y40859D01*
X256732Y41083D01*
D02*
G37*
G36*
X178116Y39462D02*
X177250D01*
X176414Y39238D01*
X175665Y38805D01*
X175053Y38193D01*
X174620Y37444D01*
X174396Y36608D01*
Y35742D01*
X174620Y34906D01*
X175053Y34156D01*
X175665Y33544D01*
X176414Y33111D01*
X177250Y32887D01*
X178116D01*
X178952Y33111D01*
X179702Y33544D01*
X180314Y34156D01*
X180747Y34906D01*
X180971Y35742D01*
Y36608D01*
X180747Y37444D01*
X180314Y38193D01*
X179702Y38805D01*
X178952Y39238D01*
X178116Y39462D01*
D02*
G37*
G36*
X493077Y39462D02*
X492211D01*
X491375Y39238D01*
X490625Y38805D01*
X490013Y38193D01*
X489580Y37444D01*
X489356Y36608D01*
Y35742D01*
X489580Y34906D01*
X490013Y34156D01*
X490625Y33544D01*
X491375Y33111D01*
X492211Y32887D01*
X493077D01*
X493913Y33111D01*
X494662Y33544D01*
X495274Y34156D01*
X495707Y34906D01*
X495931Y35742D01*
Y36608D01*
X495707Y37444D01*
X495274Y38193D01*
X494662Y38805D01*
X493913Y39238D01*
X493077Y39462D01*
D02*
G37*
G36*
X414336D02*
X413471D01*
X412635Y39238D01*
X411885Y38805D01*
X411273Y38193D01*
X410840Y37444D01*
X410616Y36608D01*
Y35742D01*
X410840Y34906D01*
X411273Y34156D01*
X411885Y33544D01*
X412635Y33111D01*
X413471Y32887D01*
X414336D01*
X415172Y33111D01*
X415922Y33544D01*
X416534Y34156D01*
X416967Y34906D01*
X417191Y35742D01*
Y36608D01*
X416967Y37444D01*
X416534Y38193D01*
X415922Y38805D01*
X415172Y39238D01*
X414336Y39462D01*
D02*
G37*
G36*
X335596D02*
X334731D01*
X333895Y39238D01*
X333145Y38805D01*
X332533Y38193D01*
X332100Y37444D01*
X331876Y36608D01*
Y35742D01*
X332100Y34906D01*
X332533Y34156D01*
X333145Y33544D01*
X333895Y33111D01*
X334731Y32887D01*
X335596D01*
X336432Y33111D01*
X337182Y33544D01*
X337794Y34156D01*
X338227Y34906D01*
X338451Y35742D01*
Y36608D01*
X338227Y37444D01*
X337794Y38193D01*
X337182Y38805D01*
X336432Y39238D01*
X335596Y39462D01*
D02*
G37*
G36*
X56533Y36024D02*
X55672D01*
X54876Y35694D01*
X54267Y35085D01*
X53937Y34289D01*
Y33428D01*
X54267Y32632D01*
X54876Y32023D01*
X55672Y31693D01*
X56533D01*
X57329Y32023D01*
X57938Y32632D01*
X58268Y33428D01*
Y34289D01*
X57938Y35085D01*
X57329Y35694D01*
X56533Y36024D01*
D02*
G37*
G36*
X85873Y33527D02*
X85011D01*
X84215Y33197D01*
X83606Y32588D01*
X83277Y31792D01*
Y30931D01*
X83332Y30798D01*
X82949Y30415D01*
X82716Y30512D01*
X81854D01*
X81058Y30182D01*
X80449Y29573D01*
X80120Y28777D01*
Y27916D01*
X80137Y27875D01*
X79783Y27521D01*
X79765Y27528D01*
X78904D01*
X78108Y27199D01*
X77499Y26590D01*
X77170Y25794D01*
Y24932D01*
X77499Y24136D01*
X77519Y24117D01*
X77211Y23744D01*
X76415Y24074D01*
X75554D01*
X74758Y23744D01*
X74149Y23135D01*
X73819Y22340D01*
Y21478D01*
X74149Y20682D01*
X74758Y20073D01*
X75554Y19743D01*
X76415D01*
X77211Y20073D01*
X77820Y20682D01*
X78150Y21478D01*
Y22340D01*
X77820Y23135D01*
X77801Y23155D01*
X78108Y23527D01*
X78904Y23198D01*
X79765D01*
X80561Y23527D01*
X81170Y24136D01*
X81500Y24932D01*
Y25794D01*
X81483Y25835D01*
X81837Y26188D01*
X81854Y26181D01*
X82716D01*
X83511Y26511D01*
X84121Y27120D01*
X84450Y27916D01*
Y28777D01*
X84395Y28910D01*
X84778Y29293D01*
X85011Y29196D01*
X85873D01*
X86669Y29526D01*
X87278Y30135D01*
X87607Y30931D01*
Y31792D01*
X87278Y32588D01*
X86669Y33197D01*
X85873Y33527D01*
D02*
G37*
G36*
X204160Y33911D02*
X195301D01*
Y25053D01*
X204160D01*
Y33911D01*
D02*
G37*
G36*
X164789D02*
X155931D01*
Y25053D01*
X164789D01*
Y33911D01*
D02*
G37*
G36*
X519120Y33911D02*
X510262D01*
Y25053D01*
X519120D01*
Y33911D01*
D02*
G37*
G36*
X479750D02*
X470892D01*
Y25053D01*
X479750D01*
Y33911D01*
D02*
G37*
G36*
X440380D02*
X431522D01*
Y25053D01*
X440380D01*
Y33911D01*
D02*
G37*
G36*
X401010D02*
X392152D01*
Y25053D01*
X401010D01*
Y33911D01*
D02*
G37*
G36*
X361640D02*
X352782D01*
Y25053D01*
X361640D01*
Y33911D01*
D02*
G37*
G36*
X322270D02*
X313411D01*
Y25053D01*
X322270D01*
Y33911D01*
D02*
G37*
G36*
X282900D02*
X274042D01*
Y25053D01*
X282900D01*
Y33911D01*
D02*
G37*
G36*
X243530D02*
X234671D01*
Y25053D01*
X243530D01*
Y33911D01*
D02*
G37*
G36*
X33088Y26921D02*
X32227D01*
X31431Y26592D01*
X30822Y25982D01*
X30492Y25187D01*
Y24325D01*
X30822Y23529D01*
X31431Y22920D01*
X32227Y22591D01*
X33088D01*
X33884Y22920D01*
X34493Y23529D01*
X34823Y24325D01*
Y25187D01*
X34493Y25982D01*
X33884Y26592D01*
X33088Y26921D01*
D02*
G37*
G36*
X72675Y20669D02*
X71813D01*
X71017Y20340D01*
X70408Y19730D01*
X70079Y18935D01*
Y18073D01*
X70408Y17277D01*
X71017Y16668D01*
X71813Y16339D01*
X72675D01*
X73471Y16668D01*
X74080Y17277D01*
X74410Y18073D01*
Y18935D01*
X74080Y19730D01*
X73471Y20340D01*
X72675Y20669D01*
D02*
G37*
G36*
X9486Y15354D02*
X8624D01*
X7829Y15025D01*
X7219Y14415D01*
X6890Y13620D01*
Y12758D01*
X7219Y11962D01*
X7829Y11353D01*
X8624Y11024D01*
X9486D01*
X10282Y11353D01*
X10891Y11962D01*
X11220Y12758D01*
Y13620D01*
X10891Y14415D01*
X10282Y15025D01*
X9486Y15354D01*
D02*
G37*
G36*
X436951Y14334D02*
Y10797D01*
X440488D01*
X440276Y11588D01*
X439665Y12647D01*
X438801Y13511D01*
X437743Y14122D01*
X436951Y14334D01*
D02*
G37*
G36*
X515691D02*
Y10797D01*
X519229D01*
X519017Y11588D01*
X518405Y12647D01*
X517541Y13511D01*
X516483Y14122D01*
X515691Y14334D01*
D02*
G37*
G36*
X358211D02*
Y10797D01*
X361748D01*
X361536Y11588D01*
X360925Y12647D01*
X360061Y13511D01*
X359002Y14122D01*
X358211Y14334D01*
D02*
G37*
G36*
X200730Y14334D02*
Y10797D01*
X204268D01*
X204056Y11588D01*
X203445Y12647D01*
X202580Y13511D01*
X201522Y14122D01*
X200730Y14334D01*
D02*
G37*
G36*
X198731D02*
X197939Y14122D01*
X196880Y13511D01*
X196016Y12647D01*
X195405Y11588D01*
X195193Y10797D01*
X198731D01*
Y14334D01*
D02*
G37*
G36*
X513691D02*
X512899Y14122D01*
X511841Y13511D01*
X510977Y12647D01*
X510366Y11588D01*
X510154Y10797D01*
X513691D01*
Y14334D01*
D02*
G37*
G36*
X434951D02*
X434159Y14122D01*
X433101Y13511D01*
X432237Y12647D01*
X431626Y11588D01*
X431413Y10797D01*
X434951D01*
Y14334D01*
D02*
G37*
G36*
X356211D02*
X355419Y14122D01*
X354361Y13511D01*
X353497Y12647D01*
X352885Y11588D01*
X352673Y10797D01*
X356211D01*
Y14334D01*
D02*
G37*
G36*
X279471Y14334D02*
Y10797D01*
X283008D01*
X282796Y11588D01*
X282185Y12647D01*
X281321Y13511D01*
X280262Y14122D01*
X279471Y14334D01*
D02*
G37*
G36*
X277471D02*
X276679Y14122D01*
X275621Y13511D01*
X274756Y12647D01*
X274145Y11588D01*
X273933Y10797D01*
X277471D01*
Y14334D01*
D02*
G37*
G36*
X159360Y14334D02*
X158569Y14122D01*
X157510Y13511D01*
X156646Y12647D01*
X156035Y11588D01*
X155823Y10797D01*
X159360D01*
Y14334D01*
D02*
G37*
G36*
X474321Y14334D02*
X473529Y14122D01*
X472471Y13511D01*
X471607Y12647D01*
X470996Y11588D01*
X470784Y10797D01*
X474321D01*
Y14334D01*
D02*
G37*
G36*
X395581D02*
X394789Y14122D01*
X393731Y13511D01*
X392866Y12647D01*
X392255Y11588D01*
X392043Y10797D01*
X395581D01*
Y14334D01*
D02*
G37*
G36*
X316841D02*
X316049Y14122D01*
X314991Y13511D01*
X314126Y12647D01*
X313515Y11588D01*
X313303Y10797D01*
X316841D01*
Y14334D01*
D02*
G37*
G36*
X238101D02*
X237309Y14122D01*
X236250Y13511D01*
X235386Y12647D01*
X234775Y11588D01*
X234563Y10797D01*
X238101D01*
Y14334D01*
D02*
G37*
G36*
X85667Y12795D02*
X84806D01*
X84010Y12466D01*
X83400Y11857D01*
X83071Y11061D01*
Y10199D01*
X83400Y9403D01*
X84010Y8794D01*
X84806Y8465D01*
X85667D01*
X86463Y8794D01*
X87072Y9403D01*
X87402Y10199D01*
Y11061D01*
X87072Y11857D01*
X86463Y12466D01*
X85667Y12795D01*
D02*
G37*
G36*
X476321Y14334D02*
Y9797D01*
Y5259D01*
X477113Y5471D01*
X478171Y6083D01*
X479035Y6947D01*
X479646Y8005D01*
X479963Y9186D01*
Y9575D01*
X480463Y9782D01*
X480663Y9582D01*
X481459Y9252D01*
X482320D01*
X482612Y9373D01*
X482995Y8990D01*
X482874Y8698D01*
Y7837D01*
X483204Y7041D01*
X483813Y6432D01*
X484609Y6102D01*
X485470D01*
X486266Y6432D01*
X486875Y7041D01*
X487205Y7837D01*
Y8698D01*
X486875Y9494D01*
X486266Y10103D01*
X485470Y10433D01*
X484609D01*
X484317Y10312D01*
X483934Y10695D01*
X484055Y10987D01*
Y11848D01*
X483725Y12644D01*
X483116Y13253D01*
X482320Y13583D01*
X481459D01*
X480663Y13253D01*
X480054Y12644D01*
X479870Y12201D01*
X479314Y12164D01*
X479035Y12647D01*
X478171Y13511D01*
X477113Y14122D01*
X476321Y14334D01*
D02*
G37*
G36*
X397581D02*
Y9797D01*
Y5259D01*
X398373Y5471D01*
X399431Y6083D01*
X400295Y6947D01*
X400906Y8005D01*
X401223Y9186D01*
Y9575D01*
X401723Y9782D01*
X401923Y9582D01*
X402719Y9252D01*
X403580D01*
X403872Y9373D01*
X404255Y8990D01*
X404134Y8698D01*
Y7837D01*
X404463Y7041D01*
X405073Y6432D01*
X405868Y6102D01*
X406730D01*
X407526Y6432D01*
X408135Y7041D01*
X408465Y7837D01*
Y8698D01*
X408135Y9494D01*
X407526Y10103D01*
X406730Y10433D01*
X405868D01*
X405577Y10312D01*
X405194Y10695D01*
X405315Y10987D01*
Y11848D01*
X404985Y12644D01*
X404376Y13253D01*
X403580Y13583D01*
X402719D01*
X401923Y13253D01*
X401314Y12644D01*
X401130Y12201D01*
X400574Y12164D01*
X400295Y12647D01*
X399431Y13511D01*
X398373Y14122D01*
X397581Y14334D01*
D02*
G37*
G36*
X318841D02*
Y9797D01*
Y5259D01*
X319632Y5471D01*
X320691Y6083D01*
X321555Y6947D01*
X322166Y8005D01*
X322482Y9186D01*
Y9575D01*
X322982Y9782D01*
X323183Y9582D01*
X323979Y9252D01*
X324840D01*
X325132Y9373D01*
X325515Y8990D01*
X325394Y8698D01*
Y7837D01*
X325723Y7041D01*
X326332Y6432D01*
X327128Y6102D01*
X327990D01*
X328786Y6432D01*
X329395Y7041D01*
X329724Y7837D01*
Y8698D01*
X329395Y9494D01*
X328786Y10103D01*
X327990Y10433D01*
X327128D01*
X326837Y10312D01*
X326454Y10695D01*
X326575Y10987D01*
Y11848D01*
X326245Y12644D01*
X325636Y13253D01*
X324840Y13583D01*
X323979D01*
X323183Y13253D01*
X322574Y12644D01*
X322390Y12201D01*
X321834Y12164D01*
X321555Y12647D01*
X320691Y13511D01*
X319632Y14122D01*
X318841Y14334D01*
D02*
G37*
G36*
X240101D02*
Y9797D01*
Y5259D01*
X240892Y5471D01*
X241951Y6083D01*
X242815Y6947D01*
X243426Y8005D01*
X243742Y9186D01*
Y9575D01*
X244242Y9782D01*
X244443Y9582D01*
X245239Y9252D01*
X246100D01*
X246392Y9373D01*
X246774Y8990D01*
X246654Y8698D01*
Y7837D01*
X246983Y7041D01*
X247592Y6432D01*
X248388Y6102D01*
X249250D01*
X250045Y6432D01*
X250655Y7041D01*
X250984Y7837D01*
Y8698D01*
X250655Y9494D01*
X250045Y10103D01*
X249250Y10433D01*
X248388D01*
X248096Y10312D01*
X247714Y10695D01*
X247835Y10987D01*
Y11848D01*
X247505Y12644D01*
X246896Y13253D01*
X246100Y13583D01*
X245239D01*
X244443Y13253D01*
X243834Y12644D01*
X243650Y12201D01*
X243094Y12164D01*
X242815Y12647D01*
X241951Y13511D01*
X240892Y14122D01*
X240101Y14334D01*
D02*
G37*
G36*
X161360Y14334D02*
Y9797D01*
Y5259D01*
X162152Y5471D01*
X163210Y6083D01*
X164075Y6947D01*
X164686Y8005D01*
X165002Y9186D01*
Y9575D01*
X165502Y9782D01*
X165702Y9582D01*
X166498Y9252D01*
X167360D01*
X167651Y9373D01*
X168034Y8990D01*
X167913Y8698D01*
Y7837D01*
X168243Y7041D01*
X168852Y6432D01*
X169648Y6102D01*
X170509D01*
X171305Y6432D01*
X171914Y7041D01*
X172244Y7837D01*
Y8698D01*
X171914Y9494D01*
X171305Y10103D01*
X170509Y10433D01*
X169648D01*
X169356Y10312D01*
X168974Y10695D01*
X169095Y10987D01*
Y11848D01*
X168765Y12644D01*
X168156Y13253D01*
X167360Y13583D01*
X166498D01*
X165702Y13253D01*
X165093Y12644D01*
X164910Y12201D01*
X164353Y12164D01*
X164075Y12647D01*
X163210Y13511D01*
X162152Y14122D01*
X161360Y14334D01*
D02*
G37*
G36*
X204268Y8797D02*
X200730D01*
Y5259D01*
X201522Y5471D01*
X202580Y6083D01*
X203445Y6947D01*
X204056Y8005D01*
X204268Y8797D01*
D02*
G37*
G36*
X159360Y8797D02*
X155823D01*
X156035Y8005D01*
X156646Y6947D01*
X157510Y6083D01*
X158569Y5471D01*
X159360Y5259D01*
Y8797D01*
D02*
G37*
G36*
X198731Y8797D02*
X195193D01*
X195405Y8005D01*
X196016Y6947D01*
X196880Y6083D01*
X197939Y5471D01*
X198731Y5259D01*
Y8797D01*
D02*
G37*
G36*
X519229D02*
X515691D01*
Y5259D01*
X516483Y5471D01*
X517541Y6083D01*
X518405Y6947D01*
X519017Y8005D01*
X519229Y8797D01*
D02*
G37*
G36*
X440488D02*
X436951D01*
Y5259D01*
X437743Y5471D01*
X438801Y6083D01*
X439665Y6947D01*
X440276Y8005D01*
X440488Y8797D01*
D02*
G37*
G36*
X361748D02*
X358211D01*
Y5259D01*
X359002Y5471D01*
X360061Y6083D01*
X360925Y6947D01*
X361536Y8005D01*
X361748Y8797D01*
D02*
G37*
G36*
X283008Y8797D02*
X279471D01*
Y5259D01*
X280262Y5471D01*
X281321Y6083D01*
X282185Y6947D01*
X282796Y8005D01*
X283008Y8797D01*
D02*
G37*
G36*
X238101Y8797D02*
X234563D01*
X234775Y8005D01*
X235386Y6947D01*
X236250Y6083D01*
X237309Y5471D01*
X238101Y5259D01*
Y8797D01*
D02*
G37*
G36*
X395581Y8797D02*
X392043D01*
X392255Y8005D01*
X392866Y6947D01*
X393731Y6083D01*
X394789Y5471D01*
X395581Y5259D01*
Y8797D01*
D02*
G37*
G36*
X316841D02*
X313303D01*
X313515Y8005D01*
X314126Y6947D01*
X314991Y6083D01*
X316049Y5471D01*
X316841Y5259D01*
Y8797D01*
D02*
G37*
G36*
X474321D02*
X470784D01*
X470996Y8005D01*
X471607Y6947D01*
X472471Y6083D01*
X473529Y5471D01*
X474321Y5259D01*
Y8797D01*
D02*
G37*
G36*
X277471Y8797D02*
X273933D01*
X274145Y8005D01*
X274756Y6947D01*
X275621Y6083D01*
X276679Y5471D01*
X277471Y5259D01*
Y8797D01*
D02*
G37*
G36*
X513691Y8797D02*
X510153D01*
X510366Y8005D01*
X510977Y6947D01*
X511841Y6083D01*
X512899Y5471D01*
X513691Y5259D01*
Y8797D01*
D02*
G37*
G36*
X434951D02*
X431413D01*
X431626Y8005D01*
X432237Y6947D01*
X433101Y6083D01*
X434159Y5471D01*
X434951Y5259D01*
Y8797D01*
D02*
G37*
G36*
X356211D02*
X352673D01*
X352885Y8005D01*
X353497Y6947D01*
X354361Y6083D01*
X355419Y5471D01*
X356211Y5259D01*
Y8797D01*
D02*
G37*
G36*
X8679Y9205D02*
X7817D01*
X7022Y8875D01*
X6412Y8266D01*
X6083Y7470D01*
Y6609D01*
X6412Y5813D01*
X7022Y5204D01*
X7817Y4874D01*
X8679D01*
X9475Y5204D01*
X10084Y5813D01*
X10413Y6609D01*
Y7470D01*
X10084Y8266D01*
X9475Y8875D01*
X8679Y9205D01*
D02*
G37*
G36*
X17538Y6182D02*
X16677D01*
X15881Y5852D01*
X15272Y5243D01*
X14942Y4447D01*
Y3586D01*
X15272Y2790D01*
X15881Y2181D01*
X16677Y1851D01*
X17538D01*
X18334Y2181D01*
X18943Y2790D01*
X19273Y3586D01*
Y4447D01*
X18943Y5243D01*
X18334Y5852D01*
X17538Y6182D01*
D02*
G37*
G36*
X12617D02*
X11755D01*
X10960Y5852D01*
X10350Y5243D01*
X10021Y4447D01*
Y3586D01*
X10350Y2790D01*
X10960Y2181D01*
X11755Y1851D01*
X12617D01*
X13413Y2181D01*
X14022Y2790D01*
X14351Y3586D01*
Y4447D01*
X14022Y5243D01*
X13413Y5852D01*
X12617Y6182D01*
D02*
G37*
%LPD*%
G36*
X28875Y11211D02*
X29331Y10907D01*
X29869Y10800D01*
X48102D01*
X48236Y10300D01*
X48196Y10276D01*
X47499Y9580D01*
X47180Y9026D01*
X23276D01*
X11747Y20555D01*
X11981Y21028D01*
X14492D01*
X14522Y20999D01*
X15317Y20669D01*
X16179D01*
X16975Y20999D01*
X17584Y21608D01*
X17674Y21825D01*
X18164Y21923D01*
X28875Y11211D01*
D02*
G37*
D37*
X160360Y364127D02*
D03*
Y167277D02*
D03*
X239101Y364127D02*
D03*
X317841D02*
D03*
X396581D02*
D03*
X475321D02*
D03*
X199730Y9797D02*
D03*
X278471Y9797D02*
D03*
X357211D02*
D03*
X435951D02*
D03*
X514691D02*
D03*
X199730Y49167D02*
D03*
X278471Y49167D02*
D03*
X357211Y49167D02*
D03*
X435951Y49167D02*
D03*
X514691D02*
D03*
X199730Y88537D02*
D03*
X278471Y88537D02*
D03*
X357211D02*
D03*
X435951D02*
D03*
X514691D02*
D03*
X199730Y127907D02*
D03*
X278471Y127907D02*
D03*
X357211D02*
D03*
X435951D02*
D03*
X514691D02*
D03*
X199730Y167277D02*
D03*
X278471Y167277D02*
D03*
X357211D02*
D03*
X435951D02*
D03*
X514691D02*
D03*
X199730Y206647D02*
D03*
X278471Y206647D02*
D03*
X357211D02*
D03*
X435951D02*
D03*
X514691D02*
D03*
X199730Y246017D02*
D03*
X278471Y246017D02*
D03*
X357211D02*
D03*
X435951D02*
D03*
X514691D02*
D03*
X199730Y285387D02*
D03*
X278471Y285387D02*
D03*
X357211D02*
D03*
X435951D02*
D03*
X514691D02*
D03*
X199730Y324757D02*
D03*
X278471Y324757D02*
D03*
X357211D02*
D03*
X435951D02*
D03*
X514691D02*
D03*
X199730Y364127D02*
D03*
X278471Y364127D02*
D03*
X357211D02*
D03*
X435951D02*
D03*
X514691D02*
D03*
X160360Y9797D02*
D03*
X239101Y9797D02*
D03*
X317841D02*
D03*
X396581D02*
D03*
X475321D02*
D03*
X160360Y49167D02*
D03*
X239101Y49167D02*
D03*
X317841Y49167D02*
D03*
X396581Y49167D02*
D03*
X475321D02*
D03*
X160360Y88537D02*
D03*
X239101Y88537D02*
D03*
X317841D02*
D03*
X396581D02*
D03*
X475321D02*
D03*
X160360Y127907D02*
D03*
X239101Y127907D02*
D03*
X317841D02*
D03*
X396581D02*
D03*
X475321D02*
D03*
X239101Y167277D02*
D03*
X317841D02*
D03*
X396581D02*
D03*
X475321D02*
D03*
X160360Y206647D02*
D03*
X239101Y206647D02*
D03*
X317841D02*
D03*
X396581D02*
D03*
X475321D02*
D03*
X160360Y246017D02*
D03*
X239101Y246017D02*
D03*
X317841D02*
D03*
X396581D02*
D03*
X475321D02*
D03*
X160360Y285387D02*
D03*
X239101Y285387D02*
D03*
X317841D02*
D03*
X396581D02*
D03*
X475321D02*
D03*
X160360Y324757D02*
D03*
X239101Y324757D02*
D03*
X317841D02*
D03*
X396581D02*
D03*
X475321D02*
D03*
D49*
X50154Y7621D02*
X50492Y7283D01*
X5512Y24803D02*
X22694Y7621D01*
X50154D01*
X29869Y12205D02*
X52756D01*
X13333Y28740D02*
X29869Y12205D01*
X52756D02*
X55512Y9449D01*
X31398Y14272D02*
X57677D01*
X15748Y29921D02*
X31398Y14272D01*
X5512Y80229D02*
X6693Y81410D01*
X5512Y24803D02*
Y80229D01*
X6693Y81410D02*
Y81890D01*
X63304Y9449D02*
X65460Y7293D01*
X55512Y9449D02*
X63304D01*
X70588Y12205D02*
X75499Y7293D01*
X64173Y12205D02*
X70588D01*
X62598Y13780D02*
X64173Y12205D01*
X62598Y13780D02*
Y16929D01*
X60236Y19291D02*
X62598Y16929D01*
X73415Y7293D02*
X75499D01*
X55512Y19291D02*
X60236D01*
X19291Y30330D02*
X33086Y16535D01*
X19291Y30330D02*
Y33358D01*
X15748Y29921D02*
Y31496D01*
X33086Y16535D02*
X52756D01*
X18398Y34252D02*
X19291Y33358D01*
X52756Y16535D02*
X55512Y19291D01*
X12992Y28740D02*
X13333D01*
D51*
X37402Y102657D02*
X40945Y106201D01*
Y107087D01*
X70866Y137008D01*
X32087Y102657D02*
X37402D01*
X38189Y108384D02*
Y108458D01*
X37795Y107671D02*
Y107991D01*
X38189Y108384D01*
X35433Y113287D02*
X39665D01*
X69100Y139370D02*
X80315D01*
X38189Y108458D02*
X69100Y139370D01*
X70866Y137008D02*
X81496D01*
X39665Y113287D02*
X68504Y142126D01*
X75590Y151181D02*
X79134D01*
X74410Y150000D02*
X75590Y151181D01*
X74410Y146457D02*
Y150000D01*
X72835Y144882D02*
X74410Y146457D01*
X66929Y144882D02*
X72835D01*
X44094Y122047D02*
X66929Y144882D01*
X68504Y142126D02*
X79134D01*
X82480Y145472D01*
X81496Y137008D02*
X89764Y145276D01*
X85994Y145050D02*
Y147018D01*
X86221Y147244D01*
X80315Y139370D02*
X85994Y145050D01*
X82480Y145472D02*
Y149016D01*
X82677Y149213D01*
D55*
X22047Y383071D02*
D03*
X40551Y383071D02*
D03*
Y345669D02*
D03*
X22047Y345669D02*
D03*
D56*
X24016Y364370D02*
D03*
D58*
X37913Y173543D02*
D03*
Y220945D02*
D03*
D59*
X48583Y202165D02*
D03*
D60*
X28642Y4134D02*
D03*
X15354Y170866D02*
D03*
X14567Y155511D02*
D03*
X63976Y312402D02*
D03*
X106299Y284842D02*
D03*
X48228Y26969D02*
D03*
X27146Y26331D02*
D03*
X15748Y31496D02*
D03*
X13386Y51968D02*
D03*
X12992Y28740D02*
D03*
X18398Y34252D02*
D03*
X15748Y22835D02*
D03*
X32087Y102657D02*
D03*
X35433Y113287D02*
D03*
X37795Y107671D02*
D03*
X57480Y228346D02*
D03*
X86221Y147244D02*
D03*
X89764Y145276D02*
D03*
X79134Y151181D02*
D03*
X82677Y149213D02*
D03*
X44094Y122047D02*
D03*
X22835Y107087D02*
D03*
X96457Y98819D02*
D03*
X121653Y265748D02*
D03*
X85827Y204331D02*
D03*
X38976Y128740D02*
D03*
X6693Y81890D02*
D03*
X59055Y109646D02*
D03*
X23228Y66740D02*
D03*
X24606Y145473D02*
D03*
Y139764D02*
D03*
X20669Y265158D02*
D03*
X58465Y306890D02*
D03*
X10630Y101969D02*
D03*
X70079Y303150D02*
D03*
X71260Y106299D02*
D03*
X89961Y105315D02*
D03*
X59055Y30935D02*
D03*
X38475Y247356D02*
D03*
X93504Y11220D02*
D03*
X88583Y302559D02*
D03*
X95472Y295669D02*
D03*
X115157Y259252D02*
D03*
X100394Y244488D02*
D03*
X29528Y256299D02*
D03*
X66929Y324213D02*
D03*
X67913Y127362D02*
D03*
X32087Y57874D02*
D03*
X39459Y50505D02*
D03*
X101378Y47638D02*
D03*
X116142Y62402D02*
D03*
X123031Y69291D02*
D03*
X107283Y87992D02*
D03*
X64961Y115551D02*
D03*
X18701Y145473D02*
D03*
Y139764D02*
D03*
X10827Y127362D02*
D03*
D61*
X50492Y7283D02*
D03*
X57677Y14272D02*
D03*
X65460Y7293D02*
D03*
X75499D02*
D03*
D62*
X125000Y362598D02*
D03*
X125000Y31890D02*
D03*
D63*
X66535Y349213D02*
D03*
X105354Y182343D02*
D03*
X72047Y70472D02*
D03*
X61671Y59938D02*
D03*
X82696Y80703D02*
D03*
X58268Y147244D02*
D03*
X81908Y277554D02*
D03*
X96850Y182283D02*
D03*
X60884Y256789D02*
D03*
X71260Y267323D02*
D03*
X31890Y317717D02*
D03*
X16929Y299213D02*
D03*
X80709Y383071D02*
D03*
X425715Y177120D02*
D03*
Y59009D02*
D03*
Y19639D02*
D03*
Y98379D02*
D03*
X346974Y177120D02*
D03*
X337664Y177286D02*
D03*
X504455Y137750D02*
D03*
Y98379D02*
D03*
Y177120D02*
D03*
X495144Y98545D02*
D03*
Y177286D02*
D03*
Y137916D02*
D03*
X504455Y19639D02*
D03*
Y59009D02*
D03*
X416404Y19805D02*
D03*
Y59175D02*
D03*
X495144D02*
D03*
X416404Y177286D02*
D03*
X337664Y19805D02*
D03*
Y59175D02*
D03*
Y98545D02*
D03*
Y137916D02*
D03*
X425715Y137750D02*
D03*
X416404Y98545D02*
D03*
Y137916D02*
D03*
Y295396D02*
D03*
X346974Y98379D02*
D03*
X425715Y334600D02*
D03*
Y373970D02*
D03*
X416404Y334766D02*
D03*
Y374136D02*
D03*
X425715Y295230D02*
D03*
Y216490D02*
D03*
Y255860D02*
D03*
X416404Y216656D02*
D03*
Y256026D02*
D03*
X258923Y137916D02*
D03*
X346974Y137750D02*
D03*
X189494Y19639D02*
D03*
Y59009D02*
D03*
X346974Y334600D02*
D03*
Y373970D02*
D03*
X337664Y374136D02*
D03*
X268234Y59009D02*
D03*
Y19639D02*
D03*
X346974D02*
D03*
Y59009D02*
D03*
X268234Y177120D02*
D03*
X258923Y177286D02*
D03*
X268234Y98379D02*
D03*
Y137750D02*
D03*
X258923Y98545D02*
D03*
X268234Y373970D02*
D03*
X258923Y374136D02*
D03*
Y19805D02*
D03*
Y59175D02*
D03*
X189494Y334600D02*
D03*
X268234Y334600D02*
D03*
X189494Y373970D02*
D03*
X180183Y374136D02*
D03*
Y19805D02*
D03*
X189494Y98379D02*
D03*
X180183Y59175D02*
D03*
Y98545D02*
D03*
X189494Y177120D02*
D03*
Y137750D02*
D03*
X180183Y137916D02*
D03*
Y177286D02*
D03*
X504455Y295230D02*
D03*
Y216490D02*
D03*
Y255860D02*
D03*
X495144Y216656D02*
D03*
Y256026D02*
D03*
Y295396D02*
D03*
X504455Y334600D02*
D03*
Y373970D02*
D03*
X495144Y334766D02*
D03*
Y374136D02*
D03*
Y19805D02*
D03*
X189494Y216490D02*
D03*
X180183Y334766D02*
D03*
X189494Y255860D02*
D03*
X180183Y216656D02*
D03*
Y256026D02*
D03*
X189494Y295230D02*
D03*
X180183Y295396D02*
D03*
X337664Y216656D02*
D03*
Y256026D02*
D03*
X346974Y255860D02*
D03*
Y216490D02*
D03*
X258923Y256026D02*
D03*
X268234Y255860D02*
D03*
Y295230D02*
D03*
X258923Y295396D02*
D03*
Y334766D02*
D03*
X346974Y295230D02*
D03*
X337664Y295396D02*
D03*
Y334766D02*
D03*
X259275Y216838D02*
D03*
X268234Y216490D02*
D03*
D64*
X561024Y362598D02*
D03*
Y31890D02*
D03*
D65*
X14567Y155085D02*
Y155511D01*
X13780Y154298D02*
X14567Y155085D01*
X13780Y136614D02*
Y154298D01*
X8268Y31102D02*
X18607Y41441D01*
X8268Y26378D02*
Y31102D01*
Y26378D02*
X11811Y22835D01*
X15748D01*
X18607Y41441D02*
Y78449D01*
X24409Y84252D01*
X16535Y124016D02*
Y133858D01*
Y108268D02*
Y124016D01*
X34252D01*
X38976Y128740D01*
X13780Y136614D02*
X16535Y133858D01*
Y108268D02*
X24409Y100394D01*
Y84252D02*
Y100394D01*
M02*
