G04*
G04 #@! TF.GenerationSoftware,Altium Limited,Altium Designer,22.10.1 (41)*
G04*
G04 Layer_Color=8388736*
%FSLAX25Y25*%
%MOIN*%
G70*
G04*
G04 #@! TF.SameCoordinates,C65821A1-17F7-41E3-85A7-462E8C27BB40*
G04*
G04*
G04 #@! TF.FilePolarity,Negative*
G04*
G01*
G75*
G04:AMPARAMS|DCode=14|XSize=65.3mil|YSize=24.68mil|CornerRadius=12.34mil|HoleSize=0mil|Usage=FLASHONLY|Rotation=90.000|XOffset=0mil|YOffset=0mil|HoleType=Round|Shape=RoundedRectangle|*
%AMROUNDEDRECTD14*
21,1,0.06530,0.00000,0,0,90.0*
21,1,0.04063,0.02468,0,0,90.0*
1,1,0.02468,0.00000,0.02031*
1,1,0.02468,0.00000,-0.02031*
1,1,0.02468,0.00000,-0.02031*
1,1,0.02468,0.00000,0.02031*
%
%ADD14ROUNDEDRECTD14*%
%ADD15R,0.02468X0.06530*%
G04:AMPARAMS|DCode=18|XSize=51.18mil|YSize=43.31mil|CornerRadius=0mil|HoleSize=0mil|Usage=FLASHONLY|Rotation=45.000|XOffset=0mil|YOffset=0mil|HoleType=Round|Shape=Rectangle|*
%AMROTATEDRECTD18*
4,1,4,-0.00278,-0.03341,-0.03341,-0.00278,0.00278,0.03341,0.03341,0.00278,-0.00278,-0.03341,0.0*
%
%ADD18ROTATEDRECTD18*%

%ADD21R,0.04724X0.07087*%
%ADD25R,0.07087X0.04724*%
%ADD26R,0.04147X0.03753*%
%ADD27R,0.04737X0.13005*%
G04:AMPARAMS|DCode=28|XSize=21.78mil|YSize=61.15mil|CornerRadius=0mil|HoleSize=0mil|Usage=FLASHONLY|Rotation=315.000|XOffset=0mil|YOffset=0mil|HoleType=Round|Shape=Rectangle|*
%AMROTATEDRECTD28*
4,1,4,-0.02932,-0.01392,0.01392,0.02932,0.02932,0.01392,-0.01392,-0.02932,-0.02932,-0.01392,0.0*
%
%ADD28ROTATEDRECTD28*%

G04:AMPARAMS|DCode=29|XSize=61.15mil|YSize=21.78mil|CornerRadius=0mil|HoleSize=0mil|Usage=FLASHONLY|Rotation=315.000|XOffset=0mil|YOffset=0mil|HoleType=Round|Shape=Rectangle|*
%AMROTATEDRECTD29*
4,1,4,-0.02932,0.01392,-0.01392,0.02932,0.02932,-0.01392,0.01392,-0.02932,-0.02932,0.01392,0.0*
%
%ADD29ROTATEDRECTD29*%

%ADD30P,0.04194X4X270.0*%
G04:AMPARAMS|DCode=31|XSize=49.34mil|YSize=45.4mil|CornerRadius=0mil|HoleSize=0mil|Usage=FLASHONLY|Rotation=45.000|XOffset=0mil|YOffset=0mil|HoleType=Round|Shape=Rectangle|*
%AMROTATEDRECTD31*
4,1,4,-0.00139,-0.03350,-0.03350,-0.00139,0.00139,0.03350,0.03350,0.00139,-0.00139,-0.03350,0.0*
%
%ADD31ROTATEDRECTD31*%

G04:AMPARAMS|DCode=32|XSize=41.47mil|YSize=37.53mil|CornerRadius=0mil|HoleSize=0mil|Usage=FLASHONLY|Rotation=315.000|XOffset=0mil|YOffset=0mil|HoleType=Round|Shape=Rectangle|*
%AMROTATEDRECTD32*
4,1,4,-0.02793,0.00139,-0.00139,0.02793,0.02793,-0.00139,0.00139,-0.02793,-0.02793,0.00139,0.0*
%
%ADD32ROTATEDRECTD32*%

%ADD33R,0.04934X0.04540*%
G04:AMPARAMS|DCode=34|XSize=41.47mil|YSize=37.53mil|CornerRadius=0mil|HoleSize=0mil|Usage=FLASHONLY|Rotation=45.000|XOffset=0mil|YOffset=0mil|HoleType=Round|Shape=Rectangle|*
%AMROTATEDRECTD34*
4,1,4,-0.00139,-0.02793,-0.02793,-0.00139,0.00139,0.02793,0.02793,0.00139,-0.00139,-0.02793,0.0*
%
%ADD34ROTATEDRECTD34*%

G04:AMPARAMS|DCode=35|XSize=49.34mil|YSize=45.4mil|CornerRadius=0mil|HoleSize=0mil|Usage=FLASHONLY|Rotation=135.000|XOffset=0mil|YOffset=0mil|HoleType=Round|Shape=Rectangle|*
%AMROTATEDRECTD35*
4,1,4,0.03350,-0.00139,0.00139,-0.03350,-0.03350,0.00139,-0.00139,0.03350,0.03350,-0.00139,0.0*
%
%ADD35ROTATEDRECTD35*%

%ADD36R,0.04540X0.04934*%
%ADD37C,0.07284*%
%ADD38R,0.07284X0.07284*%
%ADD39C,0.13521*%
%ADD40C,0.18517*%
%ADD41R,0.09658X0.09658*%
%ADD42C,0.14383*%
%ADD43C,0.06391*%
%ADD44C,0.03556*%
%ADD45C,0.06706*%
%ADD46C,0.22453*%
%ADD47C,0.05800*%
%ADD48C,0.40170*%
D14*
X9843Y55512D02*
D03*
X13445Y47821D02*
D03*
D15*
X6240D02*
D03*
D18*
X81263Y198717D02*
D03*
X87110Y204563D02*
D03*
X82516Y209157D02*
D03*
X76670Y203311D02*
D03*
X84150Y10200D02*
D03*
X89996Y16047D02*
D03*
X94590Y11453D02*
D03*
X88744Y5607D02*
D03*
D21*
X10433Y128543D02*
D03*
Y144291D02*
D03*
X19882D02*
D03*
X19882Y128543D02*
D03*
D25*
X20583Y9218D02*
D03*
X36331Y9218D02*
D03*
X36331Y18667D02*
D03*
X20583D02*
D03*
D26*
X15354Y163583D02*
D03*
Y168701D02*
D03*
X5512Y62008D02*
D03*
Y56890D02*
D03*
X5906Y71900D02*
D03*
Y66782D02*
D03*
X32658Y32166D02*
D03*
Y27048D02*
D03*
D27*
X101772Y182382D02*
D03*
Y161122D02*
D03*
X91772Y182382D02*
D03*
Y161122D02*
D03*
X61772D02*
D03*
Y182382D02*
D03*
X71772Y161122D02*
D03*
Y182382D02*
D03*
X81772Y161122D02*
D03*
Y182382D02*
D03*
X111772Y161122D02*
D03*
X121772Y161122D02*
D03*
X111772Y182382D02*
D03*
X121772D02*
D03*
D28*
X41676Y41394D02*
D03*
X101251Y100970D02*
D03*
X43068Y40003D02*
D03*
X102643Y99578D02*
D03*
X36109Y46962D02*
D03*
X95684Y106537D02*
D03*
X48636Y34435D02*
D03*
X108211Y94010D02*
D03*
X37501Y45570D02*
D03*
X97076Y105146D02*
D03*
X47244Y35827D02*
D03*
X106819Y95402D02*
D03*
X38892Y44178D02*
D03*
X98468Y103754D02*
D03*
X45852Y37219D02*
D03*
X105427Y96794D02*
D03*
X18013Y65058D02*
D03*
X77588Y124633D02*
D03*
X66731Y16340D02*
D03*
X126306Y75915D02*
D03*
X19405Y63666D02*
D03*
X78980Y123241D02*
D03*
X65339Y17731D02*
D03*
X124915Y77307D02*
D03*
X20797Y62274D02*
D03*
X80372Y121849D02*
D03*
X63947Y19124D02*
D03*
X123522Y78699D02*
D03*
X40284Y42786D02*
D03*
X99859Y102362D02*
D03*
X44460Y38611D02*
D03*
X104035Y98186D02*
D03*
X22189Y60882D02*
D03*
X81764Y120457D02*
D03*
X62555Y20515D02*
D03*
X122131Y80090D02*
D03*
X23581Y59490D02*
D03*
X83156Y119065D02*
D03*
X61164Y21907D02*
D03*
X120739Y81482D02*
D03*
X24973Y58098D02*
D03*
X84548Y117673D02*
D03*
X59772Y23299D02*
D03*
X119347Y82874D02*
D03*
X26365Y56706D02*
D03*
X85940Y116281D02*
D03*
X58380Y24691D02*
D03*
X117955Y84266D02*
D03*
X27757Y55314D02*
D03*
X87332Y114889D02*
D03*
X56988Y26083D02*
D03*
X116563Y85658D02*
D03*
X29149Y53922D02*
D03*
X88724Y113497D02*
D03*
X55596Y27475D02*
D03*
X115171Y87050D02*
D03*
X30541Y52530D02*
D03*
X90116Y112105D02*
D03*
X54204Y28867D02*
D03*
X113779Y88442D02*
D03*
X31933Y51138D02*
D03*
X91508Y110713D02*
D03*
X52812Y30259D02*
D03*
X112387Y89834D02*
D03*
X33325Y49746D02*
D03*
X92900Y109321D02*
D03*
X51420Y31651D02*
D03*
X110995Y91226D02*
D03*
X34717Y48354D02*
D03*
X94292Y107929D02*
D03*
X50028Y33043D02*
D03*
X109603Y92618D02*
D03*
X108786Y289271D02*
D03*
X49211Y229695D02*
D03*
X93475Y304582D02*
D03*
X33900Y245007D02*
D03*
X110178Y287879D02*
D03*
X50603Y228304D02*
D03*
X92083Y305974D02*
D03*
X32508Y246399D02*
D03*
X111570Y286487D02*
D03*
X51995Y226911D02*
D03*
X90691Y307366D02*
D03*
X31116Y247791D02*
D03*
X112962Y285095D02*
D03*
X53387Y225520D02*
D03*
X89299Y308758D02*
D03*
X29724Y249183D02*
D03*
X114354Y283703D02*
D03*
X54779Y224128D02*
D03*
X87907Y310150D02*
D03*
X28332Y250575D02*
D03*
X115746Y282311D02*
D03*
X56171Y222736D02*
D03*
X86515Y311542D02*
D03*
X26940Y251967D02*
D03*
X117138Y280919D02*
D03*
X57563Y221344D02*
D03*
X85123Y312934D02*
D03*
X25548Y253359D02*
D03*
X118530Y279527D02*
D03*
X58955Y219952D02*
D03*
X83731Y314325D02*
D03*
X24156Y254750D02*
D03*
X119922Y278135D02*
D03*
X60347Y218560D02*
D03*
X82339Y315718D02*
D03*
X22764Y256142D02*
D03*
X121314Y276743D02*
D03*
X61739Y217168D02*
D03*
X80948Y317109D02*
D03*
X21372Y257534D02*
D03*
X103219Y294838D02*
D03*
X43643Y235263D02*
D03*
X99043Y299014D02*
D03*
X39468Y239439D02*
D03*
X122706Y275351D02*
D03*
X63131Y215776D02*
D03*
X79555Y318501D02*
D03*
X19980Y258926D02*
D03*
X124098Y273959D02*
D03*
X64523Y214384D02*
D03*
X78164Y319893D02*
D03*
X18588Y260318D02*
D03*
X125490Y272567D02*
D03*
X65914Y212992D02*
D03*
X76772Y321285D02*
D03*
X17197Y261710D02*
D03*
X104611Y293446D02*
D03*
X45035Y233871D02*
D03*
X97651Y300406D02*
D03*
X38076Y240831D02*
D03*
X106002Y292055D02*
D03*
X46427Y232479D02*
D03*
X96259Y301798D02*
D03*
X36684Y242223D02*
D03*
X107394Y290663D02*
D03*
X47819Y231087D02*
D03*
X94867Y303190D02*
D03*
X35292Y243615D02*
D03*
X101827Y296230D02*
D03*
X42252Y236655D02*
D03*
X100435Y297622D02*
D03*
X40859Y238047D02*
D03*
D29*
X41676Y99578D02*
D03*
X43068Y100970D02*
D03*
X101251Y40003D02*
D03*
X102643Y41394D02*
D03*
X36108Y94010D02*
D03*
X48636Y106537D02*
D03*
X95684Y34435D02*
D03*
X108211Y46962D02*
D03*
X37501Y95402D02*
D03*
X47244Y105146D02*
D03*
X97076Y35827D02*
D03*
X106819Y45570D02*
D03*
X38892Y96794D02*
D03*
X45852Y103754D02*
D03*
X98468Y37219D02*
D03*
X105427Y44178D02*
D03*
X18013Y75915D02*
D03*
X66731Y124633D02*
D03*
X77588Y16340D02*
D03*
X126306Y65058D02*
D03*
X19405Y77307D02*
D03*
X65339Y123241D02*
D03*
X78980Y17731D02*
D03*
X124915Y63666D02*
D03*
X20797Y78699D02*
D03*
X63947Y121849D02*
D03*
X80372Y19124D02*
D03*
X123522Y62274D02*
D03*
X40284Y98186D02*
D03*
X44460Y102362D02*
D03*
X99859Y38611D02*
D03*
X104035Y42786D02*
D03*
X22189Y80090D02*
D03*
X62555Y120457D02*
D03*
X81764Y20515D02*
D03*
X122131Y60882D02*
D03*
X23581Y81482D02*
D03*
X61164Y119065D02*
D03*
X83156Y21907D02*
D03*
X120739Y59490D02*
D03*
X24973Y82874D02*
D03*
X59772Y117673D02*
D03*
X84548Y23299D02*
D03*
X119347Y58098D02*
D03*
X26365Y84266D02*
D03*
X58380Y116281D02*
D03*
X85940Y24691D02*
D03*
X117955Y56706D02*
D03*
X27757Y85658D02*
D03*
X56988Y114889D02*
D03*
X87332Y26083D02*
D03*
X116563Y55314D02*
D03*
X29149Y87050D02*
D03*
X55596Y113497D02*
D03*
X88724Y27475D02*
D03*
X115171Y53922D02*
D03*
X30541Y88442D02*
D03*
X54204Y112105D02*
D03*
X90116Y28867D02*
D03*
X113779Y52530D02*
D03*
X31933Y89834D02*
D03*
X52812Y110713D02*
D03*
X91508Y30259D02*
D03*
X112387Y51138D02*
D03*
X33325Y91226D02*
D03*
X51420Y109321D02*
D03*
X92900Y31651D02*
D03*
X110995Y49746D02*
D03*
X34717Y92618D02*
D03*
X50028Y107929D02*
D03*
X94292Y33043D02*
D03*
X109603Y48354D02*
D03*
X108786Y245007D02*
D03*
X93475Y229695D02*
D03*
X49211Y304582D02*
D03*
X33900Y289271D02*
D03*
X110178Y246399D02*
D03*
X92083Y228304D02*
D03*
X50603Y305974D02*
D03*
X32508Y287879D02*
D03*
X111570Y247791D02*
D03*
X90691Y226911D02*
D03*
X51995Y307366D02*
D03*
X31116Y286487D02*
D03*
X112962Y249183D02*
D03*
X89299Y225520D02*
D03*
X53387Y308758D02*
D03*
X29724Y285095D02*
D03*
X114354Y250575D02*
D03*
X87907Y224128D02*
D03*
X54779Y310150D02*
D03*
X28332Y283703D02*
D03*
X115746Y251967D02*
D03*
X86515Y222736D02*
D03*
X56171Y311542D02*
D03*
X26940Y282311D02*
D03*
X117138Y253359D02*
D03*
X85123Y221344D02*
D03*
X57563Y312934D02*
D03*
X25548Y280919D02*
D03*
X118530Y254750D02*
D03*
X83731Y219952D02*
D03*
X58955Y314325D02*
D03*
X24156Y279527D02*
D03*
X119922Y256142D02*
D03*
X82339Y218560D02*
D03*
X60347Y315718D02*
D03*
X22764Y278135D02*
D03*
X121314Y257534D02*
D03*
X80948Y217168D02*
D03*
X61739Y317109D02*
D03*
X21372Y276743D02*
D03*
X103219Y239439D02*
D03*
X99043Y235263D02*
D03*
X43643Y299014D02*
D03*
X39468Y294838D02*
D03*
X122706Y258926D02*
D03*
X79555Y215776D02*
D03*
X63131Y318501D02*
D03*
X19980Y275351D02*
D03*
X124098Y260318D02*
D03*
X78164Y214384D02*
D03*
X64523Y319893D02*
D03*
X18588Y273959D02*
D03*
X125490Y261710D02*
D03*
X76772Y212992D02*
D03*
X65914Y321285D02*
D03*
X17197Y272567D02*
D03*
X104611Y240831D02*
D03*
X97651Y233871D02*
D03*
X45035Y300406D02*
D03*
X38076Y293446D02*
D03*
X106002Y242223D02*
D03*
X96259Y232479D02*
D03*
X46427Y301798D02*
D03*
X36684Y292055D02*
D03*
X107394Y243615D02*
D03*
X94867Y231087D02*
D03*
X47819Y303190D02*
D03*
X35292Y290663D02*
D03*
X101827Y238047D02*
D03*
X100435Y236655D02*
D03*
X42252Y297622D02*
D03*
X40859Y296230D02*
D03*
D30*
X34422Y105735D02*
D03*
X31916Y108241D02*
D03*
X28812Y100322D02*
D03*
X30190Y104653D02*
D03*
X27684Y107158D02*
D03*
X26306Y102828D02*
D03*
D31*
X91682Y200837D02*
D03*
X95719Y196801D02*
D03*
D32*
X8427Y77324D02*
D03*
X12046Y80943D02*
D03*
X15907Y100750D02*
D03*
X19526Y104369D02*
D03*
X22282Y101219D02*
D03*
X18663Y97600D02*
D03*
X25432Y98069D02*
D03*
X21813Y94450D02*
D03*
X13227Y111062D02*
D03*
X9608Y107442D02*
D03*
D33*
X13957Y10148D02*
D03*
Y15856D02*
D03*
X43307Y24902D02*
D03*
Y19193D02*
D03*
D34*
X20707Y285986D02*
D03*
X17088Y289605D02*
D03*
X24250Y289529D02*
D03*
X20631Y293148D02*
D03*
X27794Y293072D02*
D03*
X24175Y296691D02*
D03*
X31337Y296616D02*
D03*
X27718Y300235D02*
D03*
X31458Y303975D02*
D03*
X35077Y300356D02*
D03*
X13545Y285668D02*
D03*
X17164Y282049D02*
D03*
D35*
X12549Y103690D02*
D03*
X16585Y107727D02*
D03*
X96013Y4675D02*
D03*
X100050Y8711D02*
D03*
D36*
X18012Y151181D02*
D03*
X12303Y151181D02*
D03*
X12303Y121654D02*
D03*
X18012D02*
D03*
X24508Y24016D02*
D03*
X18799D02*
D03*
D37*
X160360Y364127D02*
D03*
Y167277D02*
D03*
X239101Y364127D02*
D03*
X317841D02*
D03*
X396581D02*
D03*
X475321D02*
D03*
X199730Y9797D02*
D03*
X278471Y9797D02*
D03*
X357211D02*
D03*
X435951D02*
D03*
X514691D02*
D03*
X199730Y49167D02*
D03*
X278471Y49167D02*
D03*
X357211Y49167D02*
D03*
X435951Y49167D02*
D03*
X514691D02*
D03*
X199730Y88537D02*
D03*
X278471Y88537D02*
D03*
X357211D02*
D03*
X435951D02*
D03*
X514691D02*
D03*
X199730Y127907D02*
D03*
X278471Y127907D02*
D03*
X357211D02*
D03*
X435951D02*
D03*
X514691D02*
D03*
X199730Y167277D02*
D03*
X278471Y167277D02*
D03*
X357211D02*
D03*
X435951D02*
D03*
X514691D02*
D03*
X199730Y206647D02*
D03*
X278471Y206647D02*
D03*
X357211D02*
D03*
X435951D02*
D03*
X514691D02*
D03*
X199730Y246017D02*
D03*
X278471Y246017D02*
D03*
X357211D02*
D03*
X435951D02*
D03*
X514691D02*
D03*
X199730Y285387D02*
D03*
X278471Y285387D02*
D03*
X357211D02*
D03*
X435951D02*
D03*
X514691D02*
D03*
X199730Y324757D02*
D03*
X278471Y324757D02*
D03*
X357211D02*
D03*
X435951D02*
D03*
X514691D02*
D03*
X199730Y364127D02*
D03*
X278471Y364127D02*
D03*
X357211D02*
D03*
X435951D02*
D03*
X514691D02*
D03*
X160360Y9797D02*
D03*
X239101Y9797D02*
D03*
X317841D02*
D03*
X396581D02*
D03*
X475321D02*
D03*
X160360Y49167D02*
D03*
X239101Y49167D02*
D03*
X317841Y49167D02*
D03*
X396581Y49167D02*
D03*
X475321D02*
D03*
X160360Y88537D02*
D03*
X239101Y88537D02*
D03*
X317841D02*
D03*
X396581D02*
D03*
X475321D02*
D03*
X160360Y127907D02*
D03*
X239101Y127907D02*
D03*
X317841D02*
D03*
X396581D02*
D03*
X475321D02*
D03*
X239101Y167277D02*
D03*
X317841D02*
D03*
X396581D02*
D03*
X475321D02*
D03*
X160360Y206647D02*
D03*
X239101Y206647D02*
D03*
X317841D02*
D03*
X396581D02*
D03*
X475321D02*
D03*
X160360Y246017D02*
D03*
X239101Y246017D02*
D03*
X317841D02*
D03*
X396581D02*
D03*
X475321D02*
D03*
X160360Y285387D02*
D03*
X239101Y285387D02*
D03*
X317841D02*
D03*
X396581D02*
D03*
X475321D02*
D03*
X160360Y324757D02*
D03*
X239101Y324757D02*
D03*
X317841D02*
D03*
X396581D02*
D03*
X475321D02*
D03*
D38*
X160360Y383812D02*
D03*
Y186962D02*
D03*
X239101Y383812D02*
D03*
X317841D02*
D03*
X396581D02*
D03*
X475321D02*
D03*
X199730Y29482D02*
D03*
X278471Y29482D02*
D03*
X357211D02*
D03*
X435951D02*
D03*
X514691D02*
D03*
X199730Y68852D02*
D03*
X278471Y68852D02*
D03*
X357211Y68852D02*
D03*
X435951Y68852D02*
D03*
X514691D02*
D03*
X199730Y108222D02*
D03*
X278471Y108222D02*
D03*
X357211D02*
D03*
X435951D02*
D03*
X514691D02*
D03*
X199730Y147592D02*
D03*
X278471Y147592D02*
D03*
X357211D02*
D03*
X435951D02*
D03*
X514691D02*
D03*
X199730Y186962D02*
D03*
X278471Y186962D02*
D03*
X357211D02*
D03*
X435951D02*
D03*
X514691D02*
D03*
X199730Y226332D02*
D03*
X278471Y226332D02*
D03*
X357211D02*
D03*
X435951D02*
D03*
X514691D02*
D03*
X199730Y265702D02*
D03*
X278471Y265702D02*
D03*
X357211D02*
D03*
X435951D02*
D03*
X514691D02*
D03*
X199730Y305072D02*
D03*
X278471Y305072D02*
D03*
X357211D02*
D03*
X435951D02*
D03*
X514691D02*
D03*
X199730Y344443D02*
D03*
X278471Y344442D02*
D03*
X357211D02*
D03*
X435951D02*
D03*
X514691D02*
D03*
X199730Y383812D02*
D03*
X278471Y383812D02*
D03*
X357211D02*
D03*
X435951Y383812D02*
D03*
X514691Y383812D02*
D03*
X160360Y29482D02*
D03*
X239101Y29482D02*
D03*
X317841D02*
D03*
X396581D02*
D03*
X475321D02*
D03*
X160360Y68852D02*
D03*
X239101Y68852D02*
D03*
X317841Y68852D02*
D03*
X396581Y68852D02*
D03*
X475321D02*
D03*
X160360Y108222D02*
D03*
X239101Y108222D02*
D03*
X317841D02*
D03*
X396581D02*
D03*
X475321D02*
D03*
X160360Y147592D02*
D03*
X239101Y147592D02*
D03*
X317841D02*
D03*
X396581D02*
D03*
X475321D02*
D03*
X239101Y186962D02*
D03*
X317841D02*
D03*
X396581D02*
D03*
X475321D02*
D03*
X160360Y226332D02*
D03*
X239101Y226332D02*
D03*
X317841D02*
D03*
X396581D02*
D03*
X475321D02*
D03*
X160360Y265702D02*
D03*
X239101Y265702D02*
D03*
X317841D02*
D03*
X396581D02*
D03*
X475321D02*
D03*
X160360Y305072D02*
D03*
X239101Y305072D02*
D03*
X317841D02*
D03*
X396581D02*
D03*
X475321D02*
D03*
X160360Y344443D02*
D03*
X239101Y344442D02*
D03*
X317841D02*
D03*
X396581D02*
D03*
X475321D02*
D03*
D39*
X22047Y383071D02*
D03*
X40551Y383071D02*
D03*
Y345669D02*
D03*
X22047Y345669D02*
D03*
D40*
X24016Y364370D02*
D03*
D41*
X47638D02*
D03*
D42*
X37913Y173543D02*
D03*
Y220945D02*
D03*
D43*
X56457Y202165D02*
D03*
Y192323D02*
D03*
X48583Y192323D02*
D03*
Y202165D02*
D03*
D44*
X28642Y4134D02*
D03*
X15354Y170866D02*
D03*
X6693Y142913D02*
D03*
Y158661D02*
D03*
X14567Y155511D02*
D03*
X86614Y384252D02*
D03*
X63976Y312402D02*
D03*
X57480Y363386D02*
D03*
X166929Y365748D02*
D03*
X170079Y362598D02*
D03*
X106299Y284842D02*
D03*
X166929Y11417D02*
D03*
X170079Y8268D02*
D03*
X47638Y134252D02*
D03*
X14173Y99016D02*
D03*
X8661Y112598D02*
D03*
X76279Y169390D02*
D03*
X62106Y171457D02*
D03*
X48388Y237491D02*
D03*
X48228Y26969D02*
D03*
X27146Y26331D02*
D03*
X15748Y31496D02*
D03*
X13386Y51968D02*
D03*
X12992Y28740D02*
D03*
X18398Y34252D02*
D03*
X15748Y22835D02*
D03*
X24496Y75000D02*
D03*
X10630Y59842D02*
D03*
X10433Y71850D02*
D03*
X32087Y102657D02*
D03*
X35433Y113287D02*
D03*
X37795Y107671D02*
D03*
X28346Y113287D02*
D03*
X57480Y228346D02*
D03*
X86221Y147244D02*
D03*
X96457Y141732D02*
D03*
X89764Y145276D02*
D03*
X79134Y151181D02*
D03*
X82677Y149213D02*
D03*
X78347Y146063D02*
D03*
X44094Y122047D02*
D03*
X45957Y96296D02*
D03*
X43307Y126378D02*
D03*
X22835Y107087D02*
D03*
X96457Y98819D02*
D03*
X129921Y267323D02*
D03*
X121653Y265748D02*
D03*
X103347Y287795D02*
D03*
X48985Y297244D02*
D03*
X73039Y217204D02*
D03*
X84625Y228802D02*
D03*
X81467Y225787D02*
D03*
X78715Y223000D02*
D03*
X75717Y219980D02*
D03*
X54284Y231440D02*
D03*
X27961Y158268D02*
D03*
X21755Y160135D02*
D03*
X17717Y158661D02*
D03*
X27165Y168410D02*
D03*
X85827Y204331D02*
D03*
X77953Y203543D02*
D03*
X38976Y128740D02*
D03*
X6693Y81890D02*
D03*
X32735Y83465D02*
D03*
X30003Y80628D02*
D03*
X21469Y72093D02*
D03*
X32087Y69291D02*
D03*
X42126Y268504D02*
D03*
X39370Y271260D02*
D03*
X36614Y274016D02*
D03*
X33858Y276772D02*
D03*
X31102Y279528D02*
D03*
X28899Y302991D02*
D03*
X39567Y90158D02*
D03*
X42520Y93110D02*
D03*
X56102Y106693D02*
D03*
X59055Y109646D02*
D03*
X53150Y103740D02*
D03*
X23228Y66740D02*
D03*
X27210Y77872D02*
D03*
X32087Y64173D02*
D03*
X30709Y96063D02*
D03*
X39370Y287795D02*
D03*
X42323Y290748D02*
D03*
X15354Y264567D02*
D03*
X9055Y270866D02*
D03*
X24606Y145473D02*
D03*
Y139764D02*
D03*
X12205Y267766D02*
D03*
X42395Y304649D02*
D03*
X20669Y265158D02*
D03*
X32480Y152756D02*
D03*
X45362Y307616D02*
D03*
X55118Y303543D02*
D03*
X58465Y306890D02*
D03*
X52165Y300591D02*
D03*
X10630Y101969D02*
D03*
X16929Y95472D02*
D03*
X12186Y4017D02*
D03*
X9055Y13189D02*
D03*
X25785Y118446D02*
D03*
X31102Y129921D02*
D03*
X26772Y129528D02*
D03*
X34252Y133071D02*
D03*
X75984Y21909D02*
D03*
X85442Y31362D02*
D03*
X82285Y28346D02*
D03*
X79335Y25363D02*
D03*
X85773Y305261D02*
D03*
X70079Y303150D02*
D03*
X80042Y311044D02*
D03*
X83074Y308002D02*
D03*
X87008Y108268D02*
D03*
X71260Y106299D02*
D03*
X83858Y111415D02*
D03*
X89961Y105315D02*
D03*
X80662Y114391D02*
D03*
X20472Y92724D02*
D03*
X27690Y92868D02*
D03*
X59055Y30935D02*
D03*
X56102Y33858D02*
D03*
X38475Y247356D02*
D03*
X48031Y329429D02*
D03*
X54331Y373228D02*
D03*
X93504Y11220D02*
D03*
X85236Y10630D02*
D03*
X11811Y115551D02*
D03*
X21654Y112402D02*
D03*
X74803Y316339D02*
D03*
X88583Y302559D02*
D03*
X95472Y295669D02*
D03*
X99409Y291732D02*
D03*
X115157Y259252D02*
D03*
X118701Y262795D02*
D03*
X107283Y251378D02*
D03*
X103347Y247441D02*
D03*
X100394Y244488D02*
D03*
X97441Y241535D02*
D03*
X93504Y237598D02*
D03*
X89567Y233661D02*
D03*
X41377Y244454D02*
D03*
X35433Y250394D02*
D03*
X29528Y256299D02*
D03*
X66929Y324213D02*
D03*
X69882Y321260D02*
D03*
X70866Y124409D02*
D03*
X67913Y127362D02*
D03*
X32087Y57874D02*
D03*
X36417Y53543D02*
D03*
X39459Y50505D02*
D03*
X42361Y47603D02*
D03*
X49213Y40748D02*
D03*
X72244Y18504D02*
D03*
X90551Y36811D02*
D03*
X94488Y40748D02*
D03*
X98425Y44685D02*
D03*
X101378Y47638D02*
D03*
X104331Y50591D02*
D03*
X108268Y54528D02*
D03*
X120079Y66339D02*
D03*
X116142Y62402D02*
D03*
X123031Y69291D02*
D03*
X107283Y87992D02*
D03*
X104331Y90945D02*
D03*
X100394Y94882D02*
D03*
X75787Y119488D02*
D03*
X64961Y115551D02*
D03*
X42717Y131890D02*
D03*
X18701Y145473D02*
D03*
Y139764D02*
D03*
X10827Y127362D02*
D03*
X7283Y134252D02*
D03*
X17107Y4017D02*
D03*
X8248Y7039D02*
D03*
X32658Y24756D02*
D03*
X61417Y375591D02*
D03*
X166929Y247638D02*
D03*
Y208268D02*
D03*
Y287008D02*
D03*
X170079Y283858D02*
D03*
Y244488D02*
D03*
Y205118D02*
D03*
X245669Y247638D02*
D03*
Y208268D02*
D03*
Y287008D02*
D03*
X166929Y326378D02*
D03*
X170079Y323228D02*
D03*
X245669Y326378D02*
D03*
Y365748D02*
D03*
X248819Y244488D02*
D03*
Y205118D02*
D03*
Y283858D02*
D03*
X324409Y247638D02*
D03*
Y208268D02*
D03*
Y287008D02*
D03*
X327559Y205118D02*
D03*
Y244488D02*
D03*
Y283858D02*
D03*
X248819Y323228D02*
D03*
Y362598D02*
D03*
X324409Y326378D02*
D03*
Y365748D02*
D03*
X327559Y323228D02*
D03*
Y362598D02*
D03*
X406299Y205118D02*
D03*
X403150Y208268D02*
D03*
X406299Y244488D02*
D03*
X403150Y247638D02*
D03*
Y287008D02*
D03*
Y326378D02*
D03*
Y365748D02*
D03*
X406299Y283858D02*
D03*
Y323228D02*
D03*
Y362598D02*
D03*
X481890Y208268D02*
D03*
Y247638D02*
D03*
Y287008D02*
D03*
X485039Y205118D02*
D03*
Y244488D02*
D03*
Y283858D02*
D03*
X481890Y326378D02*
D03*
Y365748D02*
D03*
X485039Y323228D02*
D03*
Y362598D02*
D03*
X324409Y168898D02*
D03*
X327559Y165748D02*
D03*
X403150Y11417D02*
D03*
X406299Y8268D02*
D03*
X403150Y50787D02*
D03*
X406299Y47638D02*
D03*
X403150Y168898D02*
D03*
X406299Y165748D02*
D03*
X485039Y87008D02*
D03*
X481890Y90158D02*
D03*
Y168898D02*
D03*
X485039Y165748D02*
D03*
X481890Y129528D02*
D03*
X485039Y126378D02*
D03*
X327559Y8268D02*
D03*
X324409Y11417D02*
D03*
Y50787D02*
D03*
X327559Y47638D02*
D03*
X324409Y90158D02*
D03*
X327559Y87008D02*
D03*
X324409Y129528D02*
D03*
X327559Y126378D02*
D03*
X403150Y90158D02*
D03*
X406299Y87008D02*
D03*
X403150Y129528D02*
D03*
X406299Y126378D02*
D03*
X245669Y129528D02*
D03*
X248819Y126378D02*
D03*
X245669Y168898D02*
D03*
X248819Y165748D02*
D03*
Y87008D02*
D03*
X245669Y90158D02*
D03*
X170079Y165748D02*
D03*
X248819Y47638D02*
D03*
X245669Y11417D02*
D03*
X248819Y8268D02*
D03*
X245669Y50787D02*
D03*
X166929D02*
D03*
X170079Y47638D02*
D03*
X166929Y90158D02*
D03*
X170079Y87008D02*
D03*
Y126378D02*
D03*
X166929Y129528D02*
D03*
Y168898D02*
D03*
X481890Y11417D02*
D03*
X485039Y8268D02*
D03*
X481890Y50787D02*
D03*
X485039Y47638D02*
D03*
D45*
X8268Y164567D02*
D03*
X50492Y7283D02*
D03*
X86614Y192913D02*
D03*
X16929Y236221D02*
D03*
X30906Y236319D02*
D03*
X50578Y21371D02*
D03*
X57677Y14272D02*
D03*
X65460Y7293D02*
D03*
X75499D02*
D03*
D46*
X125000Y362598D02*
D03*
X125000Y31890D02*
D03*
D47*
X66535Y349213D02*
D03*
X105354Y182343D02*
D03*
X85335Y178445D02*
D03*
X7087Y319291D02*
D03*
X11811Y326378D02*
D03*
X71063Y189764D02*
D03*
X111024Y274016D02*
D03*
X62598Y246063D02*
D03*
X50787Y50000D02*
D03*
X108268Y81102D02*
D03*
X64044Y78337D02*
D03*
X53604Y68037D02*
D03*
X74414Y88846D02*
D03*
X72047Y70472D02*
D03*
X61671Y59938D02*
D03*
X82696Y80703D02*
D03*
X58268Y147244D02*
D03*
X126772Y182283D02*
D03*
X73626Y285697D02*
D03*
X81908Y277554D02*
D03*
X116929Y182283D02*
D03*
X96850Y182283D02*
D03*
X60884Y256789D02*
D03*
X52817Y264887D02*
D03*
X71260Y267323D02*
D03*
X63256Y275187D02*
D03*
X72835Y326772D02*
D03*
X77953Y331890D02*
D03*
X82677Y336221D02*
D03*
X45276Y318898D02*
D03*
X31890Y317717D02*
D03*
X492520Y388583D02*
D03*
X413779D02*
D03*
X335039D02*
D03*
X256693Y388976D02*
D03*
X177559Y388583D02*
D03*
X44488Y358268D02*
D03*
X41339Y364173D02*
D03*
X44094Y370866D02*
D03*
X16929Y299213D02*
D03*
X62205Y382283D02*
D03*
X80709Y383071D02*
D03*
X425715Y177120D02*
D03*
Y59009D02*
D03*
Y19639D02*
D03*
Y98379D02*
D03*
X346974Y177120D02*
D03*
X337664Y177286D02*
D03*
X504455Y137750D02*
D03*
Y98379D02*
D03*
Y177120D02*
D03*
X495144Y98545D02*
D03*
Y177286D02*
D03*
Y137916D02*
D03*
X504455Y19639D02*
D03*
Y59009D02*
D03*
X416404Y19805D02*
D03*
Y59175D02*
D03*
X495144D02*
D03*
X416404Y177286D02*
D03*
X337664Y19805D02*
D03*
Y59175D02*
D03*
Y98545D02*
D03*
Y137916D02*
D03*
X425715Y137750D02*
D03*
X416404Y98545D02*
D03*
Y137916D02*
D03*
Y295396D02*
D03*
X346974Y98379D02*
D03*
X425715Y334600D02*
D03*
Y373970D02*
D03*
X416404Y334766D02*
D03*
Y374136D02*
D03*
X425715Y295230D02*
D03*
Y216490D02*
D03*
Y255860D02*
D03*
X416404Y216656D02*
D03*
Y256026D02*
D03*
X258923Y137916D02*
D03*
X346974Y137750D02*
D03*
X189494Y19639D02*
D03*
Y59009D02*
D03*
X346974Y334600D02*
D03*
Y373970D02*
D03*
X337664Y374136D02*
D03*
X268234Y59009D02*
D03*
Y19639D02*
D03*
X346974D02*
D03*
Y59009D02*
D03*
X268234Y177120D02*
D03*
X258923Y177286D02*
D03*
X268234Y98379D02*
D03*
Y137750D02*
D03*
X258923Y98545D02*
D03*
X268234Y373970D02*
D03*
X258923Y374136D02*
D03*
Y19805D02*
D03*
Y59175D02*
D03*
X189494Y334600D02*
D03*
X268234Y334600D02*
D03*
X189494Y373970D02*
D03*
X180183Y374136D02*
D03*
Y19805D02*
D03*
X189494Y98379D02*
D03*
X180183Y59175D02*
D03*
Y98545D02*
D03*
X189494Y177120D02*
D03*
Y137750D02*
D03*
X180183Y137916D02*
D03*
Y177286D02*
D03*
X504455Y295230D02*
D03*
Y216490D02*
D03*
Y255860D02*
D03*
X495144Y216656D02*
D03*
Y256026D02*
D03*
Y295396D02*
D03*
X504455Y334600D02*
D03*
Y373970D02*
D03*
X495144Y334766D02*
D03*
Y374136D02*
D03*
Y19805D02*
D03*
X189494Y216490D02*
D03*
X180183Y334766D02*
D03*
X189494Y255860D02*
D03*
X180183Y216656D02*
D03*
Y256026D02*
D03*
X189494Y295230D02*
D03*
X180183Y295396D02*
D03*
X337664Y216656D02*
D03*
Y256026D02*
D03*
X346974Y255860D02*
D03*
Y216490D02*
D03*
X258923Y256026D02*
D03*
X268234Y255860D02*
D03*
Y295230D02*
D03*
X258923Y295396D02*
D03*
Y334766D02*
D03*
X346974Y295230D02*
D03*
X337664Y295396D02*
D03*
Y334766D02*
D03*
X259275Y216838D02*
D03*
X268234Y216490D02*
D03*
X177683Y233025D02*
D03*
Y272395D02*
D03*
Y311765D02*
D03*
Y351135D02*
D03*
X256423Y233221D02*
D03*
X256693Y273228D02*
D03*
X335163Y272395D02*
D03*
Y233025D02*
D03*
X256299Y312992D02*
D03*
X256693Y352756D02*
D03*
X335163Y311765D02*
D03*
Y351135D02*
D03*
X413904Y233025D02*
D03*
Y272395D02*
D03*
Y311765D02*
D03*
Y351135D02*
D03*
X492644Y233025D02*
D03*
Y272395D02*
D03*
Y311765D02*
D03*
Y351135D02*
D03*
X335163Y193655D02*
D03*
X492644D02*
D03*
Y114915D02*
D03*
Y154285D02*
D03*
X413904Y36175D02*
D03*
X492644D02*
D03*
Y75545D02*
D03*
X413904D02*
D03*
Y114915D02*
D03*
Y154285D02*
D03*
Y193655D02*
D03*
X335163Y36175D02*
D03*
Y114915D02*
D03*
Y154285D02*
D03*
X177683Y75545D02*
D03*
Y36175D02*
D03*
X256299Y37795D02*
D03*
Y116142D02*
D03*
X335163Y75545D02*
D03*
X256299Y76378D02*
D03*
X177683Y193655D02*
D03*
Y154285D02*
D03*
X256299Y155512D02*
D03*
Y194095D02*
D03*
X177683Y114915D02*
D03*
D48*
X561024Y362598D02*
D03*
Y31890D02*
D03*
M02*
