M48
;Layer_Color=9474304
;FILE_FORMAT=2:4
INCH,TZ
;TYPE=PLATED
T1F00S00C0.0157
T2F00S00C0.0276
T3F00S00C0.0280
T4F00S00C0.0362
T5F00S00C0.0394
T6F00S00C0.0472
T7F00S00C0.0591
T8F00S00C0.0848
T9F00S00C0.0906
T10F00S00C0.1222
T11F00S00C0.1614
T12F00S00C0.2402
%
T01
X825Y704
X906Y1319
X1219Y402
X1711
X2864Y413
X2715Y2633
X3266Y2476
X4823Y2697
X5610Y3386
X5906Y3093
X4921Y4075
X4236Y4760
X3946Y5051
X3642Y5354
X1339Y5197
X1840Y3425
X1575Y3150
X1299Y2874
X1575Y2283
X7224Y1850
X7598Y2191
X7933Y2536
X8228Y2835
X8544Y3136
X9055Y3681
X9449Y4075
X9843Y4469
X10138Y4764
X10433Y5059
X9350Y1122
X8524Y1063
X16693Y1142
X17008Y827
Y4764
X16693Y5079
X24567
X24882Y4764
Y827
X24567Y1142
X32441
X32756Y827
Y4764
X32441Y5079
X40315
X40630Y4764
Y827
X40315Y1142
X48189
X48504Y827
Y4764
X48189Y5079
Y9016
X48504Y8701
Y12638
X48189Y12953
Y16890
X48504Y16575
Y20512
X48189Y20827
X40630Y20512
X40315Y20827
Y16890
X40630Y16575
Y12638
X40315Y12953
Y9016
X40630Y8701
X32756
X32441Y9016
Y12953
X32756Y12638
Y16575
X32441Y16890
Y20827
X32756Y20512
X24882
X24567Y20827
Y16890
X24882Y16575
Y12638
X24567Y12953
Y9016
X24882Y8701
X17008
X16693Y9016
Y12953
X17008Y12638
Y16575
X16693Y16890
Y20827
X17008Y20512
X8583Y20433
X7795Y20354
X7628Y16939
X6211Y17146
X7913Y15118
X8268Y14921
X8622Y14724
X8976Y14528
X9646Y14173
X7835Y14606
X7087Y12441
X6791Y12736
X6496Y11555
X5906Y10965
X5610Y10669
X5315Y10374
X4596Y9630
X4252Y9311
X3957Y9016
X3273Y8346
X3000Y8063
X2721Y7787
X2450Y7500
X2147Y7209
X2323Y6674
X3209Y6929
Y6417
X3209Y5787
X1063Y5984
X1043Y7185
X669Y8189
X1693Y9547
X2047Y9272
X2769Y9287
X3071Y9606
X3209Y10266
X3780Y10767
X3543Y11329
X2835
X2165Y11240
X2283Y10709
X2579Y11845
X2677Y12953
X3110Y12992
X3425Y13307
X3898Y12874
X4331Y12638
X4409Y12205
X4272Y13189
X4764Y13425
X2461Y13976
Y14547
X1870
Y13976
X669Y14291
X728Y13425
X1083Y12736
X1181Y11555
X866Y11260
X1063Y10197
X1417Y9902
X1457Y15551
X1772Y15866
X2175Y16014
X2796Y15827
X3248Y15276
X2717Y16841
X1535Y17087
X669Y15866
X7579Y11949
X8066Y11439
X8386Y11142
X8701Y10827
X8996Y10532
X9646Y9882
X10039Y9488
X10433Y9094
X10728Y8799
X12008Y6634
X12303Y6929
X11614Y6240
X10827Y5453
X7126Y10630
X7304Y21720
X7572Y21998
X7871Y22300
X8147Y22579
X8463Y22880
X8957Y23366
X9350Y23760
X9744Y24154
X10039Y24449
X10335Y24744
X10728Y25138
X11516Y25925
X11870Y26280
X12165Y26575
X12992Y26732
X10630Y28484
X10335Y28780
X9941Y29173
X9547Y29567
X8858Y30256
X8577Y30526
X8307Y30800
X8004Y31104
X7480Y31634
X6988Y32126
X6693Y32421
X6398Y31240
X5846Y30689
X5512Y30354
X5217Y30059
X4898Y29724
X4232Y29075
X3937Y28780
X3386Y27677
X3661Y27402
X3937Y27126
X4213Y26850
X3110Y27953
X2067Y26516
X1535Y26457
X1220Y26777
X906Y27087
X2953Y25630
X3543Y25039
X3847Y24736
X4138Y24445
X4839Y23749
X5428Y23144
X5748Y22835
X7008Y30315
X4240Y30465
X4536Y30762
X2890Y30299
X4803Y32943
X5748Y36339
X16693Y36575
X17008Y36260
Y32323
X16693Y32638
Y28701
X17008Y28386
Y24449
X16693Y24764
X24567
X24882Y24449
Y28386
X24567Y28701
Y32638
X24882Y32323
Y36260
X24567Y36575
X32441
X32756Y36260
Y32323
X32441Y32638
Y28701
X32756Y28386
Y24449
X32441Y24764
X40315
X40630Y24449
Y28386
X40315Y28701
Y32638
X40630Y32323
Y36260
X40315Y36575
X48189
X48504Y36260
Y32323
X48189Y32638
Y28701
X48504Y28386
Y24449
X48189Y24764
X8661Y38425
X6142Y37559
X5433Y37323
T02
X5079Y5000
X6167Y5994
X5360Y6804
X6404Y7834
X7205Y7047
X7441Y8885
X8270Y8070
X10827Y8110
X10535Y18234
X9685Y18228
X8533Y17844
X7106Y18976
X11693Y18228
X12677Y18228
X5827Y14724
X6260Y24606
X6088Y25679
X5282Y26489
X6326Y27519
X7126Y26732
X7363Y28570
X8191Y27755
X11102Y27402
X8268Y33622
X7795Y33189
X7283Y32677
X6654Y34921
X4449Y35827
X4134Y36417
X4528Y31890
X3189Y31772
X709Y31929
X1181Y32638
X1693Y29921
X4409Y37087
X6220Y38228
X8071Y38307
T03
X18018Y1981
X18949Y1964
X17768Y3617
X25630Y3780
X25892Y1981
X26823Y1964
X33766Y1981
X34697Y1964
X33516Y3617
X41390
X41640Y1981
X42571Y1964
X49514Y1981
X50445Y1964
X49264Y3617
X49514Y5918
X50445Y5901
X49264Y7554
X49514Y9855
X50445Y9838
X49264Y11491
X49514Y13792
X50445Y13775
X49264Y15429
X49514Y17729
X50445Y17712
X49264Y19366
X41390
X41640Y17729
X42571Y17712
X41390Y15429
X41640Y13792
X42571Y13775
X41390Y11491
X41640Y9855
X42571Y9838
X41390Y7554
X41640Y5918
X42571Y5901
X34697
X33766Y5918
X33516Y7554
X33766Y9855
X34697Y9838
X33516Y11491
X33766Y13792
X34697Y13775
X33516Y15429
X33766Y17729
X34697Y17712
X33516Y19366
X25630Y19409
X25892Y17729
X26823Y17712
X25630Y15551
X25892Y13792
X26823Y13775
X25630Y11614
X25892Y9855
X26823Y9838
X25630Y7638
X25892Y5918
X26823Y5901
X18949Y5901
X18018Y5918
X17768Y7554
X18018Y9855
X18949Y9838
X17768Y11491
X18018Y13792
X18949Y13775
X17768Y15429
X18018Y17729
X18949Y17712
X17768Y19366
X18018Y21666
X18949Y21649
X17768Y23303
X18018Y25603
X18949Y25586
X17768Y27240
X18018Y29540
X18949Y29523
X17768Y31177
X18018Y33477
X18949Y33460
X17768Y35114
X25669Y35276
X25892Y33477
X26823Y33460
X25630Y31299
X25892Y29540
X26823Y29523
X25669Y27323
X25892Y25603
X26823Y25586
X25642Y23322
X25928Y21684
X26823Y21649
X33766Y21666
X34697Y21649
X33516Y23303
X33766Y25603
X34697Y25586
X33516Y27240
X33766Y29540
X34697Y29523
X33516Y31177
X33766Y33477
X34697Y33460
X33516Y35114
X41390
X41640Y33477
X42571Y33460
X41390Y31177
X41640Y29540
X42571Y29523
X41390Y27240
X41640Y25603
X42571Y25586
X41390Y23303
X41640Y21666
X42571Y21649
X49514Y21666
X50445Y21649
X49264Y23303
X49514Y25603
X50445Y25586
X49264Y27240
X49514Y29540
X50445Y29523
X49264Y31177
X49514Y33477
X50445Y33460
X49264Y35114
X49514Y37414
X50445Y37397
X49252Y38858
X41378
X41640Y37414
X42571Y37397
X34697
X33766Y37414
X33504Y38858
X25669Y38898
X25892Y37414
X26823Y37397
X18949Y37397
X18018Y37414
X17756Y38858
T04
X4858Y19232
X5646Y19232
Y20217
X4858Y20217
T05
X5049Y728
X5058Y2137
X5768Y1427
X6546Y729
X7550
X8661Y19291
X827Y16457
X1693Y23622
X3091Y23632
T06
X16036Y980
Y2948
Y4917
X19973
Y2948
Y980
X23910Y980
Y2948
Y4917
X27847
Y2948
Y980
X31784
Y2948
Y4917
X35721
Y2948
Y980
X39658
Y2948
Y4917
X43595
Y2948
Y980
X47532
Y2948
Y4917
X51469
Y2948
Y980
Y6885
Y8854
Y10822
Y12791
Y14759
Y16728
Y18696
Y20665
X47532
Y18696
Y16728
Y14759
Y12791
Y10822
Y8854
Y6885
X43595
Y8854
Y10822
Y12791
Y14759
Y16728
Y18696
Y20665
X39658
Y18696
Y16728
Y14759
Y12791
Y10822
Y8854
Y6885
X35721Y6885
Y8854
Y10822
Y12791
Y14759
Y16728
Y18696
Y20665
X31784
Y18696
Y16728
Y14759
Y12791
Y10822
Y8854
Y6885
X27847Y6885
Y8854
Y10822
Y12791
Y14759
Y16728
Y18696
Y20665
X23910
Y18696
Y16728
Y14759
Y12791
Y10822
Y8854
Y6885
X19973Y6885
Y8854
Y10822
Y12791
Y14759
Y16728
Y18696
Y20665
X16036
Y18696
Y16728
Y14759
Y12791
Y10822
Y8854
Y6885
Y22633
Y24602
Y26570
Y28539
Y30507
Y32476
Y34444
Y36413
X19973
Y34444
Y32476
Y30507
Y28539
Y26570
Y24602
Y22633
X23910Y22633
X23910Y24602
Y26570
X23910Y28539
Y30507
Y32476
Y34444
Y36413
X27847
Y34444
Y32476
Y30507
Y28539
X27847Y26570
Y24602
X27847Y22633
X31784
X31784Y24602
Y26570
X31784Y28539
Y30507
Y32476
Y34444
Y36413
X35721
Y34444
Y32476
Y30507
Y28539
X35721Y26570
Y24602
X35721Y22633
X39658
Y24602
Y26570
Y28539
Y30507
Y32476
Y34444
Y36413
X43595
Y34444
Y32476
Y30507
Y28539
Y26570
Y24602
Y22633
X47532
Y24602
Y26570
Y28539
Y30507
Y32476
Y34444
Y36413
X51469
Y34444
Y32476
Y30507
Y28539
Y26570
Y24602
Y22633
Y38381
X47532
X43595Y38381
X39658Y38381
X35721
X31784
X27847
X23910
X19973Y38381
X16036
T07
X4764Y36437
T08
X2205Y34567
X4055Y34567
Y38307
X2205Y38307
T09
X3791Y17354
Y22094
T10
X2402Y36437
T11
X12500Y3189
X12500Y36260
T12
X56102Y3189
Y36260
M30
